<svg width="131" height="40" viewBox="0 0 131 40" fill="none" xmlns="http://www.w3.org/2000/svg">
<g clip-path="url(#clip0_692_1226)">
<path d="M22.6221 21.9089C22.6221 21.9089 18.804 16.7156 25.6766 13.4698C31.2128 10.9543 35.2218 12.9018 35.2218 12.9018C35.2218 12.9018 30.7355 13.3075 26.6311 15.7419C22.3357 18.1762 22.6221 21.9089 22.6221 21.9089Z" fill="#676767"/>
<path d="M52.4981 13.9571H46.4846V17.4463H52.2118V19.3126H46.4846V24.9928H43.4302V14.9308V11.9285H52.4981V13.9571Z" fill="#676767"/>
<path d="M68.3428 19.7992C68.3428 21.5844 67.7701 23.045 66.5292 23.9376C65.226 24.8678 63.5499 25.3331 61.8521 25.2359C60.1878 25.3039 58.5538 24.8409 57.2704 23.9376C56.0295 23.045 55.3613 21.5844 55.3613 19.7992V15.0117V12.1716H58.4158V20.0427C58.4158 21.0976 58.7022 21.8279 59.3703 22.3959C59.943 22.9639 60.8021 23.2073 61.8521 23.2073C62.9975 23.2073 63.8566 22.9639 64.5247 22.3959C65.0974 21.8279 65.3838 21.0976 65.3838 20.0427V12.1716H68.2474V19.8804L68.3428 19.7992Z" fill="#676767"/>
<path d="M85.7153 24.9924H83.0427L74.6429 16.2287V24.9112H71.7793V15.0115V12.1715H74.452L82.6608 20.6105V12.0903H85.5244V24.9924H85.7153Z" fill="#676767"/>
<path fill-rule="evenodd" clip-rule="evenodd" d="M100.798 22.8832C102.121 21.7049 102.841 20.1297 102.802 18.5014C102.802 16.8785 102.134 15.3367 100.798 14.1195C100.005 13.4345 99.0515 12.8996 97.9987 12.55C96.9459 12.2003 95.818 12.0439 94.6891 12.0909H89.1528V24.993H94.6891C97.2663 24.993 99.2708 24.2627 100.798 22.8832ZM98.2208 15.5802C99.0799 16.3916 99.4617 17.2842 99.4617 18.5014C99.4617 19.7185 99.0799 20.6923 98.2208 21.5037C97.2663 22.4775 95.8345 22.9643 93.9254 22.9643H92.2073V14.0384H93.9254C95.8345 14.0384 97.2663 14.5253 98.2208 15.499V15.5802Z" fill="#676767"/>
<path d="M115.019 24.9924H105.474V12.0903H114.828V14.0378H108.529V17.4459H114.638V19.4745H108.529V23.0449H115.019V25.0735V24.9924Z" fill="#676767"/>
<path fill-rule="evenodd" clip-rule="evenodd" d="M127.429 24.9924H130.77L128.67 22.0711L128.193 21.3408C127.238 20.0425 126.284 19.1499 125.615 18.7442C126.379 18.5008 126.952 18.095 127.429 17.527C127.811 17.0402 128.097 16.391 128.097 15.7418C128.097 14.6058 127.62 13.7132 126.761 13.0641C125.806 12.4149 124.565 12.0903 123.038 12.0903H118.266V24.9924H121.32V19.4745H121.797C122.37 19.4745 122.847 19.6368 123.229 19.9614C123.802 20.286 124.565 21.0974 125.425 22.3146L127.334 24.9924H127.429ZM124.279 14.4435C124.756 14.7681 124.947 15.255 124.947 15.823C124.99 16.0946 124.951 16.371 124.834 16.6264C124.717 16.8818 124.526 17.1079 124.279 17.2836C123.732 17.635 123.054 17.8078 122.37 17.7705H121.416V14.0378H122.37C123.043 13.9771 123.719 14.1208 124.279 14.4435Z" fill="#676767"/>
<path d="M44.8617 2.1914C43.239 2.84056 40.6618 4.62574 40.4709 6.57322C41.4254 5.92406 42.7618 5.59948 44.0981 5.43719C47.248 5.03147 50.207 2.67827 50.3979 2.9217C50.4934 3.16514 48.1071 5.92406 45.339 6.32978C44.1935 6.49207 42.4754 6.65436 41.33 7.14123L40.3755 7.70925H40.28L38.9437 8.52069C39.8027 3.8143 32.9302 2.51598 29.2076 3.16514C30.353 4.22002 30.6393 5.59948 31.5939 6.81665C32.262 7.6281 33.0256 8.43955 34.0756 8.92642C34.6483 9.33214 35.5074 9.57558 36.271 9.65672C36.8437 9.65672 37.1301 9.41329 37.2255 8.92642C37.4164 8.35841 36.9392 7.87154 36.4619 7.46581L35.0301 6.1675C34.7329 5.92977 34.4137 5.71269 34.0756 5.51834L32.1666 4.62574C32.262 4.46345 33.312 4.62574 33.4075 4.62574C33.9802 4.78803 34.5529 4.95032 35.0301 5.2749C35.672 5.5712 36.2525 5.95496 36.7483 6.41093C37.2255 6.8978 37.7028 7.46581 37.9892 8.03383C38.0846 8.27726 38.1801 8.76413 37.9892 9.08871C37.9892 9.49443 37.6074 9.81901 37.4164 10.1436L36.7483 11.2796L36.0801 12.7402L35.7938 13.5517C35.0301 15.0934 33.9802 16.7975 32.6438 18.0146C31.0212 19.6375 28.6349 20.449 26.4395 21.2604C27.7758 21.0981 31.403 20.5301 33.312 18.9884C35.221 17.4466 36.3665 15.2557 37.4164 13.3082C38.0846 11.8476 39.1346 8.76413 41.2345 8.52069C42.2845 8.43955 43.6208 8.84527 44.6708 8.84527C45.6253 8.84527 46.5798 8.68298 47.5344 8.43955C49.2525 7.87154 50.5888 6.81665 51.4479 5.43719C51.9252 4.70689 52.4024 3.8143 52.6888 3.00285C52.9751 2.1914 53.166 0.730792 53.8342 0.000488281C50.9706 1.29881 47.8207 1.13652 44.9572 2.1914" fill="#676767"/>
<path fill-rule="evenodd" clip-rule="evenodd" d="M19.4713 24.8307C18.5167 25.7233 18.2304 26.6159 18.5167 27.2651C18.3258 27.2651 18.2304 27.1028 18.0395 26.7782L15.1759 20.8546H6.68067L3.81711 26.7782C3.6262 27.2651 3.53075 27.3462 2.86259 27.3462H0.667188C0.476284 27.3462 -0.000976562 27.3462 -0.000976562 26.9405L0.189928 26.3725L9.06697 7.70915C9.44878 7.05999 9.73514 6.89771 10.5942 6.89771H11.5487C12.5033 6.89771 12.6942 7.30343 13.076 7.95259L20.7121 24.0193C20.2349 24.1816 19.7576 24.5061 19.4713 24.8307ZM10.8806 11.1984L7.63519 18.3391H14.1259L10.7851 11.1984H10.8806Z" fill="#676767"/>
<path d="M40.0891 30.2678C39.8028 29.6997 39.421 29.2129 38.8482 28.726C38.2755 28.3203 37.6074 27.9146 36.8437 27.6711C36.0801 27.4277 35.2211 27.2654 34.2665 27.2654H26.1531L24.8168 26.9408C24.422 26.8192 24.0636 26.6253 23.7668 26.3728C23.4804 26.1294 23.1941 25.8048 23.385 25.3991C23.5759 24.5876 25.294 24.1819 26.2486 24.1819H28.444C31.9757 24.0196 34.9347 24.3442 37.5119 22.559C41.7118 19.5566 37.8937 14.2822 37.8937 14.2822C38.0846 14.4445 37.8937 15.0937 37.8937 15.3371L37.6074 17.2034C37.465 18.5273 36.8297 19.778 35.7938 20.7738C33.6938 22.559 31.1166 22.9647 28.3485 23.2082C25.7713 23.3704 22.5259 23.4516 21.285 25.8048C21.0466 26.2533 20.9313 26.7421 20.9478 27.2342C20.9643 27.7262 21.1123 28.2086 21.3805 28.6449C22.9077 31.0792 27.4894 30.1866 29.9712 30.1866L33.7893 30.2678L36.0801 30.8358C36.5574 31.0792 36.9392 31.4038 37.2256 31.8907C37.6074 32.3775 37.7028 32.9455 37.7028 33.5947C37.7028 34.6496 37.4165 35.5422 36.6528 36.2725C34.0756 38.4634 28.9212 38.6257 25.5804 37.3274C24.7213 36.9216 23.7668 36.4348 23.2895 35.8667C22.7529 35.2609 22.4827 34.5145 22.5259 33.757C22.6214 32.621 23.0032 31.5661 23.0032 31.5661L21.5714 32.7832C21.1896 33.2701 20.8078 33.8381 20.6169 34.4873C20.426 35.2176 20.6169 35.9479 20.9987 36.5971C22.8123 38.8691 26.8213 39.1937 29.6848 39.1937C33.7893 39.1937 37.7028 37.9765 39.7073 34.8119C40.16 34.1249 40.4289 33.3615 40.4949 32.576C40.5609 31.7906 40.4224 31.0025 40.0891 30.2678Z" fill="#676767"/>
</g>
<defs>
<clipPath id="clip0_692_1226">
<rect width="130.769" height="39.761" fill="white"/>
</clipPath>
</defs>
</svg>
