<svg width="129" height="39" viewBox="0 0 129 39" fill="none" xmlns="http://www.w3.org/2000/svg">
<g clip-path="url(#clip0_527_1188)">
<path d="M118.188 0.951296H10.2319C9.8384 0.951296 9.4496 0.951296 9.05713 0.953198C8.72859 0.9551 8.40267 0.960627 8.07098 0.965278C7.35039 0.972795 6.6315 1.02899 5.92054 1.13337C5.21059 1.24002 4.52287 1.44109 3.88066 1.72978C3.23923 2.02091 2.65314 2.39921 2.14364 2.85095C1.63148 3.30141 1.20454 3.82209 0.879266 4.39296C0.553089 4.96269 0.326918 5.57321 0.208562 6.20343C0.0890812 6.83286 0.0247875 7.46955 0.0162579 8.10778C0.00629925 8.39942 0.00524759 8.69203 0 8.98372V30.9704C0.00524759 31.2658 0.00629925 31.5519 0.0162579 31.8474C0.0247901 32.4856 0.0890838 33.1222 0.208562 33.7516C0.326591 34.3822 0.552776 34.9931 0.879266 35.563C1.2044 36.1321 1.63139 36.6506 2.14364 37.0986C2.65121 37.5523 3.23768 37.9309 3.88066 38.2198C4.52287 38.5093 5.21051 38.7115 5.92054 38.8198C6.63162 38.9234 7.35044 38.9796 8.07098 38.988C8.40267 38.9945 8.72859 38.9982 9.05713 38.9982C9.44959 39.0001 9.83842 39.0001 10.2319 39.0001H118.188C118.574 39.0001 118.966 39.0001 119.352 38.9982C119.679 38.9982 120.014 38.9945 120.341 38.988C121.06 38.98 121.778 38.9238 122.487 38.8198C123.2 38.7108 123.89 38.5085 124.535 38.2198C125.177 37.9307 125.763 37.5522 126.271 37.0986C126.781 36.6489 127.209 36.1307 127.539 35.563C127.863 34.9927 128.087 34.3818 128.203 33.7516C128.323 33.1221 128.389 32.4856 128.402 31.8474C128.406 31.5519 128.406 31.2658 128.406 30.9704C128.415 30.6249 128.415 30.2812 128.415 29.93V10.0222C128.415 9.6739 128.415 9.32834 128.406 8.98372C128.406 8.69203 128.406 8.39942 128.402 8.10774C128.389 7.46945 128.323 6.83291 128.203 6.2034C128.086 5.57354 127.862 4.96307 127.539 4.39292C126.876 3.24868 125.826 2.31727 124.535 1.7297C123.89 1.44171 123.2 1.24069 122.487 1.13328C121.778 1.02844 121.06 0.97223 120.341 0.965145C120.014 0.960503 119.679 0.954929 119.352 0.953074C118.966 0.951172 118.574 0.951172 118.188 0.951172V0.951296Z" fill="#A6A6A6"/>
<path d="M8.97012 38.1706C8.64259 38.1706 8.32298 38.1668 7.99802 38.1604C7.32485 38.1526 6.65325 38.1007 5.98874 38.0052C5.36911 37.9108 4.76886 37.7351 4.20778 37.4839C3.65184 37.2349 3.14478 36.9083 2.70603 36.5167C2.26092 36.1297 1.89035 35.6809 1.609 35.1881C1.32455 34.692 1.12769 34.1602 1.02529 33.6114C0.914699 33.0216 0.854866 32.4252 0.846304 31.8275C0.839489 31.6268 0.830566 30.9587 0.830566 30.9587V8.98042C0.830566 8.98042 0.840069 8.3226 0.846358 8.12934C0.854556 7.53249 0.914041 6.93707 1.0243 6.34821C1.12689 5.79784 1.3239 5.26457 1.60851 4.76686C1.88882 4.27433 2.25734 3.82518 2.69976 3.43683C3.14169 3.04479 3.65037 2.71653 4.20725 2.46403C4.76704 2.2137 5.36616 2.03924 5.98453 1.94652C6.65123 1.85001 7.32516 1.79783 8.00067 1.79043L8.97064 1.77881H119.445L120.426 1.79089C121.096 1.79793 121.763 1.84964 122.424 1.94558C123.049 2.03947 123.654 2.21514 124.22 2.46682C125.336 2.97568 126.244 3.78075 126.816 4.76918C127.096 5.26345 127.29 5.79237 127.392 6.338C127.503 6.93168 127.566 7.53179 127.578 8.13352C127.582 8.40296 127.582 8.69238 127.582 8.98042C127.59 9.3372 127.59 9.67679 127.59 10.0192V29.9311C127.59 30.2767 127.59 30.614 127.582 30.9541C127.582 31.2635 127.582 31.5469 127.577 31.8386C127.565 32.4296 127.503 33.019 127.394 33.602C127.293 34.1549 127.098 34.6908 126.813 35.1909C126.53 35.6784 126.161 36.1234 125.721 36.5093C125.282 36.903 124.774 37.2315 124.217 37.4821C123.652 37.7352 123.048 37.9115 122.424 38.0052C121.76 38.1013 121.088 38.1531 120.415 38.1604C120.1 38.1668 119.77 38.1706 119.45 38.1706L118.285 38.1725L8.97012 38.1706Z" fill="black"/>
<path d="M31.1976 20.2617C31.2078 19.4677 31.4187 18.6893 31.8106 17.9987C32.2025 17.3082 32.7628 16.728 33.4392 16.3122C33.0095 15.6985 32.4426 15.1934 31.7836 14.8371C31.1245 14.4809 30.3915 14.2832 29.6427 14.2597C28.0454 14.0921 26.4968 15.2155 25.6829 15.2155C24.8531 15.2155 23.5999 14.2764 22.2504 14.3041C21.3775 14.3323 20.5268 14.5862 19.7811 15.0409C19.0355 15.4957 18.4204 16.1358 17.9957 16.8989C16.156 20.084 17.5282 24.765 19.2905 27.3396C20.1721 28.6003 21.2026 30.0085 22.5509 29.9586C23.8703 29.9039 24.3631 29.1173 25.9557 29.1173C27.5335 29.1173 27.9959 29.9586 29.3715 29.9269C30.7873 29.9039 31.6793 28.6606 32.53 27.3879C33.1635 26.4896 33.651 25.4968 33.9744 24.4463C33.1519 24.0984 32.45 23.5161 31.9562 22.7719C31.4623 22.0278 31.1985 21.1548 31.1976 20.2617Z" fill="white"/>
<path d="M28.5994 12.5664C29.3714 11.6398 29.7517 10.4487 29.6596 9.24609C28.4802 9.36996 27.3908 9.93362 26.6085 10.8247C26.2259 11.2601 25.933 11.7666 25.7463 12.3152C25.5596 12.8638 25.4829 13.4439 25.5205 14.0222C26.1104 14.0282 26.694 13.9004 27.2273 13.6482C27.7606 13.3961 28.2298 13.0262 28.5994 12.5664Z" fill="white"/>
<path d="M47.8756 26.767H43.3731L42.2918 29.9597H40.3848L44.6495 18.1475H46.6309L50.8956 29.9597H48.956L47.8756 26.767ZM43.8394 25.2937H47.4084L45.649 20.1122H45.5998L43.8394 25.2937Z" fill="white"/>
<path d="M60.106 25.6545C60.106 28.3308 58.6736 30.0502 56.512 30.0502C55.9644 30.0789 55.4198 29.9527 54.9406 29.6863C54.4614 29.4198 54.0669 29.0237 53.8023 28.5435H53.7614V32.8091H51.9937V21.348H53.7048V22.7804H53.7373C54.014 22.3025 54.4152 21.9085 54.8981 21.6404C55.3809 21.3723 55.9274 21.2401 56.4795 21.2579C58.6652 21.2579 60.106 22.9857 60.106 25.6545ZM58.289 25.6545C58.289 23.911 57.3879 22.7647 56.0131 22.7647C54.6625 22.7647 53.754 23.9351 53.754 25.6545C53.754 27.3898 54.6625 28.5519 56.0131 28.5519C57.3879 28.5519 58.289 27.4139 58.289 25.6545Z" fill="white"/>
<path d="M69.5845 25.6545C69.5845 28.3308 68.1521 30.0502 65.9905 30.0502C65.4429 30.0789 64.8983 29.9527 64.4191 29.6862C63.9399 29.4198 63.5454 29.0237 63.2808 28.5435H63.2399V32.8091H61.4722V21.348H63.1832V22.7804H63.2158C63.4925 22.3025 63.8937 21.9085 64.3765 21.6404C64.8594 21.3723 65.4059 21.2401 65.9579 21.2579C68.1437 21.2579 69.5845 22.9857 69.5845 25.6545ZM67.7675 25.6545C67.7675 23.911 66.8665 22.7646 65.4916 22.7646C64.141 22.7646 63.2325 23.9351 63.2325 25.6545C63.2325 27.3898 64.141 28.5519 65.4916 28.5519C66.8665 28.5519 67.7675 27.4139 67.7675 25.6545H67.7675Z" fill="white"/>
<path d="M75.8491 26.6687C75.9801 27.8401 77.1181 28.6092 78.6731 28.6092C80.1631 28.6092 81.235 27.84 81.235 26.7838C81.235 25.867 80.5885 25.318 79.0576 24.9418L77.5268 24.573C75.3577 24.0491 74.3508 23.0347 74.3508 21.3886C74.3508 19.3506 76.1269 17.9507 78.6489 17.9507C81.1449 17.9507 82.856 19.3506 82.9136 21.3886H81.1291C81.0223 20.2098 80.0478 19.4983 78.6238 19.4983C77.1998 19.4983 76.2253 20.2182 76.2253 21.266C76.2253 22.1011 76.8477 22.5925 78.3702 22.9687L79.6716 23.2883C82.0952 23.8614 83.1022 24.8349 83.1022 26.5627C83.1022 28.7726 81.3418 30.1567 78.5421 30.1567C75.9225 30.1567 74.1538 28.8051 74.0396 26.6686L75.8491 26.6687Z" fill="white"/>
<path d="M86.9174 19.3096V21.3476H88.5551V22.7475H86.9174V27.4953C86.9174 28.2328 87.2454 28.5765 87.9653 28.5765C88.1597 28.5731 88.3538 28.5595 88.5468 28.5356V29.9272C88.2231 29.9876 87.8941 30.015 87.5649 30.0089C85.8213 30.0089 85.1413 29.354 85.1413 27.6838V22.7475H83.8892V21.3476H85.1413V19.3096H86.9174Z" fill="white"/>
<path d="M89.5034 25.6541C89.5034 22.9444 91.0993 21.2417 93.5879 21.2417C96.0849 21.2417 97.6733 22.9444 97.6733 25.6541C97.6733 28.3712 96.0932 30.0665 93.5879 30.0665C91.0835 30.0665 89.5034 28.3712 89.5034 25.6541ZM95.8721 25.6541C95.8721 23.7953 95.0203 22.6983 93.5879 22.6983C92.1555 22.6983 91.3046 23.8037 91.3046 25.6541C91.3046 27.5203 92.1555 28.609 93.5879 28.609C95.0203 28.609 95.8721 27.5203 95.8721 25.6541H95.8721Z" fill="white"/>
<path d="M99.1309 21.348H100.817V22.8138H100.858C100.972 22.356 101.24 21.9514 101.617 21.668C101.995 21.3847 102.458 21.2398 102.929 21.2578C103.133 21.2571 103.336 21.2793 103.535 21.3238V22.9773C103.278 22.8987 103.009 22.8626 102.741 22.8705C102.484 22.86 102.228 22.9053 101.99 23.0032C101.753 23.1011 101.539 23.2492 101.364 23.4374C101.189 23.6257 101.057 23.8496 100.976 24.0937C100.896 24.3379 100.87 24.5965 100.899 24.8519V29.96H99.1309L99.1309 21.348Z" fill="white"/>
<path d="M111.685 27.4302C111.447 28.9936 109.925 30.0665 107.977 30.0665C105.472 30.0665 103.917 28.3879 103.917 25.695C103.917 22.9937 105.48 21.2417 107.903 21.2417C110.285 21.2417 111.784 22.8785 111.784 25.4897V26.0953H105.701V26.2022C105.673 26.5191 105.713 26.8384 105.817 27.1388C105.922 27.4393 106.09 27.714 106.309 27.9447C106.528 28.1754 106.794 28.3568 107.088 28.477C107.383 28.5971 107.7 28.6532 108.018 28.6415C108.435 28.6807 108.855 28.5839 109.213 28.3657C109.571 28.1474 109.85 27.8193 110.007 27.4302L111.685 27.4302ZM105.709 24.8599H110.015C110.031 24.5749 109.988 24.2897 109.888 24.0222C109.788 23.7547 109.635 23.5107 109.436 23.3054C109.238 23.1002 108.999 22.9382 108.735 22.8295C108.471 22.7209 108.188 22.668 107.903 22.6741C107.615 22.6724 107.329 22.7277 107.063 22.8368C106.797 22.946 106.554 23.1068 106.35 23.31C106.147 23.5132 105.985 23.7548 105.875 24.0208C105.765 24.2868 105.709 24.572 105.709 24.8599V24.8599Z" fill="white"/>
<path d="M43.618 9.25693C43.9886 9.23033 44.3605 9.28632 44.7069 9.42086C45.0532 9.55539 45.3654 9.76511 45.6209 10.0349C45.8763 10.3047 46.0688 10.6278 46.1843 10.981C46.2997 11.3341 46.3354 11.7085 46.2887 12.0771C46.2887 13.8904 45.3087 14.9327 43.618 14.9327H41.5679V9.25693H43.618ZM42.4494 14.13H43.5195C43.7844 14.1459 44.0494 14.1024 44.2953 14.0029C44.5412 13.9034 44.7619 13.7503 44.9412 13.5548C45.1205 13.3592 45.2539 13.1262 45.3318 12.8726C45.4097 12.619 45.43 12.3512 45.3913 12.0887C45.4272 11.8273 45.4048 11.5612 45.3257 11.3094C45.2467 11.0577 45.1129 10.8265 44.934 10.6325C44.7551 10.4385 44.5355 10.2865 44.291 10.1874C44.0464 10.0882 43.783 10.0444 43.5195 10.059H42.4494V14.13Z" fill="white"/>
<path d="M47.2845 12.7893C47.2575 12.5078 47.2897 12.2238 47.379 11.9555C47.4683 11.6872 47.6126 11.4405 47.8028 11.2313C47.993 11.022 48.2248 10.8548 48.4834 10.7404C48.742 10.626 49.0216 10.5669 49.3044 10.5669C49.5872 10.5669 49.8668 10.626 50.1254 10.7404C50.384 10.8548 50.6158 11.022 50.806 11.2313C50.9962 11.4405 51.1406 11.6872 51.2298 11.9555C51.3191 12.2238 51.3513 12.5078 51.3244 12.7893C51.3518 13.0711 51.32 13.3555 51.231 13.6242C51.1419 13.893 50.9977 14.1401 50.8074 14.3498C50.6172 14.5594 50.3852 14.727 50.1263 14.8416C49.8675 14.9563 49.5875 15.0155 49.3044 15.0155C49.0213 15.0155 48.7413 14.9563 48.4825 14.8416C48.2236 14.727 47.9916 14.5594 47.8014 14.3498C47.6112 14.1401 47.4669 13.893 47.3779 13.6242C47.2888 13.3555 47.257 13.0711 47.2845 12.7893ZM50.4549 12.7893C50.4549 11.8608 50.0378 11.3179 49.3058 11.3179C48.571 11.3179 48.1577 11.8608 48.1577 12.7893C48.1577 13.7252 48.571 14.264 49.3058 14.264C50.0378 14.264 50.4549 13.7215 50.4549 12.7893H50.4549Z" fill="white"/>
<path d="M56.6944 14.9322H55.8175L54.9322 11.7776H54.8653L53.9838 14.9322H53.1152L51.9346 10.6489H52.792L53.5593 13.9173H53.6224L54.5031 10.6489H55.314L56.1946 13.9173H56.2615L57.0251 10.6489H57.8704L56.6944 14.9322Z" fill="white"/>
<path d="M58.8638 10.6494H59.6775V11.3298H59.7407C59.8478 11.0854 60.0286 10.8806 60.2577 10.7438C60.4868 10.607 60.7529 10.5451 61.0189 10.5667C61.2273 10.551 61.4366 10.5825 61.6312 10.6587C61.8258 10.7348 62.0008 10.8539 62.1432 11.0068C62.2855 11.1598 62.3917 11.3429 62.4537 11.5425C62.5157 11.7421 62.532 11.9531 62.5014 12.1598V14.9326H61.6561V12.3721C61.6561 11.6838 61.357 11.3414 60.7318 11.3414C60.5903 11.3349 60.4491 11.3589 60.3178 11.412C60.1864 11.4652 60.0682 11.546 59.971 11.6491C59.8739 11.7522 59.8002 11.8751 59.755 12.0094C59.7097 12.1436 59.6941 12.286 59.7091 12.4269V14.9327H58.8638L58.8638 10.6494Z" fill="white"/>
<path d="M63.8481 8.97705H64.6935V14.9324H63.8481V8.97705Z" fill="white"/>
<path d="M65.8684 12.7889C65.8415 12.5074 65.8737 12.2234 65.963 11.9551C66.0523 11.6867 66.1967 11.44 66.3869 11.2308C66.5771 11.0215 66.8089 10.8543 67.0675 10.7399C67.3262 10.6255 67.6058 10.5664 67.8886 10.5664C68.1714 10.5664 68.4511 10.6255 68.7097 10.7399C68.9683 10.8543 69.2001 11.0215 69.3903 11.2308C69.5805 11.44 69.7249 11.6867 69.8142 11.9551C69.9035 12.2234 69.9357 12.5074 69.9088 12.7889C69.9362 13.0707 69.9043 13.3551 69.8153 13.6238C69.7262 13.8926 69.5819 14.1397 69.3917 14.3494C69.2014 14.559 68.9694 14.7265 68.7106 14.8412C68.4517 14.9558 68.1717 15.0151 67.8886 15.0151C67.6055 15.0151 67.3255 14.9558 67.0666 14.8412C66.8078 14.7265 66.5758 14.559 66.3855 14.3494C66.1953 14.1397 66.051 13.8926 65.9619 13.6238C65.8729 13.3551 65.841 13.0707 65.8684 12.7889ZM69.0388 12.7889C69.0388 11.8604 68.6217 11.3175 67.8898 11.3175C67.155 11.3175 66.7416 11.8604 66.7416 12.7889C66.7416 13.7248 67.155 14.2636 67.8898 14.2636C68.6218 14.2636 69.0388 13.7211 69.0388 12.7889H69.0388Z" fill="white"/>
<path d="M70.7988 13.721C70.7988 12.95 71.3729 12.5055 72.3919 12.4424L73.5522 12.3755V12.0058C73.5522 11.5534 73.2531 11.2979 72.6753 11.2979C72.2034 11.2979 71.8764 11.4712 71.7826 11.774H70.9642C71.0506 11.0383 71.7426 10.5664 72.7143 10.5664C73.7881 10.5664 74.3938 11.101 74.3938 12.0058V14.9324H73.58V14.3304H73.5132C73.3774 14.5463 73.1868 14.7224 72.9607 14.8405C72.7347 14.9587 72.4814 15.0147 72.2266 15.0029C72.0468 15.0216 71.865 15.0024 71.6931 14.9466C71.5212 14.8908 71.3628 14.7995 71.2283 14.6787C71.0938 14.558 70.9861 14.4103 70.9121 14.2454C70.8381 14.0804 70.7995 13.9018 70.7988 13.721ZM73.5522 13.355V12.9969L72.5062 13.0638C71.9163 13.1033 71.6488 13.3039 71.6488 13.6815C71.6488 14.067 71.9832 14.2914 72.4431 14.2914C72.5778 14.305 72.7139 14.2914 72.8433 14.2514C72.9726 14.2113 73.0926 14.1457 73.1961 14.0583C73.2996 13.971 73.3844 13.8637 73.4456 13.7429C73.5068 13.622 73.543 13.4901 73.5522 13.355Z" fill="white"/>
<path d="M75.5044 12.7889C75.5044 11.4355 76.2002 10.5781 77.2824 10.5781C77.55 10.5657 77.8157 10.6298 78.0483 10.7629C78.2809 10.896 78.4708 11.0925 78.5959 11.3295H78.659V8.97705H79.5043V14.9324H78.6943V14.2557H78.6275C78.4928 14.4911 78.2962 14.6852 78.0591 14.8169C77.822 14.9486 77.5534 15.013 77.2824 15.003C76.1927 15.003 75.5044 14.1456 75.5044 12.7889ZM76.3776 12.7889C76.3776 13.6974 76.8059 14.2441 77.5221 14.2441C78.2345 14.2441 78.6748 13.6895 78.6748 12.7926C78.6748 11.8999 78.2299 11.3375 77.5221 11.3375C76.8105 11.3375 76.3776 11.8878 76.3776 12.7889H76.3776Z" fill="white"/>
<path d="M83.0022 12.7893C82.9753 12.5078 83.0075 12.2238 83.0968 11.9555C83.186 11.6872 83.3304 11.4405 83.5206 11.2313C83.7108 11.022 83.9426 10.8548 84.2012 10.7404C84.4598 10.626 84.7394 10.5669 85.0222 10.5669C85.3049 10.5669 85.5846 10.626 85.8432 10.7404C86.1018 10.8548 86.3336 11.022 86.5238 11.2313C86.714 11.4405 86.8583 11.6872 86.9476 11.9555C87.0368 12.2238 87.0691 12.5078 87.0421 12.7893C87.0696 13.0711 87.0377 13.3555 86.9487 13.6242C86.8597 13.893 86.7154 14.1401 86.5252 14.3498C86.3349 14.5594 86.103 14.727 85.8441 14.8416C85.5853 14.9563 85.3053 15.0155 85.0222 15.0155C84.7391 15.0155 84.4591 14.9563 84.2002 14.8416C83.9414 14.727 83.7094 14.5594 83.5192 14.3498C83.3289 14.1401 83.1847 13.893 83.0956 13.6242C83.0066 13.3555 82.9748 13.0711 83.0022 12.7893ZM86.1726 12.7893C86.1726 11.8608 85.7556 11.3179 85.0236 11.3179C84.2888 11.3179 83.8754 11.8608 83.8754 12.7893C83.8754 13.7252 84.2888 14.264 85.0236 14.264C85.7556 14.264 86.1726 13.7215 86.1726 12.7893Z" fill="white"/>
<path d="M88.1763 10.6494H88.99V11.3298H89.0532C89.1603 11.0854 89.3411 10.8806 89.5702 10.7438C89.7993 10.607 90.0654 10.5451 90.3314 10.5667C90.5398 10.551 90.7491 10.5825 90.9437 10.6587C91.1383 10.7348 91.3133 10.8539 91.4557 11.0068C91.598 11.1598 91.7042 11.3429 91.7662 11.5425C91.8282 11.7421 91.8445 11.9531 91.8139 12.1598V14.9326H90.9686V12.3721C90.9686 11.6838 90.6695 11.3414 90.0443 11.3414C89.9028 11.3349 89.7616 11.3589 89.6303 11.412C89.4989 11.4652 89.3807 11.546 89.2835 11.6491C89.1864 11.7522 89.1127 11.8751 89.0675 12.0094C89.0222 12.1436 89.0066 12.286 89.0216 12.4269V14.9327H88.1763V10.6494Z" fill="white"/>
<path d="M96.5907 9.58301V10.6689H97.5187V11.3809H96.5907V13.5834C96.5907 14.0321 96.7755 14.2286 97.1963 14.2286C97.3041 14.2282 97.4117 14.2217 97.5187 14.2091V14.9132C97.3669 14.9403 97.2131 14.9548 97.0589 14.9564C96.1188 14.9564 95.7444 14.6257 95.7444 13.7999V11.3809H95.0645V10.6689H95.7444V9.58301H96.5907Z" fill="white"/>
<path d="M98.6733 8.97705H99.5112V11.3375H99.5781C99.6905 11.0908 99.8762 10.8848 100.11 10.7475C100.344 10.6101 100.614 10.5482 100.884 10.5702C101.091 10.5589 101.299 10.5935 101.491 10.6715C101.684 10.7496 101.856 10.8691 101.997 11.0216C102.138 11.1741 102.244 11.3559 102.306 11.5539C102.369 11.7518 102.387 11.9612 102.359 12.167V14.9324H101.513V12.3755C101.513 11.6914 101.194 11.3449 100.597 11.3449C100.452 11.333 100.306 11.3529 100.169 11.4034C100.032 11.4539 99.9081 11.5336 99.8054 11.637C99.7027 11.7405 99.6238 11.8651 99.5743 12.0022C99.5248 12.1393 99.5058 12.2856 99.5187 12.4308V14.9324H98.6734L98.6733 8.97705Z" fill="white"/>
<path d="M107.288 13.7759C107.173 14.1674 106.924 14.506 106.585 14.7325C106.246 14.9591 105.838 15.0591 105.432 15.0151C105.15 15.0225 104.869 14.9685 104.61 14.8567C104.351 14.7449 104.119 14.578 103.931 14.3677C103.743 14.1573 103.602 13.9085 103.52 13.6386C103.437 13.3686 103.415 13.0839 103.453 12.8043C103.416 12.5238 103.439 12.2385 103.521 11.9677C103.603 11.6969 103.743 11.4469 103.93 11.2347C104.117 11.0226 104.348 10.8531 104.607 10.7378C104.865 10.6225 105.145 10.5641 105.428 10.5665C106.62 10.5665 107.339 11.3807 107.339 12.7257V13.0207H104.314V13.0681C104.301 13.2253 104.321 13.3835 104.372 13.5326C104.424 13.6817 104.506 13.8184 104.613 13.9339C104.721 14.0495 104.851 14.1413 104.996 14.2035C105.141 14.2657 105.297 14.2969 105.455 14.2952C105.657 14.3194 105.862 14.283 106.044 14.1906C106.225 14.0981 106.375 13.9537 106.474 13.7759L107.288 13.7759ZM104.314 12.3955H106.478C106.489 12.2518 106.469 12.1074 106.421 11.9716C106.372 11.8359 106.296 11.7118 106.196 11.6073C106.097 11.5028 105.977 11.4202 105.844 11.3648C105.711 11.3095 105.568 11.2826 105.424 11.2859C105.277 11.2841 105.132 11.3115 104.997 11.3667C104.861 11.4218 104.738 11.5035 104.635 11.6069C104.532 11.7103 104.45 11.8333 104.395 11.9688C104.34 12.1042 104.313 12.2493 104.314 12.3955H104.314Z" fill="white"/>
</g>
<defs>
<clipPath id="clip0_527_1188">
<rect width="128.415" height="38.0488" fill="white" transform="translate(0 0.951172)"/>
</clipPath>
</defs>
</svg>
