<svg width="120" height="28" viewBox="0 0 120 28" fill="none" xmlns="http://www.w3.org/2000/svg">
<path d="M88.7189 11.8434V14.3593H87.1419V16.0093H88.7189V21.6154C88.7189 23.5297 89.5849 24.2954 91.7635 24.2954C92.1464 24.2954 92.511 24.2499 92.8301 24.1952V22.5635C92.5566 22.5908 92.3834 22.609 92.0826 22.609C91.1072 22.609 90.6788 22.1533 90.6788 21.1141V16.0093H92.8301V14.3593H90.6788V11.8434H88.7189Z" fill="white"/>
<path d="M98.3801 24.4322C101.279 24.4322 103.056 22.4905 103.056 19.2727C103.056 16.0731 101.27 14.1223 98.3801 14.1223C95.4813 14.1223 93.6946 16.0731 93.6946 19.2727C93.6946 22.4905 95.4722 24.4322 98.3801 24.4322ZM98.3801 22.6911C96.6754 22.6911 95.7183 21.4422 95.7183 19.2727C95.7183 17.1214 96.6754 15.8634 98.3801 15.8634C100.076 15.8634 101.042 17.1214 101.042 19.2727C101.042 21.4331 100.076 22.6911 98.3801 22.6911Z" fill="white"/>
<path d="M104.577 24.2408H106.537V18.3794C106.537 16.9846 107.585 16.0457 109.071 16.0457C109.418 16.0457 110.001 16.1095 110.165 16.1642V14.2317C109.956 14.177 109.582 14.1497 109.29 14.1497C107.996 14.1497 106.893 14.8607 106.61 15.8361H106.464V14.3137H104.577V24.2408Z" fill="white"/>
<path d="M115.032 15.7905C116.481 15.7905 117.429 16.8023 117.475 18.3611H112.461C112.57 16.8114 113.582 15.7905 115.032 15.7905ZM117.465 21.5607C117.101 22.3356 116.29 22.764 115.104 22.764C113.537 22.764 112.525 21.661 112.461 19.9199V19.8105H119.471V19.1268C119.471 16.0093 117.803 14.1223 115.041 14.1223C112.242 14.1223 110.465 16.1369 110.465 19.3092C110.465 22.4814 112.206 24.4322 115.05 24.4322C117.32 24.4322 118.906 23.3383 119.352 21.5607H117.465Z" fill="white"/>
<path d="M75.8663 20.5749C76.0175 23.0125 78.0488 24.5714 81.0722 24.5714C84.3035 24.5714 86.3254 22.9369 86.3254 20.3292C86.3254 18.279 85.1727 17.1452 82.3761 16.4933L80.8738 16.1248C79.0976 15.7091 78.3795 15.1516 78.3795 14.1785C78.3795 12.9502 79.4944 12.1471 81.1667 12.1471C82.754 12.1471 83.85 12.9313 84.0484 14.1879H86.1081C85.9853 11.892 83.9634 10.2764 81.1951 10.2764C78.2189 10.2764 76.2348 11.892 76.2348 14.3202C76.2348 16.3232 77.3591 17.5137 79.8251 18.09L81.5824 18.5152C83.387 18.9403 84.1807 19.5639 84.1807 20.6032C84.1807 21.8126 82.9335 22.6913 81.2329 22.6913C79.4094 22.6913 78.1433 21.8693 77.9638 20.5749H75.8663Z" fill="white"/>
<path d="M55.564 14.1497C54.2149 14.1497 53.048 14.8242 52.4464 15.9546H52.3006V14.3137H50.4136V27.5406H52.3735V22.7367H52.5285C53.048 23.785 54.1693 24.4048 55.5822 24.4048C58.089 24.4048 59.6843 22.4267 59.6843 19.2727C59.6843 16.1187 58.089 14.1497 55.564 14.1497ZM55.0079 22.6455C53.3671 22.6455 52.337 21.3511 52.337 19.2818C52.337 17.2034 53.3671 15.909 55.017 15.909C56.6761 15.909 57.6697 17.1761 57.6697 19.2727C57.6697 21.3784 56.6761 22.6455 55.0079 22.6455Z" fill="white"/>
<path d="M66.5422 14.1497C65.1931 14.1497 64.0263 14.8242 63.4246 15.9546H63.2788V14.3137H61.3918V27.5406H63.3517V22.7367H63.5067C64.0263 23.785 65.1475 24.4048 66.5604 24.4048C69.0673 24.4048 70.6625 22.4267 70.6625 19.2727C70.6625 16.1187 69.0673 14.1497 66.5422 14.1497ZM65.9862 22.6455C64.3453 22.6455 63.3152 21.3511 63.3152 19.2818C63.3152 17.2034 64.3453 15.909 65.9953 15.909C67.6543 15.909 68.6479 17.1761 68.6479 19.2727C68.6479 21.3784 67.6543 22.6455 65.9862 22.6455Z" fill="white"/>
<path d="M46.8973 24.2408H49.1459L44.2234 10.6071H41.9464L37.0239 24.2408H39.197L40.4536 20.6221H45.6501L46.8973 24.2408ZM42.9763 13.0825H43.1369L45.1116 18.8458H40.9922L42.9763 13.0825Z" fill="white"/>
<path d="M38.3408 0.323608V6.90059H40.7155C42.6753 6.90059 43.8102 5.69276 43.8102 3.59159C43.8102 1.52232 42.6662 0.323608 40.7155 0.323608H38.3408ZM39.3618 1.25341H40.6015C41.9643 1.25341 42.7711 2.1194 42.7711 3.60526C42.7711 5.11391 41.978 5.97079 40.6015 5.97079H39.3618V1.25341Z" fill="white"/>
<path d="M47.2861 6.9963C48.7355 6.9963 49.6242 6.02548 49.6242 4.41656C49.6242 2.81675 48.7309 1.84137 47.2861 1.84137C45.8367 1.84137 44.9433 2.81675 44.9433 4.41656C44.9433 6.02548 45.8321 6.9963 47.2861 6.9963ZM47.2861 6.12575C46.4337 6.12575 45.9552 5.50133 45.9552 4.41656C45.9552 3.34091 46.4337 2.71192 47.2861 2.71192C48.1338 2.71192 48.617 3.34091 48.617 4.41656C48.617 5.49677 48.1338 6.12575 47.2861 6.12575Z" fill="white"/>
<path d="M57.193 1.93709H56.2131L55.3288 5.72466H55.2514L54.2304 1.93709H53.2915L52.2705 5.72466H52.1976L51.3088 1.93709H50.3152L51.6826 6.90059H52.6899L53.7108 3.24519H53.7883L54.8138 6.90059H55.8302L57.193 1.93709Z" fill="white"/>
<path d="M58.3215 6.90059H59.3015V3.99724C59.3015 3.2224 59.7618 2.73927 60.4865 2.73927C61.2112 2.73927 61.5576 3.1358 61.5576 3.93343V6.90059H62.5375V3.6873C62.5375 2.50682 61.9268 1.84137 60.8192 1.84137C60.0718 1.84137 59.5795 2.1741 59.3379 2.7256H59.265V1.93709H58.3215V6.90059Z" fill="white"/>
<path d="M64.0808 6.90059H65.0608V0H64.0808V6.90059Z" fill="white"/>
<path d="M68.7463 6.9963C70.1957 6.9963 71.0844 6.02548 71.0844 4.41656C71.0844 2.81675 70.1911 1.84137 68.7463 1.84137C67.2969 1.84137 66.4035 2.81675 66.4035 4.41656C66.4035 6.02548 67.2923 6.9963 68.7463 6.9963ZM68.7463 6.12575C67.8939 6.12575 67.4154 5.50133 67.4154 4.41656C67.4154 3.34091 67.8939 2.71192 68.7463 2.71192C69.594 2.71192 70.0772 3.34091 70.0772 4.41656C70.0772 5.49677 69.594 6.12575 68.7463 6.12575Z" fill="white"/>
<path d="M74.0042 6.15766C73.4709 6.15766 73.0835 5.89786 73.0835 5.45119C73.0835 5.01364 73.3934 4.78119 74.0771 4.73561L75.2895 4.65813V5.07289C75.2895 5.6882 74.7426 6.15766 74.0042 6.15766ZM73.7535 6.98263C74.4053 6.98263 74.9477 6.70004 75.2439 6.20324H75.3214V6.90059H76.2649V3.50955C76.2649 2.46124 75.563 1.84137 74.3187 1.84137C73.1929 1.84137 72.3907 2.38831 72.2904 3.24063H73.2385C73.3479 2.88968 73.7262 2.68913 74.2731 2.68913C74.9431 2.68913 75.2895 2.98539 75.2895 3.50955V3.93798L73.9449 4.01547C72.7645 4.08839 72.099 4.60343 72.099 5.49677C72.099 6.40378 72.7964 6.98263 73.7535 6.98263Z" fill="white"/>
<path d="M79.5903 6.98263C80.274 6.98263 80.8528 6.65902 81.1491 6.11664H81.2266V6.90059H82.1655V0H81.1855V2.7256H81.1126C80.8437 2.17865 80.2694 1.85505 79.5903 1.85505C78.3369 1.85505 77.5301 2.84866 77.5301 4.41656C77.5301 5.98902 78.3278 6.98263 79.5903 6.98263ZM79.8683 2.73471C80.6887 2.73471 81.2038 3.38648 81.2038 4.42112C81.2038 5.46031 80.6933 6.10296 79.8683 6.10296C79.0388 6.10296 78.542 5.46942 78.542 4.41656C78.542 3.37281 79.0434 2.73471 79.8683 2.73471Z" fill="white"/>
<path d="M88.52 6.9963C89.9694 6.9963 90.8582 6.02548 90.8582 4.41656C90.8582 2.81675 89.9649 1.84137 88.52 1.84137C87.0706 1.84137 86.1773 2.81675 86.1773 4.41656C86.1773 6.02548 87.0661 6.9963 88.52 6.9963ZM88.52 6.12575C87.6677 6.12575 87.1892 5.50133 87.1892 4.41656C87.1892 3.34091 87.6677 2.71192 88.52 2.71192C89.3678 2.71192 89.8509 3.34091 89.8509 4.41656C89.8509 5.49677 89.3678 6.12575 88.52 6.12575Z" fill="white"/>
<path d="M92.1554 6.90059H93.1353V3.99724C93.1353 3.2224 93.5957 2.73927 94.3204 2.73927C95.0451 2.73927 95.3915 3.1358 95.3915 3.93343V6.90059H96.3714V3.6873C96.3714 2.50682 95.7607 1.84137 94.6531 1.84137C93.9056 1.84137 93.4134 2.1741 93.1718 2.7256H93.0989V1.93709H92.1554V6.90059Z" fill="white"/>
<path d="M100.885 0.701909V1.95988H100.096V2.78485H100.885V5.58793C100.885 6.54508 101.318 6.92794 102.407 6.92794C102.598 6.92794 102.781 6.90515 102.94 6.8778V6.06194C102.803 6.07562 102.717 6.08473 102.566 6.08473C102.079 6.08473 101.865 5.85684 101.865 5.33725V2.78485H102.94V1.95988H101.865V0.701909H100.885Z" fill="white"/>
<path d="M104.256 6.90059H105.236V4.00179C105.236 3.24975 105.682 2.74383 106.484 2.74383C107.177 2.74383 107.546 3.14492 107.546 3.93798V6.90059H108.526V3.69642C108.526 2.51593 107.875 1.84593 106.817 1.84593C106.07 1.84593 105.545 2.17865 105.304 2.73471H105.226V0H104.256V6.90059Z" fill="white"/>
<path d="M112.061 2.67546C112.786 2.67546 113.26 3.18138 113.283 3.96077H110.776C110.831 3.18594 111.337 2.67546 112.061 2.67546ZM113.278 5.56058C113.096 5.948 112.69 6.16222 112.098 6.16222C111.314 6.16222 110.808 5.61072 110.776 4.74017V4.68547H114.281V4.34363C114.281 2.78485 113.447 1.84137 112.066 1.84137C110.667 1.84137 109.778 2.84866 109.778 4.43479C109.778 6.02092 110.648 6.9963 112.07 6.9963C113.205 6.9963 113.998 6.44936 114.222 5.56058H113.278Z" fill="white"/>
<path d="M16.25 14.9135C16.2738 13.0675 17.2652 11.3208 18.8379 10.3539C17.8458 8.93686 16.1839 8.03844 14.455 7.98435C12.6109 7.79078 10.8231 9.08783 9.88336 9.08783C8.92546 9.08783 7.47861 8.00357 5.9206 8.03562C3.8898 8.10123 1.99658 9.25584 1.00856 11.0313C-1.11531 14.7084 0.468901 20.1126 2.50339 23.0849C3.52129 24.5404 4.71092 26.1662 6.26753 26.1086C7.79076 26.0454 8.35966 25.1372 10.1983 25.1372C12.0199 25.1372 12.5537 26.1086 14.1419 26.0719C15.7764 26.0454 16.8062 24.61 17.7884 23.1407C18.5197 22.1036 19.0825 20.9575 19.4559 19.7446C17.535 18.9322 16.2523 16.9991 16.25 14.9135Z" fill="white"/>
<path d="M13.2502 6.0296C14.1414 4.95975 14.5804 3.58464 14.4741 2.19629C13.1126 2.33929 11.8549 2.99003 10.9516 4.01883C10.0684 5.02402 9.60875 6.37494 9.69565 7.71022C11.0577 7.72425 12.3967 7.09115 13.2502 6.0296Z" fill="white"/>
</svg>
