<?xml version="1.0" encoding="UTF-8" standalone="no"?><!DOCTYPE svg PUBLIC "-//W3C//DTD SVG 1.1//EN" "http://www.w3.org/Graphics/SVG/1.1/DTD/svg11.dtd"><svg width="100%" height="100%" viewBox="0 0 500 117" version="1.1" xmlns="http://www.w3.org/2000/svg" xmlns:xlink="http://www.w3.org/1999/xlink" xml:space="preserve" xmlns:serif="http://www.serif.com/" style="fill-rule:evenodd;clip-rule:evenodd;stroke-linejoin:round;stroke-miterlimit:2;"><path d="M369.662,49.348l0,10.482l-6.571,0l0,6.875l6.571,0l0,23.359c0,7.976 3.608,11.167 12.686,11.167c1.595,-0 3.115,-0.19 4.444,-0.418l0,-6.798c-1.139,0.113 -1.861,0.189 -3.115,0.189c-4.064,0 -5.849,-1.899 -5.849,-6.229l0,-21.27l8.964,0l0,-6.875l-8.964,0l0,-10.482l-8.166,-0Z" style="fill:#540b45;fill-rule:nonzero;"/><path d="M409.917,101.801c12.079,-0 19.483,-8.091 19.483,-21.498c0,-13.332 -7.442,-21.46 -19.483,-21.46c-12.078,-0 -19.523,8.128 -19.523,21.46c0,13.407 7.407,21.498 19.523,21.498Zm0,-7.255c-7.103,0 -11.091,-5.204 -11.091,-14.243c0,-8.964 3.988,-14.206 11.091,-14.206c7.066,0.001 11.091,5.242 11.091,14.206c0,9.002 -4.025,14.243 -11.091,14.243Z" style="fill:#540b45;fill-rule:nonzero;"/><path d="M435.738,101.003l8.166,0l0,-24.422c0,-5.812 4.367,-9.724 10.559,-9.724c1.445,0 3.875,0.266 4.558,0.494l-0,-8.052c-0.871,-0.228 -2.429,-0.342 -3.646,-0.342c-5.392,0 -9.987,2.963 -11.167,7.027l-0.608,-0l0,-6.344l-7.863,0l0,41.363Z" style="fill:#540b45;fill-rule:nonzero;"/><path d="M479.3,65.794c6.038,-0 9.988,4.216 10.179,10.711l-20.891,-0c0.454,-6.457 4.67,-10.711 10.712,-10.711Zm10.138,24.042c-1.517,3.229 -4.896,5.014 -9.838,5.014c-6.529,0 -10.746,-4.596 -11.012,-11.85l-0,-0.456l29.208,-0l-0,-2.849c-0,-12.99 -6.95,-20.852 -18.458,-20.852c-11.663,-0 -19.067,8.394 -19.067,21.612c-0,13.218 7.254,21.346 19.104,21.346c9.458,-0 16.067,-4.558 17.925,-11.965l-7.862,0Z" style="fill:#540b45;fill-rule:nonzero;"/><path d="M316.11,85.729c0.63,10.156 9.093,16.652 21.691,16.652c13.464,-0 21.888,-6.811 21.888,-17.676c0,-8.542 -4.803,-13.267 -16.455,-15.983l-6.26,-1.535c-7.401,-1.732 -10.393,-4.055 -10.393,-8.11c0,-5.118 4.646,-8.464 11.614,-8.464c6.613,-0 11.18,3.267 12.007,8.503l8.582,0c-0.512,-9.566 -8.937,-16.298 -20.471,-16.298c-12.401,0 -20.668,6.732 -20.668,16.85c0,8.345 4.685,13.306 14.96,15.707l7.322,1.772c7.519,1.771 10.826,4.369 10.826,8.7c-0,5.039 -5.197,8.7 -12.283,8.7c-7.597,0 -12.873,-3.425 -13.621,-8.818l-8.739,-0Z" style="fill:#540b45;fill-rule:nonzero;"/><path d="M231.517,58.957c-5.622,0 -10.484,2.81 -12.99,7.521l-0.608,-0l0,-6.838l-7.862,0l-0,55.113l8.166,-0l-0,-20.017l0.646,0c2.164,4.368 6.836,6.951 12.724,6.951c10.445,-0 17.092,-8.242 17.092,-21.384c-0,-13.142 -6.647,-21.346 -17.168,-21.346Zm-2.317,35.399c-6.837,0 -11.129,-5.393 -11.129,-14.015c-0,-8.66 4.292,-14.053 11.167,-14.053c6.912,-0 11.052,5.279 11.052,14.015c0,8.774 -4.14,14.053 -11.09,14.053Z" style="fill:#540b45;fill-rule:nonzero;"/><path d="M277.259,58.957c-5.621,0 -10.483,2.81 -12.99,7.521l-0.607,-0l-0,-6.838l-7.863,0l0,55.113l8.166,-0l0,-20.017l0.646,0c2.165,4.368 6.837,6.951 12.724,6.951c10.445,-0 17.092,-8.242 17.092,-21.384c0,-13.142 -6.647,-21.346 -17.168,-21.346Zm-2.316,35.399c-6.838,0 -11.13,-5.393 -11.13,-14.015c0,-8.66 4.292,-14.053 11.167,-14.053c6.913,-0 11.053,5.279 11.053,14.015c-0,8.774 -4.14,14.053 -11.09,14.053Z" style="fill:#540b45;fill-rule:nonzero;"/><path d="M195.405,101.003l9.37,0l-20.511,-56.807l-9.487,0l-20.511,56.807l9.055,0l5.236,-15.078l21.652,0l5.196,15.078Zm-16.337,-46.493l0.669,0l8.228,24.014l-17.164,0l8.267,-24.014Z" style="fill:#540b45;fill-rule:nonzero;"/><path d="M159.753,1.348l0,27.404l9.895,0c8.166,0 12.894,-5.032 12.894,-13.787c0,-8.622 -4.766,-13.617 -12.894,-13.617l-9.895,0Zm4.255,3.875l5.165,-0c5.678,-0 9.04,3.608 9.04,9.799c-0,6.286 -3.305,9.856 -9.04,9.856l-5.165,0l-0,-19.655Z" style="fill:#540b45;fill-rule:nonzero;"/><path d="M197.025,29.151c6.04,0 9.743,-4.045 9.743,-10.749c-0,-6.666 -3.723,-10.73 -9.743,-10.73c-6.039,0 -9.761,4.064 -9.761,10.73c-0,6.704 3.703,10.749 9.761,10.749Zm0,-3.627c-3.551,-0 -5.545,-2.602 -5.545,-7.122c0,-4.482 1.994,-7.102 5.545,-7.102c3.532,-0 5.546,2.62 5.546,7.102c-0,4.501 -2.013,7.122 -5.546,7.122Z" style="fill:#540b45;fill-rule:nonzero;"/><path d="M238.304,8.071l-4.083,0l-3.684,15.782l-0.323,-0l-4.254,-15.782l-3.912,0l-4.254,15.782l-0.304,-0l-3.703,-15.782l-4.14,0l5.697,20.681l4.197,0l4.254,-15.23l0.323,-0l4.273,15.23l4.235,0l5.678,-20.681Z" style="fill:#540b45;fill-rule:nonzero;"/><path d="M243.006,28.752l4.084,0l-0,-12.097c-0,-3.228 1.918,-5.241 4.937,-5.241c3.02,-0 4.463,1.652 4.463,4.975l0,12.363l4.083,0l-0,-13.388c-0,-4.919 -2.545,-7.692 -7.16,-7.692c-3.114,0 -5.165,1.387 -6.172,3.685l-0.304,-0l0,-3.286l-3.931,0l0,20.681Z" style="fill:#540b45;fill-rule:nonzero;"/><rect x="267.003" y="0" width="4.083" height="28.752" style="fill:#540b45;fill-rule:nonzero;"/><path d="M286.443,29.151c6.039,0 9.742,-4.045 9.742,-10.749c0,-6.666 -3.722,-10.73 -9.742,-10.73c-6.039,0 -9.762,4.064 -9.762,10.73c0,6.704 3.704,10.749 9.762,10.749Zm-0,-3.627c-3.552,-0 -5.545,-2.602 -5.545,-7.122c-0,-4.482 1.993,-7.102 5.545,-7.102c3.532,-0 5.545,2.62 5.545,7.102c0,4.501 -2.013,7.122 -5.545,7.122Z" style="fill:#540b45;fill-rule:nonzero;"/><path d="M308.351,25.657c-2.222,-0 -3.836,-1.083 -3.836,-2.944c-0,-1.823 1.291,-2.791 4.14,-2.981l5.051,-0.323l0,1.728c0,2.564 -2.278,4.52 -5.355,4.52Zm-1.045,3.437c2.716,0 4.976,-1.177 6.21,-3.247l0.323,-0l0,2.905l3.931,0l0,-14.129c0,-4.368 -2.924,-6.951 -8.109,-6.951c-4.691,0 -8.033,2.279 -8.451,5.831l3.95,-0c0.456,-1.463 2.033,-2.298 4.311,-2.298c2.792,-0 4.235,1.234 4.235,3.418l0,1.785l-5.602,0.323c-4.919,0.304 -7.691,2.45 -7.691,6.172c-0,3.779 2.905,6.191 6.893,6.191Z" style="fill:#540b45;fill-rule:nonzero;"/><path d="M331.626,29.094c2.849,0 5.261,-1.348 6.495,-3.608l0.323,0l0,3.266l3.912,0l0,-28.752l-4.083,-0l-0,11.357l-0.304,-0c-1.12,-2.279 -3.513,-3.628 -6.343,-3.628c-5.222,0 -8.584,4.14 -8.584,10.673c0,6.552 3.324,10.692 8.584,10.692Zm1.159,-17.699c3.418,-0 5.564,2.715 5.564,7.026c0,4.33 -2.127,7.008 -5.564,7.008c-3.457,0 -5.527,-2.64 -5.527,-7.027c0,-4.349 2.09,-7.007 5.527,-7.007Z" style="fill:#540b45;fill-rule:nonzero;"/><path d="M368.833,29.151c6.039,0 9.743,-4.045 9.743,-10.749c-0,-6.666 -3.722,-10.73 -9.743,-10.73c-6.039,0 -9.761,4.064 -9.761,10.73c0,6.704 3.703,10.749 9.761,10.749Zm0,-3.627c-3.551,-0 -5.545,-2.602 -5.545,-7.122c0,-4.482 1.994,-7.102 5.545,-7.102c3.533,-0 5.546,2.62 5.546,7.102c-0,4.501 -2.013,7.122 -5.546,7.122Z" style="fill:#540b45;fill-rule:nonzero;"/><path d="M383.981,28.752l4.083,0l-0,-12.097c-0,-3.228 1.918,-5.241 4.938,-5.241c3.019,-0 4.463,1.652 4.463,4.975l-0,12.363l4.082,0l0,-13.388c0,-4.919 -2.544,-7.692 -7.159,-7.692c-3.115,0 -5.166,1.387 -6.172,3.685l-0.304,-0l0,-3.286l-3.931,0l-0,20.681Z" style="fill:#540b45;fill-rule:nonzero;"/><path d="M420.354,2.925l0,5.241l-3.287,0l-0,3.438l3.287,-0l0,11.679c0,3.988 1.804,5.583 6.342,5.583c0.796,0 1.558,-0.095 2.221,-0.208l-0,-3.4c-0.571,0.057 -0.929,0.095 -1.559,0.095c-2.029,0 -2.92,-0.95 -2.92,-3.114l-0,-10.635l4.479,-0l-0,-3.438l-4.479,0l-0,-5.241l-4.084,-0Z" style="fill:#540b45;fill-rule:nonzero;"/><path d="M434.4,28.752l4.083,0l0,-12.078c0,-3.133 1.859,-5.241 5.2,-5.241c2.888,-0 4.425,1.671 4.425,4.975l0,12.344l4.084,0l-0,-13.35c-0,-4.919 -2.713,-7.711 -7.121,-7.711c-3.113,0 -5.3,1.387 -6.304,3.704l-0.325,-0l-0,-11.395l-4.042,-0l-0,28.752Z" style="fill:#540b45;fill-rule:nonzero;"/><path d="M466.921,11.148c3.021,-0 4.996,2.108 5.092,5.355l-10.446,0c0.229,-3.228 2.337,-5.355 5.354,-5.355Zm5.071,12.021c-0.759,1.614 -2.45,2.507 -4.917,2.507c-3.267,-0 -5.375,-2.298 -5.508,-5.925l-0,-0.228l14.604,-0l-0,-1.425c-0,-6.494 -3.475,-10.426 -9.229,-10.426c-5.829,0 -9.534,4.197 -9.534,10.806c0,6.609 3.625,10.673 9.55,10.673c4.729,0 8.034,-2.279 8.967,-5.982l-3.933,0Z" style="fill:#540b45;fill-rule:nonzero;"/><path d="M67.708,62.14c0.1,-7.692 4.23,-14.97 10.783,-18.999c-4.133,-5.904 -11.058,-9.648 -18.262,-9.873c-7.684,-0.806 -15.133,4.598 -19.048,4.598c-3.992,-0 -10.02,-4.518 -16.512,-4.384c-8.461,0.273 -16.35,5.084 -20.467,12.482c-8.849,15.321 -2.248,37.839 6.229,50.223c4.241,6.065 9.198,12.839 15.684,12.599c6.347,-0.264 8.717,-4.048 16.378,-4.048c7.59,0 9.814,4.048 16.432,3.895c6.81,-0.111 11.101,-6.091 15.193,-12.213c3.047,-4.322 5.392,-9.097 6.948,-14.151c-8.004,-3.385 -13.348,-11.439 -13.358,-20.129Z" style="fill:#540b45;fill-rule:nonzero;"/><path d="M55.209,25.123c3.714,-4.457 5.543,-10.187 5.1,-15.972c-5.673,0.596 -10.914,3.307 -14.677,7.594c-3.68,4.188 -5.596,9.817 -5.233,15.381c5.675,0.058 11.254,-2.58 14.81,-7.003Z" style="fill:#540b45;fill-rule:nonzero;"/></svg>