<svg width="694" height="628" viewBox="0 0 694 628" fill="none" xmlns="http://www.w3.org/2000/svg">
<path d="M493.031 396.501L297.078 20.6168C287.219 2.13065 264.419 -5.26381 245.933 3.97925L20.4027 121.058C1.91658 130.917 -5.47787 153.717 4.3814 172.203L200.334 548.087C210.194 566.573 232.993 573.968 251.479 564.725L477.01 447.03C496.112 437.787 502.89 414.987 493.031 396.501Z" fill="#B60082"/>
<path d="M213.273 154.333L187.392 105.037C185.544 101.956 181.847 100.723 178.766 101.956L139.945 122.29C136.864 124.139 135.631 127.836 137.48 130.917L163.36 180.214C165.209 183.295 168.906 184.527 171.987 183.295L210.808 162.96C213.889 161.727 215.122 158.03 213.273 154.333Z" fill="#F2C9E3"/>
<path d="M345.759 470.446L305.09 454.424L355.619 427.928L345.759 470.446Z" fill="#F2C9E3"/>
<path d="M330.354 441.484L289.685 425.463L340.213 398.966L330.354 441.484Z" fill="#F2C9E3"/>
<path opacity="0.3" d="M136.864 199.315L249.63 565.957L305.088 536.995L136.864 199.315Z" fill="#540445"/>
<path d="M604.565 464.284L442.503 72.3779C434.493 52.6594 412.309 43.4164 392.591 51.427L157.201 149.403C138.099 157.414 128.856 179.597 136.866 199.316L299.544 591.222C307.555 610.94 329.738 620.183 349.457 612.173L584.846 514.812C603.949 506.186 612.576 484.002 604.565 464.284Z" fill="#FB518D"/>
<path d="M346.992 199.316L325.424 148.171C324.192 145.09 320.495 143.242 316.798 144.474L276.744 161.112C273.663 162.344 271.815 166.041 273.047 169.739L294.614 220.883C295.847 223.964 299.544 225.813 303.241 224.581L343.911 207.943C346.375 206.711 348.224 202.397 346.992 199.316Z" fill="#F2C9E3"/>
<path d="M451.13 525.904L412.31 506.185L464.687 484.618L451.13 525.904Z" fill="#F2C9E3"/>
<path d="M438.805 495.094L399.984 475.375L452.362 453.808L438.805 495.094Z" fill="#F2C9E3"/>
<path opacity="0.3" d="M286.604 180.213L349.456 611.556L444.968 572.119L286.604 180.213Z" fill="#540445"/>
<path d="M692.681 532.066L610.726 116.129C606.412 95.1777 586.694 81.6212 566.359 85.9346L316.796 135.231C296.462 139.544 282.905 159.263 287.219 180.214L369.174 596.151C373.487 617.102 393.206 630.659 413.54 626.345L663.103 577.049C683.438 573.352 696.994 553.017 692.681 532.066Z" fill="#540445"/>
<path d="M492.416 221.5L481.324 167.274C480.708 163.577 477.011 161.112 473.93 162.344L430.795 170.971C427.098 171.587 425.25 175.285 425.866 178.982L436.341 233.208C436.957 236.905 440.655 239.37 443.736 238.137L486.87 229.51C490.567 228.278 493.032 225.197 492.416 221.5Z" fill="white"/>
<path d="M530.004 562.26L495.496 535.147L551.571 524.055L530.004 562.26Z" fill="#FB518D"/>
<path d="M523.841 529.602L489.334 502.489L545.409 491.397L523.841 529.602Z" fill="#FB518D"/>
<path d="M429.562 197.467L489.333 186.375" stroke="#540445" stroke-width="0.3019" stroke-miterlimit="10"/>
<path d="M454.826 220.267L515.214 209.176" stroke="#540445" stroke-width="0.3019" stroke-miterlimit="10"/>
<path d="M449.281 193.77L457.292 235.056" stroke="#540445" stroke-width="0.3019" stroke-miterlimit="10"/>
</svg>
