<svg xmlns="http://www.w3.org/2000/svg" viewBox="0 0 51.1 51.43"><defs><style>.cls-1{fill:#00194f;}</style></defs><title>comment-icon</title><g id="Layer_2" data-name="Layer 2"><g id="Layer_1-2" data-name="Layer 1"><path class="cls-1" d="M46.32,51.43a3.28,3.28,0,0,1-1-.15L38,49a4.25,4.25,0,0,0-2.74.19A25.55,25.55,0,0,1,7.6,7.39,25.52,25.52,0,0,1,48.34,37.06h0A3.85,3.85,0,0,0,48,39.6l1.52,8a3.3,3.3,0,0,1-1.07,3.07A3.19,3.19,0,0,1,46.32,51.43Zm-9.39-4.31a5.69,5.69,0,0,1,1.58.22l7.35,2.27a1.47,1.47,0,0,0,1.41-.29,1.53,1.53,0,0,0,.49-1.43l-1.51-8a5.53,5.53,0,0,1,.53-3.67A23.73,23.73,0,0,0,30.15,2.19a23.83,23.83,0,1,0,4.45,45.4A6.14,6.14,0,0,1,36.93,47.12Z"/></g></g></svg>