<svg width="196" height="39" viewBox="0 0 196 39" fill="none" xmlns="http://www.w3.org/2000/svg">
<path d="M26.2609 16.4002C31.2294 12.3414 41.3763 -2.28409 25.4911 0.305119C18.5633 1.3548 8.41637 8.07275 6.38699 15.8404C5.33731 13.741 4.14767 11.7816 2.88806 9.82221C0.928658 7.16302 -1.24068 9.26238 0.858679 11.9216C7.0819 19.4562 10.6699 28.8195 11.0756 38.5834C11.5654 33.8949 10.7956 28.1566 8.90622 22.5583C9.81594 22.8382 10.8656 22.9782 11.7753 22.9782C14.9944 28.2966 19.9628 32.8452 25.4911 34.9445C30.5996 36.9739 37.3875 35.7843 34.5884 27.5968C33.1188 23.1181 29.6899 19.1993 26.2609 16.4002ZM26.9607 2.19454C35.778 1.21484 26.3309 12.2015 23.2518 14.2309C20.3827 12.3414 16.7438 10.662 13.2449 11.1518C15.7641 7.86281 21.9222 2.82435 26.9607 2.19454ZM13.1749 13.5311C15.5542 13.3211 18.1434 14.6507 20.1728 16.0503C18.2134 17.03 16.114 17.5898 13.9447 17.7998C10.7257 17.7998 10.0259 13.811 13.1749 13.5311ZM25.3512 30.6059C21.2225 29.4162 17.3037 26.0572 14.5045 22.6983C16.8138 22.2084 19.1231 21.2987 21.2225 20.0391C21.9922 19.6892 22.762 19.1294 23.4618 18.6395C25.911 20.8788 28.5002 23.8879 29.4799 27.3169C30.4596 31.0257 27.8004 31.3056 25.3512 30.6059Z" fill="#545454"/>
<path d="M51.0099 10.0593H38.9735C38.5537 10.0593 38.2038 10.4092 38.2038 10.8291H38.1338V29.7233C38.1338 30.1432 38.4837 30.493 38.9036 30.493C39.2534 30.493 39.6033 30.1432 39.6733 29.7233V21.1859H49.8902C50.3101 21.1859 50.52 20.836 50.52 20.4861C50.52 20.0662 50.2401 19.8563 49.8902 19.8563H39.6033V11.5288H51.0099C51.4297 11.5288 51.6397 11.1789 51.6397 10.8291C51.6397 10.6191 51.4297 10.3392 51.0099 10.0593ZM56.5382 9.07959H56.4682C56.1183 9.07959 55.9084 9.3595 55.9084 9.7094V29.6533C55.9084 30.0732 56.1883 30.3531 56.5382 30.3531C56.958 30.3531 57.168 30.0032 57.168 29.6533V9.84935C57.168 9.3595 56.958 9.07959 56.5382 9.07959ZM73.9628 16.2174C73.9628 15.7975 73.6829 15.5176 73.333 15.5176C72.9132 15.5176 72.7032 15.8675 72.7032 16.2174V24.5449C72.7032 27.344 70.5339 29.5833 67.8747 29.5133C65.0756 29.5133 63.466 27.5539 63.466 24.4749V16.2174C63.466 15.7975 63.1861 15.5176 62.8362 15.5176C62.5563 15.5176 62.2064 15.8675 62.2064 16.2174V24.6848C62.2064 28.1838 64.3058 30.773 67.7347 30.773C69.8341 30.8429 71.7935 29.6533 72.7732 27.6939V29.8632C72.7732 30.2831 73.1231 30.493 73.403 30.493C73.8229 30.493 74.0328 30.1432 74.0328 29.8632H73.9628V16.2174ZM85.5093 16.9172C85.7892 16.9172 86.1391 16.6373 86.1391 16.2874C86.1391 16.0075 85.7892 15.6576 85.5093 15.6576H81.1007V11.5288C81.1007 11.1789 80.7508 10.8291 80.4708 10.8291H80.4009C80.051 10.8291 79.841 11.1789 79.841 11.5288V15.6576H78.3015C77.9516 15.6576 77.6717 15.8675 77.6717 16.2174C77.6717 16.5673 77.9516 16.9172 78.3015 16.9172H79.841V26.5742C79.841 29.3034 81.5905 30.633 83.6199 30.633C84.3197 30.633 85.0195 30.493 85.6493 30.2831C85.8592 30.1432 86.0691 29.9332 86.0691 29.6533C86.0691 29.3034 85.7892 29.0935 85.5093 29.0935C85.0195 29.2334 84.4596 29.3034 83.8998 29.3034C82.2203 29.3034 81.1007 28.5336 81.1007 26.4343V16.9172H85.5093ZM96.356 16.9172C96.7059 16.9172 96.9858 16.6373 96.9858 16.2874C96.9858 16.0075 96.7059 15.6576 96.356 15.6576H91.9473V11.5288C91.9473 11.1789 91.6674 10.8291 91.3175 10.8291H91.2476C90.8977 10.8291 90.6877 11.1789 90.6877 11.5288V15.6576H89.1482C88.8683 15.6576 88.5184 15.8675 88.5184 16.2174C88.5184 16.5673 88.8683 16.9172 89.1482 16.9172H90.6877V26.5742C90.6877 29.3034 92.4372 30.633 94.5365 30.633C95.1664 30.633 95.8661 30.493 96.4959 30.2831C96.7759 30.1432 96.9158 29.9332 96.9158 29.6533C96.9158 29.3034 96.7059 29.0935 96.356 29.0935C95.8661 29.2334 95.3063 29.3034 94.7465 29.3034C93.067 29.3034 91.9473 28.5336 91.9473 26.4343V16.9172H96.356ZM105.943 15.2377C102.234 15.2377 99.4351 18.5967 99.4351 23.0053V23.0753C99.4351 27.7639 102.514 30.8429 106.223 30.8429C108.182 30.9129 110.212 30.0732 111.541 28.4637C111.751 28.3237 111.821 28.1138 111.821 27.9738C111.821 27.6239 111.471 27.274 111.191 27.274L110.772 27.414C110.216 28.0612 109.53 28.5831 108.758 28.945C107.986 29.307 107.146 29.5007 106.293 29.5133C103.564 29.5133 101.115 27.344 100.835 23.7051H111.751C112.031 23.7051 112.381 23.3552 112.381 23.0053C112.381 18.5967 109.862 15.2377 105.943 15.2377ZM100.765 22.3055C100.975 19.0865 103.144 16.5673 105.873 16.5673C109.022 16.5673 110.702 19.2965 110.842 22.3055H100.765ZM123.088 15.4476C120.569 15.6576 118.469 17.407 117.56 19.9263V16.2874C117.56 16.0075 117.21 15.6576 116.93 15.6576C116.51 15.6576 116.3 15.8675 116.23 16.2874V30.0032C116.23 30.3531 116.51 30.703 116.86 30.703C117.21 30.703 117.49 30.4231 117.56 30.0032V24.5449C117.56 19.7163 120.149 17.407 123.088 17.0572H123.158C123.578 17.0572 123.788 16.6373 123.788 16.2874C123.788 15.7975 123.508 15.4476 123.088 15.4476Z" fill="#545454"/>
<path d="M146.776 14.6714C145.866 14.6714 145.026 15.3712 144.816 16.3509L142.437 24.3284L140.128 16.3509C139.918 15.3712 139.008 14.6014 137.959 14.6014H137.749C136.699 14.6014 135.789 15.2312 135.579 16.3509L133.27 24.1885L131.031 16.2809C130.751 15.3712 129.981 14.6014 129.001 14.6014H128.931C127.882 14.6014 127.112 15.5111 127.112 16.6308L127.252 17.6804L130.821 28.6671C131.101 29.7867 132.01 30.5565 133.13 30.6265H133.27C134.32 30.6265 135.159 29.8567 135.509 28.7371L137.819 20.8995L140.128 28.7371C140.408 29.8567 141.317 30.6265 142.367 30.6265H142.577C143.697 30.6265 144.606 29.8567 144.886 28.6671L148.455 17.5405L148.665 16.7007V16.6308C148.665 15.5111 147.825 14.6714 146.776 14.6714ZM157.063 14.6714C155.453 14.6014 153.914 14.9513 152.374 15.4411C151.744 15.721 151.394 16.3509 151.394 17.1206C151.394 18.1703 152.164 18.9401 153.144 18.8701C153.284 18.8701 153.494 18.8701 153.704 18.7301C154.613 18.4502 155.593 18.3103 156.573 18.3103C158.672 18.3103 159.722 19.29 159.722 21.1794V21.3893C158.602 20.9694 157.343 20.8295 156.153 20.8295C152.724 20.8295 150.345 22.439 150.345 25.8679C150.345 28.877 152.654 30.6265 155.313 30.6265C156.993 30.6965 158.602 29.9267 159.722 28.6671C159.792 29.7867 160.632 30.5565 161.681 30.5565C162.801 30.5565 163.711 29.5768 163.711 28.3872V21.3893C163.781 19.6398 163.221 17.8204 162.101 16.4908C160.911 15.3712 159.302 14.6714 157.063 14.6714ZM159.792 24.8183C159.792 26.4978 158.392 27.5474 156.503 27.4775C155.173 27.4775 154.264 26.7777 154.264 25.588V25.5181C154.264 24.1885 155.383 23.3487 157.133 23.3487C157.972 23.3487 158.952 23.6286 159.792 23.9785V24.8183ZM177.916 14.6014C177.077 14.6014 176.237 15.1612 176.027 16.1409L172.808 25.1682L169.729 16.2109C169.449 15.2312 168.679 14.6014 167.699 14.6014C166.65 14.6014 165.81 15.4411 165.67 16.6308C165.67 16.9807 165.81 17.3306 165.95 17.6804L170.429 28.6671C170.708 29.7867 171.618 30.5565 172.738 30.6265H173.018C173.997 30.5565 174.977 29.8567 175.397 28.7371L179.736 17.7504L179.946 16.7007V16.6308C179.946 15.5111 179.106 14.6014 177.916 14.6014ZM188.763 14.5314C184.494 14.5314 181.555 18.1703 181.555 22.5789V23.2787C181.695 27.5474 185.194 30.8364 189.183 30.6265C191.002 30.6265 192.752 29.9967 194.221 28.7371C194.641 28.3872 194.781 27.9673 194.781 27.4775V27.4075C194.781 26.4278 194.081 25.658 193.172 25.658C192.822 25.658 192.472 25.728 192.192 26.0079C191.376 26.7102 190.329 27.0844 189.253 27.0576C187.503 27.1276 185.964 25.8679 185.754 23.9785H193.941C194.991 23.9085 195.831 22.9288 195.761 21.8092V21.4593C195.761 17.6804 192.612 14.3915 188.763 14.5314ZM185.614 21.3893C185.964 19.3599 187.083 18.1003 188.763 18.1003C190.442 18.1003 191.562 19.4299 191.772 21.3893H185.614Z" fill="#545454" stroke="#C4C4C4" stroke-width="0.0699786"/>
</svg>
