<svg width="128" height="28" viewBox="0 0 128 28" fill="none" xmlns="http://www.w3.org/2000/svg">
<path d="M68.0686 15.3099C65.6497 15.3099 63.6782 17.1498 63.6782 19.6839C63.6782 22.2025 65.6497 24.0578 68.0686 24.0578C70.4885 24.0578 72.46 22.2025 72.46 19.6839C72.459 17.1498 70.4875 15.3099 68.0686 15.3099ZM68.0686 22.3362C66.7429 22.3362 65.6004 21.243 65.6004 19.6849C65.6004 18.1104 66.744 17.0336 68.0686 17.0336C69.3943 17.0336 70.5369 18.1104 70.5369 19.6849C70.5369 21.242 69.3943 22.3362 68.0686 22.3362ZM58.4897 15.3099C56.0708 15.3099 54.0993 17.1498 54.0993 19.6839C54.0993 22.2025 56.0708 24.0578 58.4897 24.0578C60.9096 24.0578 62.8812 22.2025 62.8812 19.6839C62.8812 17.1498 60.9096 15.3099 58.4897 15.3099ZM58.4897 22.3362C57.1641 22.3362 56.0215 21.243 56.0215 19.6849C56.0215 18.1104 57.1651 17.0336 58.4897 17.0336C59.8154 17.0336 60.958 18.1104 60.958 19.6849C60.959 21.242 59.8154 22.3362 58.4897 22.3362ZM47.0967 16.6531V18.5084H51.5375C51.4048 19.5522 51.0572 20.3143 50.5265 20.844C49.8807 21.4898 48.8697 22.2025 47.0967 22.2025C44.3631 22.2025 42.226 19.9986 42.226 17.265C42.226 14.5314 44.3631 12.3275 47.0967 12.3275C48.5715 12.3275 49.6482 12.9075 50.4432 13.6531L51.7524 12.3439C50.6417 11.2836 49.168 10.4722 47.0967 10.4722C43.3522 10.4722 40.2041 13.5205 40.2041 17.265C40.2041 21.0095 43.3522 24.0578 47.0967 24.0578C49.1176 24.0578 50.6427 23.3945 51.8347 22.1521C53.0606 20.9262 53.4422 19.2026 53.4422 17.8111C53.4422 17.3812 53.4092 16.9832 53.3424 16.6521H47.0967V16.6531ZM93.6932 18.0939C93.3291 17.1169 92.2184 15.3099 89.9486 15.3099C87.6953 15.3099 85.8225 17.083 85.8225 19.6839C85.8225 22.1357 87.6789 24.0578 90.1636 24.0578C92.168 24.0578 93.3281 22.8319 93.8094 22.1192L92.3181 21.1247C91.8214 21.8539 91.1416 22.3342 90.1636 22.3342C89.1866 22.3342 88.4903 21.8868 88.0429 21.0085L93.8917 18.5896L93.6932 18.0939ZM87.7282 19.5522C87.6789 17.8615 89.0374 17.0007 90.0155 17.0007C90.7775 17.0007 91.4234 17.3822 91.6394 17.9283L87.7282 19.5522ZM82.9738 23.7935H84.8949V10.937H82.9738V23.7935ZM79.8247 16.288H79.7589C79.3279 15.7738 78.499 15.3099 77.4562 15.3099C75.2687 15.3099 73.2643 17.2321 73.2643 19.7014C73.2643 22.1532 75.2687 24.0589 77.4562 24.0589C78.5 24.0589 79.3279 23.595 79.7589 23.0654H79.8247V23.6948C79.8247 25.3681 78.9299 26.2628 77.4891 26.2628C76.3126 26.2628 75.5834 25.4185 75.2852 24.7058L73.6119 25.402C74.0922 26.5611 75.3674 27.9865 77.4891 27.9865C79.7424 27.9865 81.6481 26.6608 81.6481 23.4295V15.5763H79.8257V16.288H79.8247ZM77.6218 22.3362C76.2961 22.3362 75.1864 21.2255 75.1864 19.7014C75.1864 18.1597 76.2961 17.0336 77.6218 17.0336C78.9299 17.0336 79.9573 18.1597 79.9573 19.7014C79.9573 21.2255 78.9299 22.3362 77.6218 22.3362ZM102.696 10.937H98.098V23.7935H100.016V18.9228H102.695C104.822 18.9228 106.914 17.3833 106.914 14.9304C106.914 12.4776 104.823 10.937 102.696 10.937ZM102.745 17.1334H100.016V12.7265H102.745C104.18 12.7265 104.995 13.9144 104.995 14.9304C104.995 15.926 104.18 17.1334 102.745 17.1334ZM114.605 15.2873C113.216 15.2873 111.777 15.8992 111.182 17.2557L112.885 17.9664C113.249 17.2557 113.928 17.0233 114.638 17.0233C115.631 17.0233 116.64 17.6188 116.656 18.677V18.8097C116.309 18.6112 115.564 18.314 114.655 18.314C112.819 18.314 110.949 19.3229 110.949 21.208C110.949 22.9286 112.455 24.0362 114.142 24.0362C115.431 24.0362 116.143 23.4572 116.589 22.7785H116.655V23.7709H118.508V18.8416C118.509 16.5605 116.804 15.2873 114.605 15.2873ZM114.373 22.3331C113.746 22.3331 112.868 22.0184 112.868 21.2409C112.868 20.2485 113.961 19.868 114.904 19.868C115.746 19.868 116.144 20.05 116.656 20.2979C116.507 21.4898 115.482 22.3331 114.373 22.3331ZM125.257 15.5681L123.057 21.1422H122.991L120.708 15.5681H118.641L122.065 23.3585L120.113 27.6923H122.114L127.391 15.5681H125.257ZM107.973 23.7935H109.891V10.937H107.973V23.7935Z" fill="white"/>
<path d="M46.76 3.47402C46.76 4.33585 46.5049 5.02182 45.9938 5.53398C45.4138 6.14281 44.6568 6.44723 43.7271 6.44723C42.8365 6.44723 42.0785 6.1387 41.4563 5.52164C40.8331 4.90354 40.5215 4.13839 40.5215 3.22513C40.5215 2.31085 40.8331 1.54569 41.4563 0.928631C42.0785 0.31054 42.8365 0.0020095 43.7271 0.0020095C44.1694 0.0020095 44.592 0.0883977 44.9931 0.260147C45.3953 0.432924 45.7172 0.662266 45.9578 0.949201L45.4158 1.49222C45.0075 1.00371 44.445 0.759968 43.7261 0.759968C43.0761 0.759968 42.5146 0.988282 42.0405 1.44491C41.5664 1.90153 41.3298 2.49494 41.3298 3.22411C41.3298 3.95327 41.5664 4.54668 42.0405 5.0033C42.5146 5.45993 43.0761 5.68824 43.7261 5.68824C44.4151 5.68824 44.99 5.4589 45.4498 4.99919C45.748 4.69991 45.9208 4.2834 45.9671 3.74964H43.7261V3.00813H46.7158C46.7466 3.1696 46.76 3.32489 46.76 3.47402Z" fill="white"/>
<path d="M51.5012 0.896808H48.6915V2.8529H51.2256V3.5944H48.6915V5.55049H51.5012V6.30948H47.8986V0.138849H51.5012V0.896808Z" fill="white"/>
<path d="M54.8445 6.30948H54.0516V0.896808H52.3279V0.138849H56.5682V0.896808H54.8445V6.30948Z" fill="white"/>
<path d="M59.636 6.30948V0.138849H60.4289V6.30948H59.636Z" fill="white"/>
<path d="M63.9453 6.30948H63.1524V0.896808H61.4287V0.138849H65.669V0.896808H63.9453V6.30948Z" fill="white"/>
<path d="M73.6957 5.51243C73.0889 6.13566 72.3351 6.44728 71.4331 6.44728C70.5312 6.44728 69.7773 6.13566 69.1716 5.51243C68.5648 4.8892 68.2624 4.12609 68.2624 3.22415C68.2624 2.32221 68.5648 1.55911 69.1716 0.935879C69.7773 0.312645 70.5312 0 71.4331 0C72.3299 0 73.0827 0.313673 73.6916 0.939992C74.3004 1.56631 74.6048 2.32736 74.6048 3.22415C74.6048 4.12609 74.3014 4.8892 73.6957 5.51243ZM69.7568 4.99512C70.2134 5.45792 70.7718 5.68829 71.4331 5.68829C72.0944 5.68829 72.6539 5.45689 73.1095 4.99512C73.5661 4.53233 73.7954 3.942 73.7954 3.22415C73.7954 2.5063 73.5661 1.91598 73.1095 1.45318C72.6539 0.990386 72.0944 0.760016 71.4331 0.760016C70.7718 0.760016 70.2134 0.991414 69.7568 1.45318C69.3012 1.91598 69.0718 2.5063 69.0718 3.22415C69.0718 3.942 69.3012 4.53233 69.7568 4.99512Z" fill="white"/>
<path d="M75.7176 6.30948V0.138849H76.6823L79.6812 4.93857H79.7152L79.6812 3.7497V0.138849H80.4741V6.30948H79.6462L76.5085 1.2763H76.4745L76.5085 2.46518V6.30948H75.7176Z" fill="white"/>
<g filter="url(#filter0_ii_689_1017)">
<path d="M0.476168 1.43738C0.176892 1.75414 -4.39396e-07 2.24573 -4.39396e-07 2.88234V25.6273C-4.39396e-07 26.2649 0.176892 26.7555 0.476168 27.0722L0.552272 27.1463L13.2936 14.405V14.2548V14.1047L0.552272 1.3623L0.476168 1.43738Z" fill="url(#paint0_linear_689_1017)"/>
<path d="M17.5404 18.6532L13.2939 14.4047V14.2545V14.1044L17.5414 9.85693L17.637 9.91144L22.6692 12.7705C24.1059 13.5871 24.1059 14.923 22.6692 15.7406L17.637 18.5997L17.5404 18.6532Z" fill="url(#paint1_linear_689_1017)"/>
<g filter="url(#filter1_i_689_1017)">
<path d="M17.6366 18.5985L13.2925 14.2544L0.476075 27.0718C0.949157 27.5737 1.7318 27.6354 2.61317 27.1356L17.6366 18.5985Z" fill="url(#paint2_linear_689_1017)"/>
</g>
<path d="M17.6366 9.91048L2.61317 1.37444C1.7318 0.873592 0.949157 0.936327 0.476075 1.4382L13.2935 14.2556L17.6366 9.91048Z" fill="url(#paint3_linear_689_1017)"/>
</g>
<defs>
<filter id="filter0_ii_689_1017" x="0" y="1.02881" width="23.7466" height="26.4521" filterUnits="userSpaceOnUse" color-interpolation-filters="sRGB">
<feFlood flood-opacity="0" result="BackgroundImageFix"/>
<feBlend mode="normal" in="SourceGraphic" in2="BackgroundImageFix" result="shape"/>
<feColorMatrix in="SourceAlpha" type="matrix" values="0 0 0 0 0 0 0 0 0 0 0 0 0 0 0 0 0 0 127 0" result="hardAlpha"/>
<feOffset dy="-0.154266"/>
<feComposite in2="hardAlpha" operator="arithmetic" k2="-1" k3="1"/>
<feColorMatrix type="matrix" values="0 0 0 0 0 0 0 0 0 0 0 0 0 0 0 0 0 0 0.12 0"/>
<feBlend mode="normal" in2="shape" result="effect1_innerShadow_689_1017"/>
<feColorMatrix in="SourceAlpha" type="matrix" values="0 0 0 0 0 0 0 0 0 0 0 0 0 0 0 0 0 0 127 0" result="hardAlpha"/>
<feOffset dy="0.154266"/>
<feComposite in2="hardAlpha" operator="arithmetic" k2="-1" k3="1"/>
<feColorMatrix type="matrix" values="0 0 0 0 1 0 0 0 0 1 0 0 0 0 1 0 0 0 0.25 0"/>
<feBlend mode="normal" in2="effect1_innerShadow_689_1017" result="effect2_innerShadow_689_1017"/>
</filter>
<filter id="filter1_i_689_1017" x="0.476074" y="14.2544" width="17.1606" height="13.2266" filterUnits="userSpaceOnUse" color-interpolation-filters="sRGB">
<feFlood flood-opacity="0" result="BackgroundImageFix"/>
<feBlend mode="normal" in="SourceGraphic" in2="BackgroundImageFix" result="shape"/>
<feColorMatrix in="SourceAlpha" type="matrix" values="0 0 0 0 0 0 0 0 0 0 0 0 0 0 0 0 0 0 127 0" result="hardAlpha"/>
<feOffset dy="-0.154266"/>
<feComposite in2="hardAlpha" operator="arithmetic" k2="-1" k3="1"/>
<feColorMatrix type="matrix" values="0 0 0 0 0 0 0 0 0 0 0 0 0 0 0 0 0 0 0.08 0"/>
<feBlend mode="normal" in2="shape" result="effect1_innerShadow_689_1017"/>
</filter>
<linearGradient id="paint0_linear_689_1017" x1="12.1642" y1="2.64168" x2="-5.09509" y2="19.9009" gradientUnits="userSpaceOnUse">
<stop stop-color="#00A0FF"/>
<stop offset="0.0066" stop-color="#00A1FF"/>
<stop offset="0.2601" stop-color="#00BEFF"/>
<stop offset="0.5122" stop-color="#00D2FF"/>
<stop offset="0.7604" stop-color="#00DFFF"/>
<stop offset="1" stop-color="#00E3FF"/>
</linearGradient>
<linearGradient id="paint1_linear_689_1017" x1="24.5394" y1="14.2545" x2="-0.344584" y2="14.2545" gradientUnits="userSpaceOnUse">
<stop stop-color="#FFE000"/>
<stop offset="0.4087" stop-color="#FFBD00"/>
<stop offset="0.7754" stop-color="#FFA500"/>
<stop offset="1" stop-color="#FF9C00"/>
</linearGradient>
<linearGradient id="paint2_linear_689_1017" x1="15.2775" y1="16.6135" x2="-8.12825" y2="40.0192" gradientUnits="userSpaceOnUse">
<stop stop-color="#FF3A44"/>
<stop offset="1" stop-color="#C31162"/>
</linearGradient>
<linearGradient id="paint3_linear_689_1017" x1="-2.75178" y1="-6.13336" x2="7.69952" y2="4.31793" gradientUnits="userSpaceOnUse">
<stop stop-color="#32A071"/>
<stop offset="0.0685" stop-color="#2DA771"/>
<stop offset="0.4762" stop-color="#15CF74"/>
<stop offset="0.8009" stop-color="#06E775"/>
<stop offset="1" stop-color="#00F076"/>
</linearGradient>
</defs>
</svg>
