<?xml version="1.0" encoding="UTF-8" standalone="no"?><!DOCTYPE svg PUBLIC "-//W3C//DTD SVG 1.1//EN" "http://www.w3.org/Graphics/SVG/1.1/DTD/svg11.dtd"><svg width="100%" height="100%" viewBox="0 0 534 117" version="1.1" xmlns="http://www.w3.org/2000/svg" xmlns:xlink="http://www.w3.org/1999/xlink" xml:space="preserve" xmlns:serif="http://www.serif.com/" style="fill-rule:evenodd;clip-rule:evenodd;stroke-linejoin:round;stroke-miterlimit:2;"><path d="M283.619,63.791c-10.079,0 -18.293,7.666 -18.293,18.225c-0,10.494 8.214,18.225 18.293,18.225c10.083,-0 18.298,-7.731 18.298,-18.225c-0.005,-10.559 -8.219,-18.225 -18.298,-18.225Zm0,29.276c-5.524,0 -10.284,-4.555 -10.284,-11.047c-0,-6.56 4.765,-11.047 10.284,-11.047c5.524,0 10.285,4.487 10.285,11.047c-0,6.488 -4.761,11.047 -10.285,11.047Zm-39.912,-29.276c-10.079,0 -18.293,7.666 -18.293,18.225c-0,10.494 8.214,18.225 18.293,18.225c10.083,-0 18.298,-7.731 18.298,-18.225c0,-10.559 -8.215,-18.225 -18.298,-18.225Zm0,29.276c-5.523,0 -10.284,-4.555 -10.284,-11.047c-0,-6.56 4.765,-11.047 10.284,-11.047c5.524,0 10.285,4.487 10.285,11.047c0.004,6.488 -4.761,11.047 -10.285,11.047Zm-47.471,-23.683l0,7.734l18.504,0c-0.553,4.349 -2.002,7.525 -4.213,9.732c-2.691,2.691 -6.903,5.66 -14.291,5.66c-11.39,0 -20.294,-9.183 -20.294,-20.572c-0,-11.391 8.904,-20.573 20.294,-20.573c6.145,-0 10.632,2.416 13.944,5.523l5.455,-5.455c-4.628,-4.418 -10.768,-7.799 -19.399,-7.799c-15.602,0 -28.719,12.701 -28.719,28.304c0,15.602 13.117,28.303 28.719,28.303c8.421,-0 14.775,-2.764 19.742,-7.941c5.108,-5.108 6.698,-12.289 6.698,-18.087c-0,-1.791 -0.138,-3.45 -0.416,-4.829l-26.024,-0Zm194.152,6.007c-1.517,-4.071 -6.145,-11.6 -15.602,-11.6c-9.389,0 -17.192,7.388 -17.192,18.225c-0,10.216 7.735,18.225 18.088,18.225c8.351,-0 13.185,-5.108 15.19,-8.078l-6.213,-4.143c-2.07,3.038 -4.902,5.039 -8.977,5.039c-4.071,0 -6.972,-1.864 -8.837,-5.524l24.37,-10.078l-0.827,-2.066Zm-24.854,6.076c-0.205,-7.044 5.455,-10.631 9.531,-10.631c3.175,0 5.866,1.59 6.766,3.865l-16.297,6.766Zm-19.81,17.673l8.005,-0l-0,-53.569l-8.005,-0l0,53.569Zm-13.117,-31.273l-0.278,-0c-1.796,-2.143 -5.25,-4.076 -9.595,-4.076c-9.114,0 -17.466,8.009 -17.466,18.298c-0,10.216 8.352,18.156 17.466,18.156c4.349,0 7.799,-1.933 9.595,-4.139l0.274,-0l-0,2.622c-0,6.972 -3.728,10.7 -9.732,10.7c-4.902,0 -7.94,-3.518 -9.183,-6.487l-6.972,2.901c2.001,4.829 7.315,10.768 16.155,10.768c9.389,0 17.329,-5.523 17.329,-18.987l0,-32.722l-7.593,0l0,2.966Zm-9.183,25.2c-5.524,0 -10.147,-4.627 -10.147,-10.978c-0,-6.424 4.623,-11.116 10.147,-11.116c5.451,0 9.731,4.692 9.731,11.116c0,6.351 -4.28,10.978 -9.731,10.978Zm104.476,-47.496l-19.158,-0l-0,53.569l7.991,-0l0,-20.295l11.163,-0c8.862,-0 17.579,-6.415 17.579,-16.635c-0,-10.22 -8.713,-16.639 -17.575,-16.639Zm0.204,25.818l-11.371,0l0,-18.362l11.371,0c5.979,0 9.375,4.95 9.375,9.183c0,4.148 -3.396,9.179 -9.375,9.179Zm49.417,-7.692c-5.788,0 -11.784,2.55 -14.263,8.202l7.096,2.961c1.517,-2.961 4.346,-3.93 7.304,-3.93c4.138,0 8.342,2.482 8.409,6.891l-0,0.553c-1.446,-0.827 -4.55,-2.066 -8.338,-2.066c-7.65,0 -15.442,4.204 -15.442,12.059c0,7.169 6.275,11.784 13.305,11.784c5.37,-0 8.337,-2.413 10.195,-5.241l0.276,0l-0,4.135l7.72,0l0,-20.538c0.004,-9.505 -7.1,-14.81 -16.262,-14.81Zm-0.967,29.358c-2.612,-0 -6.271,-1.312 -6.271,-4.551c0,-4.135 4.554,-5.721 8.484,-5.721c3.508,0 5.166,0.759 7.3,1.792c-0.621,4.966 -4.892,8.48 -9.513,8.48Zm45.35,-28.188l-9.167,23.225l-0.274,0l-9.513,-23.225l-8.613,0l14.267,32.46l-8.133,18.058l8.337,-0l21.988,-50.518l-8.892,0Zm-72.016,34.273l7.991,-0l0,-53.569l-7.991,-0l-0,53.569Z" style="fill:#540b45;fill-rule:nonzero;"/><path d="M194.833,14.475c0,3.591 -1.063,6.449 -3.192,8.583c-2.417,2.537 -5.571,3.805 -9.445,3.805c-3.711,0 -6.869,-1.285 -9.461,-3.856c-2.597,-2.576 -3.895,-5.764 -3.895,-9.569c-0,-3.809 1.298,-6.998 3.895,-9.569c2.592,-2.575 5.75,-3.861 9.461,-3.861c1.843,0 3.604,0.36 5.275,1.076c1.676,0.72 3.017,1.675 4.02,2.871l-2.258,2.263c-1.702,-2.036 -4.045,-3.051 -7.041,-3.051c-2.708,-0 -5.048,0.951 -7.023,2.853c-1.976,1.903 -2.962,4.376 -2.962,7.414c0,3.038 0.986,5.511 2.962,7.413c1.975,1.903 4.315,2.854 7.023,2.854c2.871,0 5.266,-0.956 7.182,-2.871c1.243,-1.247 1.963,-2.982 2.156,-5.206l-9.338,-0l0,-3.09l12.457,-0c0.129,0.673 0.184,1.32 0.184,1.941Z" style="fill:#540b45;fill-rule:nonzero;"/><path d="M214.588,3.737l-11.707,-0l0,8.15l10.559,0l0,3.09l-10.559,-0l0,8.15l11.707,0l0,3.162l-15.01,0l-0,-25.71l15.01,-0l0,3.158Z" style="fill:#540b45;fill-rule:nonzero;"/><path d="M228.519,26.29l-3.304,-0l0,-22.553l-7.182,-0l-0,-3.158l17.668,-0l-0,3.158l-7.182,-0l-0,22.553Z" style="fill:#540b45;fill-rule:nonzero;"/><rect x="248.483" y="0.579" width="3.304" height="25.711" style="fill:#540b45;fill-rule:nonzero;"/><path d="M266.439,26.29l-3.304,-0l-0,-22.553l-7.182,-0l-0,-3.158l17.668,-0l-0,3.158l-7.182,-0l-0,22.553Z" style="fill:#540b45;fill-rule:nonzero;"/><path d="M307.065,22.968c-2.528,2.597 -5.669,3.896 -9.427,3.896c-3.758,-0 -6.899,-1.299 -9.423,-3.896c-2.528,-2.596 -3.788,-5.776 -3.788,-9.534c-0,-3.758 1.26,-6.938 3.788,-9.535c2.524,-2.596 5.665,-3.899 9.423,-3.899c3.737,0 6.873,1.307 9.41,3.917c2.537,2.609 3.805,5.78 3.805,9.517c0,3.758 -1.264,6.938 -3.788,9.534Zm-16.412,-2.155c1.903,1.928 4.229,2.888 6.985,2.888c2.755,0 5.087,-0.964 6.985,-2.888c1.902,-1.928 2.858,-4.388 2.858,-7.379c-0,-2.991 -0.956,-5.451 -2.858,-7.379c-1.898,-1.928 -4.23,-2.888 -6.985,-2.888c-2.756,-0 -5.082,0.964 -6.985,2.888c-1.898,1.928 -2.854,4.388 -2.854,7.379c0,2.991 0.956,5.451 2.854,7.379Z" style="fill:#540b45;fill-rule:nonzero;"/><path d="M315.49,26.29l0,-25.711l4.02,-0l12.495,19.998l0.142,0l-0.142,-4.953l0,-15.045l3.304,-0l-0,25.711l-3.45,-0l-13.074,-20.972l-0.141,-0l0.141,4.954l0,16.018l-3.295,-0Z" style="fill:#540b45;fill-rule:nonzero;"/><g><path d="M1.984,5.989c-1.247,1.32 -1.984,3.368 -1.984,6.021l-0,94.77c-0,2.657 0.737,4.701 1.984,6.021l0.317,0.309l53.089,-53.089l0,-1.251l-53.089,-53.094l-0.317,0.313Z" style="fill:url(#_Linear1);fill-rule:nonzero;"/><path d="M73.085,77.722l-17.694,-17.702l0,-1.252l17.698,-17.697l0.399,0.227l20.967,11.912c5.986,3.403 5.986,8.969 0,12.376l-20.967,11.913l-0.403,0.223Z" style="fill:url(#_Linear2);fill-rule:nonzero;"/><g><path d="M73.486,77.494l-18.101,-18.101l-53.401,53.406c1.971,2.091 5.232,2.349 8.904,0.266l62.598,-35.571Z" style="fill:url(#_Linear3);fill-rule:nonzero;"/></g><path d="M73.486,41.294l-62.598,-35.567c-3.672,-2.087 -6.933,-1.826 -8.904,0.265l53.406,53.406l18.096,-18.104Z" style="fill:url(#_Linear4);fill-rule:nonzero;"/></g><defs><linearGradient id="_Linear1" x1="0" y1="0" x2="1" y2="0" gradientUnits="userSpaceOnUse" gradientTransform="matrix(-71.9137,71.9134,-71.9134,-71.9137,50.6842,11.007)"><stop offset="0" style="stop-color:#00a0ff;stop-opacity:1"/><stop offset="0.01" style="stop-color:#00a1ff;stop-opacity:1"/><stop offset="0.26" style="stop-color:#00beff;stop-opacity:1"/><stop offset="0.51" style="stop-color:#00d2ff;stop-opacity:1"/><stop offset="0.76" style="stop-color:#00dfff;stop-opacity:1"/><stop offset="1" style="stop-color:#00e3ff;stop-opacity:1"/></linearGradient><linearGradient id="_Linear2" x1="0" y1="0" x2="1" y2="0" gradientUnits="userSpaceOnUse" gradientTransform="matrix(-103.683,1.26975e-14,-1.26975e-14,-103.683,102.248,59.3938)"><stop offset="0" style="stop-color:#ffe000;stop-opacity:1"/><stop offset="0.41" style="stop-color:#ffbd00;stop-opacity:1"/><stop offset="0.78" style="stop-color:#ffa500;stop-opacity:1"/><stop offset="1" style="stop-color:#ff9c00;stop-opacity:1"/></linearGradient><linearGradient id="_Linear3" x1="0" y1="0" x2="1" y2="0" gradientUnits="userSpaceOnUse" gradientTransform="matrix(-97.524,97.5238,-97.5238,-97.524,63.6563,69.2229)"><stop offset="0" style="stop-color:#ff3a44;stop-opacity:1"/><stop offset="1" style="stop-color:#c31162;stop-opacity:1"/></linearGradient><linearGradient id="_Linear4" x1="0" y1="0" x2="1" y2="0" gradientUnits="userSpaceOnUse" gradientTransform="matrix(43.5471,43.547,-43.547,43.5471,-11.4658,-25.5557)"><stop offset="0" style="stop-color:#32a071;stop-opacity:1"/><stop offset="0.07" style="stop-color:#2da771;stop-opacity:1"/><stop offset="0.48" style="stop-color:#15cf74;stop-opacity:1"/><stop offset="0.8" style="stop-color:#06e775;stop-opacity:1"/><stop offset="1" style="stop-color:#00f076;stop-opacity:1"/></linearGradient></defs></svg>