<svg width="125" height="48" viewBox="0 0 125 48" fill="none" xmlns="http://www.w3.org/2000/svg">
<g clip-path="url(#clip0_794_1020)">
<path fill-rule="evenodd" clip-rule="evenodd" d="M6.27368 0C9.73865 0 12.5471 2.80905 12.5471 6.27368C12.5471 9.28159 10.4302 11.7947 7.60571 12.4053V15.1876H11.3883V17.8516H7.60571V21.126C10.29 21.7321 12.2953 24.1319 12.2953 26.9996C12.2953 30.3254 9.59912 33.0215 6.27368 33.0215C2.9476 33.0215 0.251776 30.3254 0.251776 26.9996C0.251776 24.1319 2.25698 21.7321 4.94136 21.126V17.8516H1.15879V15.1876H4.94136V12.4053C2.11654 11.7943 0 9.28159 0 6.27368C0 2.80905 2.80842 0 6.27368 0V0ZM21.252 20.978C17.9259 20.978 15.2301 23.6741 15.2301 26.9996C15.2301 30.3254 17.9259 33.0215 21.252 33.0215C24.5775 33.0215 27.2739 30.3254 27.2739 26.9996C27.2739 23.6741 24.5775 20.978 21.252 20.978V20.978ZM6.27368 35.9563C9.59912 35.9563 12.2953 38.6524 12.2953 41.978C12.2953 45.3038 9.59912 47.9999 6.27368 47.9999C2.9476 47.9999 0.251776 45.3038 0.251776 41.978C0.251776 38.6524 2.9476 35.9563 6.27368 35.9563V35.9563ZM21.252 35.9563C17.9259 35.9563 15.2301 38.6524 15.2301 41.978C15.2301 45.3038 17.9259 47.9999 21.252 47.9999C24.5775 47.9999 27.2739 45.3038 27.2739 41.978C27.2739 38.6524 24.5775 35.9563 21.252 35.9563ZM6.27368 2.72654C8.23239 2.72654 9.82053 4.31461 9.82053 6.27368C9.82053 8.23274 8.23239 9.82116 6.27368 9.82116C4.31461 9.82116 2.72619 8.23274 2.72619 6.27368C2.72619 4.31461 4.31461 2.72654 6.27368 2.72654V2.72654Z" fill="white"/>
<path fill-rule="evenodd" clip-rule="evenodd" d="M50.7351 47.7028H49.7092C49.3386 47.7028 48.9882 47.6304 48.6634 47.4902C48.3386 47.3501 48.0557 47.1543 47.8196 46.9123C47.5786 46.6658 47.3886 46.3809 47.2495 46.0577C47.1107 45.7348 47.0383 45.3865 47.0383 45.0122V39.95H39.7983V45.0122C39.7983 45.3865 39.7266 45.7348 39.5878 46.0577C39.4479 46.3809 39.258 46.6658 39.0134 46.9123C38.7685 47.1543 38.4859 47.3501 38.1651 47.4902C37.8451 47.6304 37.4987 47.7028 37.1274 47.7028H36.1025V29.6216H37.1274C37.4987 29.6216 37.8451 29.694 38.1651 29.8341C38.4859 29.9746 38.7685 30.1658 39.0134 30.4081C39.258 30.6547 39.4479 30.935 39.5878 31.2582C39.7266 31.581 39.7983 31.9297 39.7983 32.2994V36.9153H47.0383V32.2994C47.0383 31.9297 47.1107 31.581 47.2495 31.2582C47.3886 30.935 47.5786 30.6547 47.8196 30.4081C48.0557 30.1658 48.3386 29.9746 48.6634 29.8341C48.9882 29.694 49.3386 29.6216 49.7092 29.6216H50.7351V47.7028V47.7028Z" fill="white"/>
<path fill-rule="evenodd" clip-rule="evenodd" d="M64.9748 45.0974C64.9283 45.1698 64.8566 45.2589 64.7725 45.3567C64.6837 45.4586 64.5907 45.5607 64.4935 45.6626C64.3965 45.769 64.2954 45.8665 64.1984 45.9645C64.0973 46.0578 64.0128 46.1386 63.9372 46.2068C63.7724 46.3469 63.5996 46.4831 63.4178 46.6105C63.2361 46.7421 63.038 46.857 62.8274 46.9674C62.612 47.0824 62.3844 47.1841 62.1435 47.2736C61.9074 47.3587 61.6539 47.435 61.3927 47.5031C61.1271 47.5712 60.8481 47.6177 60.557 47.6517C60.2659 47.6858 59.9624 47.7028 59.65 47.7028C58.6333 47.7028 57.7387 47.5371 56.9535 47.2054C56.5488 47.0398 56.1779 46.8443 55.8399 46.619C55.5027 46.3937 55.1942 46.1429 54.9156 45.858C54.3546 45.2844 53.9329 44.6128 53.6543 43.8394C53.3547 43.0699 53.207 42.2412 53.207 41.3613V40.8895C53.207 40.3879 53.2453 39.916 53.3128 39.4697C53.3845 39.0192 53.4938 38.5856 53.6418 38.1734C53.9286 37.3318 54.3291 36.6177 54.8399 36.027C55.3586 35.4406 55.9961 34.973 56.7554 34.6328C57.4895 34.3015 58.3295 34.1357 59.2784 34.1357C60.224 34.1357 61.0465 34.2887 61.7387 34.5991C62.1012 34.7647 62.4306 34.9517 62.7263 35.1642C63.021 35.3768 63.2914 35.6233 63.5318 35.9082C63.7767 36.1885 63.9918 36.4989 64.1729 36.8345C64.3546 37.1705 64.5066 37.5401 64.6287 37.9396C64.7849 38.4625 64.8907 39.0362 64.9368 39.6613V40.2945C64.9244 40.5453 64.8612 40.7788 64.7551 40.9959C64.6461 41.2127 64.5066 41.3996 64.3334 41.5568C64.1608 41.714 63.9624 41.8374 63.7387 41.9308C63.5193 42.0201 63.2829 42.0669 63.0341 42.0669H56.7175C56.7512 42.2837 56.798 42.4835 56.857 42.6747C56.9113 42.8659 56.9837 43.0444 57.0636 43.21C57.2364 43.563 57.4601 43.8604 57.7345 44.1026C57.9788 44.3407 58.2915 44.5319 58.6713 44.6724C59.0086 44.804 59.4139 44.8721 59.8821 44.8721C60.519 44.8721 61.1012 44.7572 61.6375 44.5234C62.0174 44.3662 62.3547 44.2559 62.6461 44.2005C62.9372 44.141 63.2023 44.1239 63.4388 44.1495C63.6713 44.175 63.8861 44.2346 64.0717 44.3322C64.2617 44.4258 64.4388 44.5532 64.6038 44.7107L64.9748 45.0974V45.0974ZM57.0383 38.5814C56.9748 38.7474 56.9198 38.9216 56.8737 39.1085C56.8275 39.2913 56.7937 39.4868 56.7685 39.695H61.5908V39.4062C61.5825 39.0745 61.5318 38.7474 61.4388 38.4327C61.3422 38.1478 61.1985 37.8889 61.0082 37.655C60.8186 37.4383 60.5783 37.2723 60.2915 37.1534C60.1523 37.0853 59.9919 37.0388 59.8144 37.009C59.6376 36.9792 59.4559 36.9664 59.2659 36.9664C58.8694 36.9664 58.5364 37.0346 58.2617 37.1662C58.1228 37.2343 57.9961 37.3106 57.8737 37.4042C57.7551 37.4976 57.6418 37.5997 57.5357 37.7185C57.3291 37.9609 57.1647 38.2458 57.0383 38.5814V38.5814Z" fill="white"/>
<path fill-rule="evenodd" clip-rule="evenodd" d="M73.9371 37.8083L73.8739 37.7955C73.7596 37.787 73.6502 37.7827 73.549 37.7784C73.4429 37.7742 73.3378 37.7699 73.2324 37.7699C72.8863 37.7699 72.5742 37.7997 72.2999 37.8593C72.0212 37.9147 71.777 38.0122 71.5611 38.1439C71.3591 38.2588 71.1732 38.3989 71.0127 38.5607C70.8522 38.7221 70.7177 38.9134 70.6123 39.1258V46.0243C70.6123 46.2748 70.5654 46.5043 70.4773 46.7211C70.3843 46.9379 70.2622 47.1252 70.1014 47.2866C69.9413 47.4523 69.7554 47.5757 69.5448 47.6691C69.3333 47.7585 69.1139 47.8053 68.8821 47.8053C68.6371 47.8053 68.405 47.7585 68.1944 47.6691C67.979 47.5757 67.7891 47.4481 67.629 47.2866C67.4682 47.1252 67.3461 46.9379 67.2534 46.7211C67.165 46.5043 67.1182 46.2709 67.1182 46.0243V34.2251V34.2379H67.8484C68.439 34.2464 68.9711 34.4035 69.443 34.7055C69.9197 35.0074 70.2786 35.4068 70.5274 35.9042C70.7724 35.4068 71.1312 35.0074 71.608 34.7055C72.0802 34.4035 72.6165 34.2464 73.2065 34.2379H73.9371V37.8083V37.8083Z" fill="white"/>
<path fill-rule="evenodd" clip-rule="evenodd" d="M82.9328 42.5471L86.1476 31.7895C86.2619 31.39 86.443 31.0331 86.684 30.7227C86.9282 30.4126 87.2109 30.1533 87.5403 29.9535C87.8647 29.7495 88.2194 29.6091 88.6077 29.5286C88.9957 29.4477 89.3925 29.4434 89.793 29.5115L90.8441 29.6857L85.1817 46.0455C85.0085 46.5425 84.7177 46.942 84.3038 47.2354C83.8946 47.5288 83.4306 47.6775 82.9198 47.6775C82.4011 47.6775 81.9368 47.5288 81.5236 47.2311C81.1139 46.9296 80.8228 46.534 80.6585 46.0455L75.0596 29.7453L76.0128 29.5583C76.4224 29.486 76.8271 29.486 77.224 29.5665C77.6162 29.6431 77.9833 29.7875 78.317 29.9876C78.6503 30.1916 78.9414 30.4506 79.1902 30.7652C79.4348 31.0842 79.6205 31.4453 79.7433 31.8491L82.9328 42.5471V42.5471Z" fill="white"/>
<path fill-rule="evenodd" clip-rule="evenodd" d="M103.092 45.0974C103.046 45.1698 102.974 45.2589 102.89 45.3567C102.801 45.4586 102.708 45.5607 102.611 45.6626C102.514 45.769 102.413 45.8665 102.316 45.9645C102.215 46.0578 102.13 46.1386 102.054 46.2068C101.89 46.3469 101.717 46.4831 101.535 46.6105C101.354 46.7421 101.155 46.857 100.945 46.9674C100.729 47.0824 100.502 47.1841 100.261 47.2736C100.024 47.3587 99.7713 47.435 99.5101 47.5031C99.2445 47.5712 98.9655 47.6177 98.6744 47.6517C98.3833 47.6858 98.0798 47.7028 97.7674 47.7028C96.7507 47.7028 95.8561 47.5371 95.0713 47.2054C94.6663 47.0398 94.2953 46.8443 93.957 46.619C93.6201 46.3937 93.3116 46.1429 93.033 45.858C92.4721 45.2844 92.0504 44.6128 91.7717 43.8394C91.4721 43.0699 91.3247 42.2412 91.3247 41.3613V40.8895C91.3247 40.3879 91.3628 39.916 91.4302 39.4697C91.5016 39.0192 91.6112 38.5856 91.7592 38.1734C92.0461 37.3318 92.4466 36.6177 92.9573 36.027C93.476 35.4406 94.1135 34.973 94.8732 34.6328C95.607 34.3015 96.4469 34.1357 97.3961 34.1357C98.3414 34.1357 99.1639 34.2887 99.8561 34.5991C100.219 34.7647 100.548 34.9517 100.844 35.1642C101.139 35.3768 101.409 35.6233 101.649 35.9082C101.894 36.1885 102.109 36.4989 102.29 36.8345C102.472 37.1705 102.624 37.5401 102.746 37.9396C102.902 38.4625 103.008 39.0362 103.054 39.6613V40.2945C103.041 40.5453 102.979 40.7788 102.872 40.9959C102.763 41.2127 102.624 41.3996 102.451 41.5568C102.278 41.714 102.08 41.8374 101.856 41.9308C101.636 42.0201 101.4 42.0669 101.151 42.0669H94.8348C94.8686 42.2837 94.9154 42.4835 94.9744 42.6747C95.0287 42.8659 95.1011 43.0444 95.181 43.21C95.3539 43.563 95.5775 43.8604 95.8519 44.1026C96.0962 44.3407 96.4085 44.5319 96.7887 44.6724C97.126 44.804 97.5313 44.8721 97.9995 44.8721C98.6364 44.8721 99.2186 44.7572 99.755 44.5234C100.135 44.3662 100.472 44.2559 100.763 44.2005C101.054 44.141 101.32 44.1239 101.557 44.1495C101.789 44.175 102.003 44.2346 102.189 44.3322C102.379 44.4258 102.557 44.5532 102.721 44.7107L103.092 45.0974V45.0974ZM95.1558 38.5814C95.0922 38.7474 95.0376 38.9216 94.9907 39.1085C94.9449 39.2913 94.9111 39.4868 94.8859 39.695H99.7082V39.4062C99.7 39.0745 99.6495 38.7474 99.5565 38.4327C99.4596 38.1478 99.3159 37.8889 99.1257 37.655C98.9361 37.4383 98.6957 37.2723 98.4089 37.1534C98.2697 37.0853 98.1093 37.0388 97.9318 37.009C97.755 36.9792 97.5733 36.9664 97.3833 36.9664C96.9868 36.9664 96.6538 37.0346 96.3791 37.1662C96.2402 37.2343 96.1136 37.3106 95.9911 37.4042C95.8725 37.4976 95.7592 37.5997 95.6535 37.7185C95.4465 37.9609 95.2821 38.2458 95.1558 38.5814V38.5814Z" fill="white"/>
<path fill-rule="evenodd" clip-rule="evenodd" d="M115.662 42.2242C115.919 42.6875 116.045 43.2484 116.045 43.9072C116.045 44.494 115.914 45.0336 115.648 45.514C115.404 45.9943 115.037 46.4193 114.552 46.7847C114.311 46.9675 114.05 47.1292 113.759 47.2651C113.472 47.401 113.159 47.5244 112.822 47.6348C112.151 47.8345 111.4 47.9324 110.556 47.9324C109.611 47.9324 108.793 47.8008 108.109 47.5329C107.763 47.4053 107.443 47.2651 107.147 47.0994C106.852 46.9376 106.581 46.7422 106.341 46.5084C106.054 46.2238 105.813 45.9347 105.623 45.6414C105.438 45.344 105.286 45.0634 105.181 44.7913C105.075 44.5235 104.999 44.2772 104.957 44.052C104.915 43.8266 104.898 43.6394 104.898 43.4907L104.91 41.8967H105.615C106.017 41.8967 106.396 41.9734 106.75 42.1263C107.105 42.2795 107.417 42.492 107.691 42.7556C107.979 43.07 108.181 43.4567 108.295 43.9157C108.312 43.9966 108.333 44.0814 108.358 44.1623C108.383 44.2474 108.413 44.3152 108.442 44.3748C108.569 44.6256 108.741 44.8211 108.965 44.974C109.177 45.1145 109.429 45.2291 109.717 45.3227C109.999 45.3947 110.298 45.4331 110.619 45.4331C111.294 45.4331 111.801 45.3014 112.138 45.0336C112.476 44.787 112.649 44.4514 112.649 44.0392C112.649 43.8479 112.611 43.6777 112.535 43.529C112.472 43.3719 112.337 43.2271 112.138 43.104C112.033 43.0317 111.91 42.9596 111.775 42.9C111.641 42.8361 111.484 42.7723 111.312 42.7046C111.138 42.6492 110.94 42.5896 110.712 42.5385C110.484 42.4835 110.24 42.4239 109.978 42.3558C109.632 42.2838 109.307 42.1986 108.999 42.1092C108.696 42.0159 108.4 41.918 108.109 41.8077C107.831 41.7012 107.565 41.5782 107.32 41.4419C107.071 41.306 106.843 41.1574 106.628 40.9999C106.43 40.8342 106.248 40.6557 106.084 40.4645C105.919 40.2733 105.78 40.0693 105.662 39.8525C105.434 39.4403 105.316 38.9429 105.316 38.3604C105.316 37.8293 105.434 37.3063 105.662 36.7923C105.919 36.2864 106.26 35.8529 106.687 35.496C107.142 35.1132 107.696 34.8116 108.345 34.5864C109.003 34.3696 109.733 34.2632 110.535 34.2632C111.409 34.2632 112.168 34.3653 112.822 34.5736C113.159 34.6882 113.467 34.8201 113.754 34.9646C114.037 35.1089 114.299 35.2792 114.539 35.4704C115.007 35.8358 115.371 36.2779 115.627 36.8008C115.864 37.2894 115.995 37.825 116.007 38.4072V40.0991H115.269C114.813 40.0991 114.4 40.0097 114.025 39.827C113.649 39.6443 113.337 39.3935 113.079 39.0788C113.037 39.0363 112.995 38.977 112.949 38.8918C112.906 38.8109 112.86 38.7176 112.822 38.6112C112.78 38.5094 112.737 38.4029 112.704 38.2927C112.666 38.1862 112.636 38.0844 112.611 37.9822C112.569 37.8165 112.501 37.6551 112.404 37.5019C112.311 37.3489 112.181 37.2131 112.016 37.0981C111.826 36.958 111.615 36.8644 111.387 36.826C111.155 36.7838 110.868 36.7625 110.522 36.7625C109.936 36.7625 109.484 36.8984 109.159 37.1748C108.831 37.4298 108.666 37.774 108.666 38.1947C108.666 38.3945 108.712 38.5647 108.801 38.7092C108.876 38.8578 109.012 38.994 109.21 39.1171C109.303 39.1852 109.408 39.2487 109.531 39.3041C109.658 39.3637 109.801 39.4232 109.965 39.4783C110.122 39.5293 110.294 39.5804 110.484 39.6315C110.674 39.6784 110.881 39.7249 111.1 39.7674C111.793 39.899 112.455 40.0693 113.079 40.2775C113.383 40.3794 113.666 40.4944 113.919 40.6259C114.176 40.7622 114.413 40.9066 114.636 41.0637C114.86 41.2209 115.054 41.3997 115.223 41.5952C115.391 41.7864 115.539 41.9989 115.662 42.2242V42.2242Z" fill="white"/>
<path fill-rule="evenodd" clip-rule="evenodd" d="M123.223 45.2888C123.256 45.2973 123.349 45.3058 123.501 45.3186C123.653 45.3313 123.813 45.3399 123.982 45.3441C124.151 45.3484 124.307 45.3526 124.455 45.3569C124.598 45.3611 124.687 45.3611 124.72 45.3526V46.0242C124.72 46.313 124.661 46.5809 124.548 46.8274C124.429 47.0698 124.277 47.2865 124.088 47.4692C123.898 47.6519 123.678 47.7882 123.421 47.8857C123.164 47.9794 122.898 48.0177 122.619 47.9921C122.413 47.9751 122.201 47.9538 121.991 47.9283C121.775 47.9027 121.552 47.8687 121.324 47.8304C121.1 47.7882 120.902 47.7073 120.725 47.5884C120.548 47.465 120.383 47.3333 120.227 47.1928C119.932 46.9041 119.699 46.534 119.535 46.0835C119.447 45.8625 119.383 45.6119 119.345 45.3313C119.307 45.055 119.29 44.7531 119.29 44.4303V36.6094H117.522V35.7892C117.522 35.5809 117.564 35.3854 117.645 35.1942C117.729 35.003 117.839 34.8373 117.982 34.6968C118.122 34.5567 118.286 34.446 118.48 34.3612C118.674 34.2803 118.877 34.2378 119.092 34.2378H119.29V30.1064H120.003C120.349 30.1064 120.678 30.1746 120.987 30.3062C121.294 30.4381 121.56 30.6166 121.792 30.8461C122.02 31.0756 122.201 31.3432 122.332 31.6494C122.463 31.9555 122.53 32.2826 122.53 32.6313V34.2378H124.581V35.0455C124.581 35.2623 124.544 35.462 124.459 35.6533C124.379 35.8445 124.265 36.0102 124.126 36.1506C123.986 36.2908 123.822 36.4011 123.632 36.4863C123.442 36.5671 123.239 36.6094 123.025 36.6094H122.53V44.0815C122.53 44.3281 122.556 44.5406 122.607 44.7151C122.636 44.7914 122.67 44.8595 122.704 44.9276C122.738 44.9954 122.784 45.0465 122.839 45.0891C122.932 45.1909 123.058 45.2548 123.223 45.2888Z" fill="white"/>
</g>
<defs>
<clipPath id="clip0_794_1020">
<rect width="124.72" height="48" fill="white"/>
</clipPath>
</defs>
</svg>
