<svg width="100" height="39" viewBox="0 0 100 39" fill="none" xmlns="http://www.w3.org/2000/svg">
<g clip-path="url(#clip0_688_960)">
<path fill-rule="evenodd" clip-rule="evenodd" d="M5.03019 0C7.80839 0 10.0602 2.24809 10.0602 5.02085C10.0602 7.4281 8.36285 9.43934 6.09821 9.92803V12.1547H9.13106V14.2867H6.09821V16.9072C8.25047 17.3923 9.85829 19.3128 9.85829 21.6079C9.85829 24.2696 7.69651 26.4273 5.03019 26.4273C2.36337 26.4273 0.201873 24.2696 0.201873 21.6079C0.201873 19.3128 1.80963 17.3923 3.96195 16.9072V14.2867H0.929107V12.1547H3.96195V9.92803C1.69703 9.43906 0 7.4281 0 5.02085C0 2.24809 2.25177 0 5.03019 0V0ZM17.0397 16.7888C14.3729 16.7888 12.2114 18.9465 12.2114 21.6079C12.2114 24.2696 14.3729 26.4273 17.0397 26.4273C19.7061 26.4273 21.8681 24.2696 21.8681 21.6079C21.8681 18.9465 19.7061 16.7888 17.0397 16.7888ZM5.03019 28.776C7.69651 28.776 9.85829 30.9337 9.85829 33.5952C9.85829 36.2568 7.69651 38.4145 5.03019 38.4145C2.36337 38.4145 0.201873 36.2568 0.201873 33.5952C0.201873 30.9337 2.36337 28.776 5.03019 28.776ZM17.0397 28.776C14.3729 28.776 12.2114 30.9337 12.2114 33.5952C12.2114 36.2568 14.3729 38.4145 17.0397 38.4145C19.7061 38.4145 21.8681 36.2568 21.8681 33.5952C21.8681 30.9337 19.7061 28.776 17.0397 28.776ZM5.03019 2.18206C6.60068 2.18206 7.87404 3.453 7.87404 5.02085C7.87404 6.58871 6.60068 7.85992 5.03019 7.85992C3.45943 7.85992 2.18584 6.58871 2.18584 5.02085C2.18584 3.453 3.45943 2.18206 5.03019 2.18206Z" fill="#540A45"/>
<path fill-rule="evenodd" clip-rule="evenodd" d="M40.6791 38.177H39.8565C39.5593 38.177 39.2784 38.1191 39.018 38.0069C38.7576 37.8948 38.5307 37.7381 38.3414 37.5444C38.1482 37.3471 37.9959 37.1191 37.8844 36.8605C37.773 36.6021 37.715 36.3233 37.715 36.0237V31.9724H31.91V36.0237C31.91 36.3233 31.8525 36.6021 31.7412 36.8605C31.6291 37.1191 31.4768 37.3471 31.2807 37.5444C31.0843 37.7381 30.8578 37.8948 30.6005 38.0069C30.344 38.1191 30.0662 38.177 29.7685 38.177H28.9468V23.7065H29.7685C30.0662 23.7065 30.344 23.7645 30.6005 23.8766C30.8578 23.989 31.0843 24.1421 31.2807 24.336C31.4768 24.5333 31.6291 24.7577 31.7412 25.0163C31.8525 25.2747 31.91 25.5538 31.91 25.8496V29.5437H37.715V25.8496C37.715 25.5538 37.773 25.2747 37.8844 25.0163C37.9959 24.7577 38.1482 24.5333 38.3414 24.336C38.5307 24.1421 38.7576 23.989 39.018 23.8766C39.2784 23.7645 39.5593 23.7065 39.8565 23.7065H40.6791V38.177Z" fill="#540A45"/>
<path fill-rule="evenodd" clip-rule="evenodd" d="M52.0965 36.092C52.0592 36.1499 52.0017 36.2212 51.9342 36.2995C51.863 36.381 51.7885 36.4628 51.7105 36.5443C51.6328 36.6295 51.5517 36.7076 51.474 36.7859C51.3929 36.8606 51.3251 36.9253 51.2645 36.9798C51.1324 37.092 50.9938 37.201 50.8481 37.3029C50.7024 37.4083 50.5436 37.5003 50.3747 37.5886C50.202 37.6806 50.0195 37.762 49.8263 37.8336C49.637 37.9017 49.4338 37.9628 49.2243 38.0173C49.0114 38.0718 48.7877 38.109 48.5543 38.1363C48.3209 38.1635 48.0776 38.1771 47.827 38.1771C47.0119 38.1771 46.2946 38.0445 45.665 37.7791C45.3405 37.6465 45.0431 37.49 44.7721 37.3098C44.5018 37.1294 44.2545 36.9287 44.031 36.7007C43.5813 36.2417 43.2431 35.7041 43.0197 35.0852C42.7795 34.4694 42.6611 33.8061 42.6611 33.102V32.7244C42.6611 32.3229 42.6918 31.9453 42.7459 31.5882C42.8034 31.2276 42.8911 30.8806 43.0098 30.5507C43.2397 29.8772 43.5608 29.3057 43.9704 28.8329C44.3863 28.3636 44.8974 27.9894 45.5062 27.7171C46.0948 27.452 46.7683 27.3193 47.5291 27.3193C48.2873 27.3193 48.9468 27.4417 49.5018 27.6902C49.7924 27.8227 50.0565 27.9724 50.2936 28.1424C50.5299 28.3125 50.7467 28.5098 50.9395 28.7378C51.1358 28.9622 51.3083 29.2106 51.4535 29.4792C51.5992 29.748 51.7211 30.0439 51.8189 30.3636C51.9442 30.7821 52.029 31.2412 52.066 31.7415V32.2482C52.056 32.449 52.0054 32.6358 51.9203 32.8096C51.8329 32.9831 51.7211 33.1327 51.5821 33.2585C51.4438 33.3842 51.2847 33.483 51.1054 33.5577C50.9295 33.6292 50.7399 33.6667 50.5404 33.6667H45.4758C45.5028 33.8402 45.5404 34 45.5876 34.1531C45.6312 34.3061 45.6892 34.449 45.7533 34.5815C45.8919 34.864 46.0712 35.102 46.2912 35.2959C46.4871 35.4864 46.7378 35.6395 47.0423 35.7519C47.3128 35.8572 47.6378 35.9117 48.0132 35.9117C48.5238 35.9117 48.9907 35.8197 49.4206 35.6326C49.7252 35.5068 49.9957 35.4185 50.2293 35.3742C50.4627 35.3266 50.6753 35.3129 50.8649 35.3334C51.0513 35.3538 51.2235 35.4015 51.3724 35.4796C51.5247 35.5545 51.6667 35.6565 51.799 35.7825L52.0965 36.092ZM45.733 30.8772C45.6821 31.01 45.638 31.1495 45.601 31.2991C45.564 31.4453 45.5369 31.6018 45.5167 31.7684H49.3831V31.5373C49.3765 31.2719 49.3359 31.01 49.2613 30.7582C49.1839 30.5302 49.0686 30.323 48.916 30.1358C48.764 29.9624 48.5714 29.8295 48.3414 29.7344C48.2298 29.6799 48.1012 29.6427 47.9589 29.6188C47.8171 29.595 47.6714 29.5847 47.5191 29.5847C47.2012 29.5847 46.9342 29.6393 46.7139 29.7446C46.6026 29.7991 46.501 29.8602 46.4028 29.9351C46.3078 30.0098 46.2169 30.0916 46.1319 30.1867C45.9662 30.3806 45.8344 30.6086 45.733 30.8772Z" fill="#540A45"/>
<path fill-rule="evenodd" clip-rule="evenodd" d="M59.2823 30.2582L59.2316 30.248C59.14 30.2412 59.0523 30.2378 58.9712 30.2344C58.8861 30.231 58.8018 30.2276 58.7173 30.2276C58.4398 30.2276 58.1896 30.2514 57.9696 30.2991C57.7462 30.3434 57.5503 30.4215 57.3773 30.5268C57.2153 30.6188 57.0662 30.731 56.9376 30.8604C56.8089 30.9896 56.701 31.1427 56.6165 31.3127V36.8336C56.6165 37.0341 56.5789 37.2178 56.5083 37.3913C56.4337 37.5647 56.3358 37.7146 56.2069 37.8438C56.0785 37.9764 55.9294 38.0752 55.7606 38.1499C55.591 38.2215 55.4151 38.2589 55.2292 38.2589C55.0328 38.2589 54.8467 38.2215 54.6779 38.1499C54.5051 38.0752 54.3529 37.973 54.2245 37.8438C54.0956 37.7146 53.9977 37.5647 53.9233 37.3913C53.8525 37.2178 53.8149 37.031 53.8149 36.8336V27.3906V27.4008H54.4004C54.874 27.4077 55.3006 27.5334 55.679 27.7751C56.0612 28.0167 56.349 28.3364 56.5485 28.7344C56.7449 28.3364 57.0326 28.0167 57.4148 27.7751C57.7935 27.5334 58.2235 27.4077 58.6965 27.4008H59.2823V30.2582Z" fill="#540A45"/>
<path fill-rule="evenodd" clip-rule="evenodd" d="M66.4949 34.0507L69.0725 25.4413C69.1641 25.1216 69.3093 24.836 69.5025 24.5875C69.6984 24.3394 69.925 24.1318 70.1891 23.9719C70.4492 23.8087 70.7336 23.6963 71.0449 23.6318C71.356 23.5671 71.6742 23.5637 71.9953 23.6182L72.838 23.7576L68.298 36.8504C68.1591 37.2482 67.926 37.5679 67.5941 37.8027C67.266 38.0375 66.894 38.1565 66.4844 38.1565C66.0685 38.1565 65.6962 38.0375 65.3649 37.7993C65.0365 37.558 64.8031 37.2414 64.6713 36.8504L60.1821 23.8053L60.9464 23.6556C61.2748 23.5978 61.5993 23.5978 61.9176 23.6622C62.232 23.7235 62.5264 23.8391 62.7939 23.9992C63.0611 24.1625 63.2946 24.3697 63.4941 24.6216C63.6902 24.8768 63.8391 25.1658 63.9375 25.489L66.4949 34.0507Z" fill="#540A45"/>
<path fill-rule="evenodd" clip-rule="evenodd" d="M82.6585 36.092C82.6215 36.1499 82.5642 36.2212 82.4965 36.2995C82.4254 36.381 82.3508 36.4628 82.2728 36.5443C82.1951 36.6295 82.114 36.7076 82.0363 36.7859C81.9551 36.8606 81.8874 36.9253 81.8265 36.9798C81.6947 37.092 81.5561 37.201 81.4104 37.3029C81.2647 37.4083 81.1058 37.5003 80.937 37.5886C80.7643 37.6806 80.5818 37.762 80.3886 37.8336C80.199 37.9017 79.9961 37.9628 79.7866 38.0173C79.5736 38.0718 79.35 38.109 79.1166 38.1363C78.8832 38.1635 78.6398 38.1771 78.3894 38.1771C77.5742 38.1771 76.8569 38.0445 76.2276 37.7791C75.9029 37.6465 75.6054 37.49 75.3342 37.3098C75.0641 37.1294 74.8167 36.9287 74.5933 36.7007C74.1436 36.2417 73.8055 35.7041 73.582 35.0852C73.3418 34.4694 73.2236 33.8061 73.2236 33.102V32.7244C73.2236 32.3229 73.2541 31.9453 73.3082 31.5882C73.3655 31.2276 73.4534 30.8806 73.572 30.5507C73.8021 29.8772 74.1231 29.3057 74.5326 28.8329C74.9485 28.3636 75.4597 27.9894 76.0688 27.7171C76.6571 27.452 77.3305 27.3193 78.0916 27.3193C78.8496 27.3193 79.5091 27.4417 80.0641 27.6902C80.3547 27.8227 80.6185 27.9724 80.8559 28.1424C81.0925 28.3125 81.3091 28.5098 81.502 28.7378C81.6979 28.9622 81.8706 29.2106 82.0158 29.4792C82.1615 29.748 82.2833 30.0439 82.3812 30.3636C82.5065 30.7821 82.5913 31.2412 82.6283 31.7415V32.2482C82.6178 32.449 82.5676 32.6358 82.4826 32.8096C82.3949 32.9831 82.2833 33.1327 82.1444 33.2585C82.0061 33.3842 81.847 33.483 81.6676 33.5577C81.4915 33.6292 81.3022 33.6667 81.1024 33.6667H76.038C76.0651 33.8402 76.1026 34 76.1499 34.1531C76.1935 34.3061 76.2515 34.449 76.3156 34.5815C76.4542 34.864 76.6335 35.102 76.8535 35.2959C77.0494 35.4864 77.2998 35.6395 77.6046 35.7519C77.875 35.8572 78.2 35.9117 78.5755 35.9117C79.0861 35.9117 79.5529 35.8197 79.983 35.6326C80.2875 35.5068 80.5579 35.4185 80.7913 35.3742C81.0247 35.3266 81.2376 35.3129 81.4274 35.3334C81.6136 35.3538 81.7858 35.4015 81.9347 35.4796C82.0869 35.5545 82.2292 35.6565 82.3613 35.7825L82.6585 36.092ZM76.2954 30.8772C76.2444 31.01 76.2006 31.1495 76.163 31.2991C76.1263 31.4453 76.0992 31.6018 76.079 31.7684H79.9454V31.5373C79.9389 31.2719 79.8984 31.01 79.8239 30.7582C79.7461 30.5302 79.6309 30.323 79.4784 30.1358C79.3264 29.9624 79.1336 29.8295 78.9037 29.7344C78.7921 29.6799 78.6634 29.6427 78.5211 29.6188C78.3794 29.595 78.2337 29.5847 78.0814 29.5847C77.7634 29.5847 77.4965 29.6393 77.2762 29.7446C77.1649 29.7991 77.0633 29.8602 76.9651 29.9351C76.87 30.0098 76.7792 30.0916 76.6944 30.1867C76.5285 30.3806 76.3967 30.6086 76.2954 30.8772Z" fill="#540A45"/>
<path fill-rule="evenodd" clip-rule="evenodd" d="M92.7366 33.7921C92.9427 34.1629 93.0443 34.6118 93.0443 35.139C93.0443 35.6087 92.9393 36.0405 92.7261 36.425C92.5302 36.8094 92.2357 37.1495 91.8466 37.4419C91.6539 37.5882 91.4444 37.7176 91.211 37.8264C90.9807 37.9352 90.7303 38.0339 90.4599 38.1222C89.922 38.2821 89.3199 38.3604 88.6431 38.3604C87.8852 38.3604 87.2291 38.2551 86.6812 38.0407C86.4037 37.9386 86.1467 37.8264 85.9096 37.6938C85.673 37.5643 85.4562 37.4079 85.2635 37.2208C85.0335 36.9931 84.8403 36.7617 84.688 36.5269C84.5396 36.2889 84.4176 36.0644 84.3331 35.8466C84.2488 35.6323 84.1876 35.4352 84.1537 35.2549C84.1201 35.0746 84.1064 34.9247 84.1064 34.8058L84.1165 33.5301H84.6815C85.0033 33.5301 85.3073 33.5914 85.5914 33.7138C85.8757 33.8364 86.1259 34.0065 86.3462 34.2174C86.5764 34.469 86.7387 34.7785 86.8298 35.1459C86.8435 35.2106 86.8605 35.2785 86.8804 35.3432C86.9009 35.4113 86.9245 35.4656 86.9482 35.5133C87.0498 35.714 87.1881 35.8705 87.3675 35.9929C87.537 36.1052 87.7397 36.197 87.9702 36.2719C88.1963 36.3295 88.4365 36.3602 88.6935 36.3602C89.2349 36.3602 89.6413 36.2548 89.9114 36.0405C90.1827 35.8432 90.321 35.5746 90.321 35.2447C90.321 35.0916 90.2906 34.9554 90.2299 34.8364C90.1792 34.7106 90.0711 34.5948 89.9114 34.4962C89.8272 34.4384 89.7287 34.3807 89.6205 34.333C89.5126 34.2819 89.3871 34.2308 89.2488 34.1766C89.1099 34.1323 88.9508 34.0846 88.7681 34.0437C88.5854 33.9997 88.3895 33.952 88.1795 33.8975C87.9022 33.8398 87.6418 33.7717 87.3948 33.7001C87.1514 33.6254 86.9146 33.5471 86.6812 33.4588C86.4578 33.3736 86.2445 33.2751 86.0482 33.1661C85.8487 33.0573 85.666 32.9384 85.4937 32.8123C85.3346 32.6797 85.1889 32.5369 85.0571 32.3839C84.9253 32.2308 84.8135 32.0676 84.7189 31.8941C84.5362 31.5641 84.4415 31.1661 84.4415 30.6999C84.4415 30.2749 84.5362 29.8564 84.7189 29.445C84.9253 29.0401 85.1989 28.6931 85.5407 28.4075C85.9059 28.1011 86.3496 27.8598 86.8705 27.6795C87.3982 27.506 87.9834 27.4209 88.6263 27.4209C89.3268 27.4209 89.9353 27.5026 90.4599 27.6693C90.7303 27.761 90.9771 27.8666 91.2073 27.9822C91.4341 28.0977 91.644 28.234 91.8366 28.387C92.2121 28.6795 92.5035 29.0333 92.7093 29.4518C92.8991 29.8428 93.0039 30.2715 93.0139 30.7374V32.0914H92.4218C92.0564 32.0914 91.7248 32.0199 91.4242 31.8736C91.1228 31.7274 90.8726 31.5267 90.6662 31.2749C90.6321 31.2408 90.5985 31.1934 90.5615 31.1252C90.5274 31.0605 90.4904 30.9858 90.4599 30.9007C90.426 30.8192 90.3921 30.734 90.3651 30.6457C90.3347 30.5605 90.311 30.479 90.2906 30.3973C90.2569 30.2647 90.2029 30.1354 90.1249 30.0128C90.0506 29.8904 89.9456 29.7817 89.8138 29.6897C89.6615 29.5775 89.4922 29.5026 89.3095 29.472C89.1235 29.4382 88.8933 29.4211 88.6158 29.4211C88.1459 29.4211 87.7839 29.5299 87.5231 29.7511C87.2596 29.9552 87.1275 30.2306 87.1275 30.5673C87.1275 30.7272 87.1645 30.8635 87.2357 30.979C87.2963 31.098 87.405 31.207 87.5641 31.3055C87.6384 31.36 87.7229 31.4109 87.8211 31.4552C87.9227 31.5029 88.0374 31.5505 88.1693 31.5946C88.2947 31.6354 88.4334 31.6763 88.5854 31.7172C88.7376 31.7547 88.9033 31.7919 89.0792 31.826C89.6345 31.9313 90.1653 32.0676 90.6662 32.2342C90.9099 32.3157 91.1364 32.4077 91.3394 32.513C91.5454 32.6221 91.7353 32.7377 91.9146 32.8634C92.0939 32.9892 92.2496 33.1323 92.3848 33.2887C92.52 33.4418 92.6387 33.6119 92.7366 33.7921Z" fill="#540A45"/>
<path fill-rule="evenodd" clip-rule="evenodd" d="M98.7988 36.2448C98.8258 36.2515 98.9004 36.2583 99.0219 36.2686C99.1438 36.2788 99.2724 36.2856 99.4076 36.289C99.5428 36.2924 99.6681 36.2958 99.7867 36.2992C99.9015 36.3026 99.9726 36.3026 99.9996 36.2958V36.8333C99.9996 37.0645 99.9524 37.2788 99.8613 37.4761C99.7662 37.6701 99.6445 37.8435 99.4925 37.9898C99.3402 38.136 99.1643 38.245 98.9579 38.323C98.7516 38.398 98.5386 38.4287 98.315 38.4082C98.1493 38.3946 97.9799 38.3776 97.8111 38.3571C97.6384 38.3367 97.4591 38.3095 97.2766 38.2788C97.097 38.245 96.9382 38.1803 96.7959 38.0851C96.6541 37.9864 96.5221 37.881 96.3969 37.7685C96.16 37.5374 95.9739 37.2413 95.8418 36.8807C95.7712 36.7039 95.7203 36.5034 95.6898 36.2788C95.6591 36.0576 95.6459 35.816 95.6459 35.5577V29.2985H94.228V28.6422C94.228 28.4755 94.2619 28.319 94.3265 28.166C94.3942 28.013 94.4821 27.8804 94.5969 27.768C94.709 27.6558 94.8408 27.5672 94.9965 27.4993C95.1519 27.4346 95.3141 27.4005 95.4869 27.4005H95.6459V24.0942H96.2175C96.495 24.0942 96.7589 24.1488 97.0059 24.2541C97.2527 24.3597 97.4659 24.5025 97.6518 24.6862C97.8348 24.8699 97.9799 25.084 98.0847 25.329C98.1897 25.574 98.2438 25.8358 98.2438 26.1149V27.4005H99.8883V28.047C99.8883 28.2205 99.8579 28.3803 99.7899 28.5334C99.7258 28.6864 99.6344 28.819 99.5229 28.9314C99.411 29.0436 99.2792 29.1319 99.1267 29.2001C98.9747 29.2647 98.8122 29.2985 98.64 29.2985H98.2438V35.2786C98.2438 35.4759 98.264 35.646 98.3049 35.7856C98.3286 35.8467 98.3559 35.9012 98.383 35.9557C98.41 36.0099 98.4467 36.0508 98.4911 36.0849C98.5656 36.1664 98.667 36.2175 98.7988 36.2448Z" fill="#540A45"/>
</g>
<defs>
<clipPath id="clip0_688_960">
<rect width="100" height="38.4146" fill="white"/>
</clipPath>
</defs>
</svg>
