<svg width="20" height="20" viewBox="0 0 20 20" fill="none" xmlns="http://www.w3.org/2000/svg">
<path d="M10.0016 2.72729C8.02654 2.72729 7.77867 2.73593 7.00293 2.77123C6.22871 2.80669 5.70024 2.92926 5.23783 3.10911C4.75952 3.29487 4.35377 3.54336 3.94954 3.94775C3.54501 4.35199 3.29653 4.75775 3.11017 5.23593C2.92987 5.69851 2.80715 6.22714 2.7723 7.00108C2.73761 7.77684 2.72852 8.02487 2.72852 10C2.72852 11.9752 2.7373 12.2223 2.77245 12.9981C2.80806 13.7723 2.93063 14.3008 3.11032 14.7632C3.29623 15.2415 3.5447 15.6473 3.94909 16.0515C4.35316 16.4561 4.75891 16.7052 5.23693 16.8909C5.69964 17.0708 6.22826 17.1934 7.00233 17.2288C7.77806 17.2641 8.02578 17.2727 10.0007 17.2727C11.976 17.2727 12.2231 17.2641 12.9988 17.2288C13.773 17.1934 14.3021 17.0708 14.7648 16.8909C15.243 16.7052 15.6481 16.4561 16.0522 16.0515C16.4567 15.6473 16.7052 15.2415 16.8916 14.7634C17.0704 14.3008 17.1931 13.7721 17.2294 12.9982C17.2643 12.2224 17.2734 11.9752 17.2734 10C17.2734 8.02487 17.2643 7.77699 17.2294 7.00123C17.1931 6.22699 17.0704 5.69851 16.8916 5.23608C16.7052 4.75775 16.4567 4.35199 16.0522 3.94775C15.6477 3.5432 15.2431 3.29472 14.7644 3.10911C14.3007 2.92926 13.772 2.80669 12.9978 2.77123C12.222 2.73593 11.9751 2.72729 9.99936 2.72729H10.0016ZM9.34923 4.0379C9.54286 4.0376 9.75891 4.0379 10.0016 4.0379C11.9434 4.0379 12.1735 4.04487 12.9403 4.07972C13.6494 4.11214 14.0342 4.23063 14.2906 4.33017C14.63 4.46199 14.8719 4.61957 15.1263 4.87411C15.3809 5.12866 15.5384 5.37108 15.6706 5.71048C15.7701 5.96654 15.8887 6.35139 15.921 7.06048C15.9558 7.82714 15.9634 8.05745 15.9634 9.99836C15.9634 11.9393 15.9558 12.1696 15.921 12.9362C15.8886 13.6453 15.7701 14.0302 15.6706 14.2862C15.5387 14.6256 15.3809 14.8673 15.1263 15.1217C14.8718 15.3762 14.6301 15.5338 14.2906 15.6656C14.0345 15.7656 13.6494 15.8838 12.9403 15.9162C12.1737 15.9511 11.9434 15.9587 10.0016 15.9587C8.05972 15.9587 7.82958 15.9511 7.06293 15.9162C6.35386 15.8835 5.96902 15.765 5.71252 15.6655C5.37313 15.5337 5.13072 15.3761 4.87618 15.1215C4.62164 14.867 4.46407 14.6252 4.33195 14.2856C4.23241 14.0296 4.11378 13.6447 4.08151 12.9356C4.04666 12.169 4.03969 11.9387 4.03969 9.99654C4.03969 8.05442 4.04666 7.82533 4.08151 7.05866C4.11393 6.34957 4.23241 5.96472 4.33195 5.70836C4.46377 5.36896 4.62164 5.12654 4.87618 4.87199C5.13072 4.61745 5.37313 4.45987 5.71252 4.32775C5.96887 4.22775 6.35386 4.10957 7.06293 4.07699C7.73382 4.04669 7.99381 4.0376 9.34923 4.03608V4.0379ZM13.8836 5.24548C13.4018 5.24548 13.0109 5.63593 13.0109 6.1179C13.0109 6.59972 13.4018 6.99063 13.8836 6.99063C14.3654 6.99063 14.7563 6.59972 14.7563 6.1179C14.7563 5.63608 14.3654 5.24517 13.8836 5.24517V5.24548ZM10.0016 6.26517C7.93912 6.26517 6.26689 7.93745 6.26689 10C6.26689 12.0626 7.93912 13.7341 10.0016 13.7341C12.0641 13.7341 13.7358 12.0626 13.7358 10C13.7358 7.93745 12.064 6.26517 10.0015 6.26517H10.0016ZM10.0016 7.57578C11.3404 7.57578 12.4258 8.66108 12.4258 10C12.4258 11.3388 11.3404 12.4243 10.0016 12.4243C8.66273 12.4243 7.57746 11.3388 7.57746 10C7.57746 8.66108 8.66273 7.57578 10.0016 7.57578V7.57578Z" fill="black" fill-opacity="0.7"/>
</svg>
