<svg width="20" height="20" viewBox="0 0 20 20" fill="none" xmlns="http://www.w3.org/2000/svg">
<path d="M10.0002 2.72754C8.02507 2.72754 7.7772 2.73618 7.00147 2.77148C6.22725 2.80693 5.69878 2.92951 5.23637 3.10936C4.75805 3.29511 4.3523 3.5436 3.94807 3.94799C3.54354 4.35224 3.29506 4.75799 3.10871 5.23618C2.92841 5.69875 2.80568 6.22739 2.77084 7.00133C2.73614 7.77708 2.72705 8.02512 2.72705 10.0003C2.72705 11.9754 2.73584 12.2225 2.77099 12.9983C2.80659 13.7725 2.92917 14.301 3.10886 14.7634C3.29476 15.2418 3.54324 15.6475 3.94762 16.0518C4.3517 16.4563 4.75744 16.7054 5.23546 16.8912C5.69817 17.071 6.22679 17.1936 7.00086 17.2291C7.7766 17.2644 8.02432 17.273 9.99926 17.273C11.9745 17.273 12.2216 17.2644 12.9973 17.2291C13.7716 17.1936 14.3006 17.071 14.7634 16.8912C15.2415 16.7054 15.6467 16.4563 16.0507 16.0518C16.4553 15.6475 16.7037 15.2418 16.8901 14.7636C17.0689 14.301 17.1916 13.7724 17.228 12.9984C17.2628 12.2227 17.2719 11.9754 17.2719 10.0003C17.2719 8.02512 17.2628 7.77724 17.228 7.00148C17.1916 6.22724 17.0689 5.69875 16.8901 5.23633C16.7037 4.75799 16.4553 4.35224 16.0507 3.94799C15.6462 3.54345 15.2417 3.29496 14.7629 3.10936C14.2993 2.92951 13.7705 2.80693 12.9963 2.77148C12.2206 2.73618 11.9736 2.72754 9.99789 2.72754H10.0002ZM9.34776 4.03815C9.54139 4.03784 9.75744 4.03815 10.0002 4.03815C11.9419 4.03815 12.1721 4.04511 12.9389 4.07996C13.6479 4.11239 14.0328 4.23087 14.2891 4.33042C14.6285 4.46224 14.8705 4.61981 15.1249 4.87436C15.3794 5.1289 15.537 5.37133 15.6691 5.71072C15.7686 5.96678 15.8873 6.35163 15.9195 7.06072C15.9544 7.82739 15.962 8.05769 15.962 9.9986C15.962 11.9395 15.9544 12.1698 15.9195 12.9365C15.8871 13.6456 15.7686 14.0304 15.6691 14.2865C15.5373 14.6259 15.3794 14.8675 15.1249 15.1219C14.8703 15.3765 14.6287 15.5341 14.2891 15.6659C14.0331 15.7659 13.6479 15.8841 12.9389 15.9165C12.1722 15.9513 11.9419 15.9589 10.0002 15.9589C8.05825 15.9589 7.82811 15.9513 7.06147 15.9165C6.3524 15.8838 5.96756 15.7653 5.71105 15.6657C5.37167 15.5339 5.12925 15.3763 4.87471 15.1218C4.62018 14.8672 4.4626 14.6254 4.33049 14.2859C4.23094 14.0298 4.11231 13.645 4.08004 12.9359C4.04519 12.1692 4.03822 11.9389 4.03822 9.99678C4.03822 8.05466 4.04519 7.82557 4.08004 7.0589C4.11246 6.34981 4.23094 5.96496 4.33049 5.7086C4.4623 5.36921 4.62018 5.12678 4.87471 4.87224C5.12925 4.61769 5.37167 4.46011 5.71105 4.32799C5.96741 4.22799 6.3524 4.10981 7.06147 4.07724C7.73235 4.04693 7.99235 4.03784 9.34776 4.03633V4.03815ZM13.8822 5.24572C13.4004 5.24572 13.0095 5.63618 13.0095 6.11814C13.0095 6.59996 13.4004 6.99087 13.8822 6.99087C14.364 6.99087 14.7549 6.59996 14.7549 6.11814C14.7549 5.63633 14.364 5.24542 13.8822 5.24542V5.24572ZM10.0002 6.26542C7.93765 6.26542 6.26543 7.93769 6.26543 10.0003C6.26543 12.0628 7.93765 13.7344 10.0002 13.7344C12.0627 13.7344 13.7343 12.0628 13.7343 10.0003C13.7343 7.93769 12.0625 6.26542 10 6.26542H10.0002ZM10.0002 7.57602C11.3389 7.57602 12.4243 8.66133 12.4243 10.0003C12.4243 11.3391 11.3389 12.4245 10.0002 12.4245C8.66127 12.4245 7.576 11.3391 7.576 10.0003C7.576 8.66133 8.66127 7.57602 10.0002 7.57602Z" fill="white"/>
</svg>
