<svg width="31" height="30" viewBox="0 0 31 30" fill="none" xmlns="http://www.w3.org/2000/svg">
<path d="M15.5713 11.25C14.5767 11.25 13.6229 11.6451 12.9196 12.3483C12.2164 13.0516 11.8213 14.0054 11.8213 15C11.8213 15.9946 12.2164 16.9484 12.9196 17.6517C13.6229 18.3549 14.5767 18.75 15.5713 18.75C16.5659 18.75 17.5197 18.3549 18.2229 17.6517C18.9262 16.9484 19.3213 15.9946 19.3213 15C19.3213 14.0054 18.9262 13.0516 18.2229 12.3483C17.5197 11.6451 16.5659 11.25 15.5713 11.25ZM15.5713 8.75C17.2289 8.75 18.8186 9.40848 19.9907 10.5806C21.1628 11.7527 21.8213 13.3424 21.8213 15C21.8213 16.6576 21.1628 18.2473 19.9907 19.4194C18.8186 20.5915 17.2289 21.25 15.5713 21.25C13.9137 21.25 12.324 20.5915 11.1519 19.4194C9.97977 18.2473 9.32129 16.6576 9.32129 15C9.32129 13.3424 9.97977 11.7527 11.1519 10.5806C12.324 9.40848 13.9137 8.75 15.5713 8.75ZM23.6963 8.4375C23.6963 8.8519 23.5317 9.24933 23.2386 9.54235C22.9456 9.83538 22.5482 10 22.1338 10C21.7194 10 21.322 9.83538 21.0289 9.54235C20.7359 9.24933 20.5713 8.8519 20.5713 8.4375C20.5713 8.0231 20.7359 7.62567 21.0289 7.33265C21.322 7.03962 21.7194 6.875 22.1338 6.875C22.5482 6.875 22.9456 7.03962 23.2386 7.33265C23.5317 7.62567 23.6963 8.0231 23.6963 8.4375ZM15.5713 5C12.4788 5 11.9738 5.00875 10.535 5.0725C9.55504 5.11875 8.89754 5.25 8.28754 5.4875C7.74504 5.6975 7.35379 5.94875 6.93754 6.36625C6.5463 6.74425 6.24548 7.20573 6.05754 7.71625C5.82004 8.32875 5.68879 8.985 5.64379 9.96375C5.57879 11.3438 5.57129 11.8263 5.57129 15C5.57129 18.0925 5.58004 18.5975 5.64379 20.0362C5.69004 21.015 5.82129 21.6737 6.05754 22.2825C6.27004 22.8263 6.52004 23.2175 6.93504 23.6325C7.35629 24.0525 7.74754 24.3037 8.28504 24.5112C8.90254 24.75 9.56004 24.8825 10.535 24.9275C11.915 24.9925 12.3975 25 15.5713 25C18.6638 25 19.1688 24.9912 20.6075 24.9275C21.585 24.8812 22.2438 24.75 22.8538 24.5138C23.395 24.3025 23.7888 24.0513 24.2038 23.6362C24.625 23.215 24.8763 22.8238 25.0838 22.2863C25.3213 21.67 25.4538 21.0112 25.4988 20.0362C25.5638 18.6562 25.5713 18.1737 25.5713 15C25.5713 11.9075 25.5625 11.4025 25.4988 9.96375C25.4525 8.98625 25.3213 8.32625 25.0838 7.71625C24.8954 7.20625 24.5951 6.74495 24.205 6.36625C23.8272 5.97481 23.3657 5.67396 22.855 5.48625C22.2425 5.24875 21.585 5.1175 20.6075 5.0725C19.2275 5.0075 18.745 5 15.5713 5ZM15.5713 2.5C18.9675 2.5 19.3913 2.5125 20.7238 2.575C22.055 2.6375 22.9613 2.84625 23.7588 3.15625C24.5838 3.47375 25.2788 3.90375 25.9738 4.5975C26.6094 5.22237 27.1012 5.97824 27.415 6.8125C27.7238 7.60875 27.9338 8.51625 27.9963 9.8475C28.055 11.18 28.0713 11.6038 28.0713 15C28.0713 18.3962 28.0588 18.82 27.9963 20.1525C27.9338 21.4837 27.7238 22.39 27.415 23.1875C27.1021 24.0222 26.6102 24.7783 25.9738 25.4025C25.3487 26.0379 24.5929 26.5297 23.7588 26.8438C22.9625 27.1525 22.055 27.3625 20.7238 27.425C19.3913 27.4838 18.9675 27.5 15.5713 27.5C12.175 27.5 11.7513 27.4875 10.4188 27.425C9.08754 27.3625 8.18129 27.1525 7.38379 26.8438C6.5492 26.5306 5.7932 26.0387 5.16879 25.4025C4.53305 24.7777 4.0412 24.0218 3.72754 23.1875C3.41754 22.3912 3.20879 21.4837 3.14629 20.1525C3.08754 18.82 3.07129 18.3962 3.07129 15C3.07129 11.6038 3.08379 11.18 3.14629 9.8475C3.20879 8.515 3.41754 7.61 3.72754 6.8125C4.04033 5.97772 4.53229 5.22165 5.16879 4.5975C5.79338 3.96154 6.54932 3.46966 7.38379 3.15625C8.18129 2.84625 9.08629 2.6375 10.4188 2.575C11.7513 2.51625 12.175 2.5 15.5713 2.5Z" fill="#540A45"/>
</svg>
