<svg width="32" height="32" viewBox="0 0 32 32" fill="none" xmlns="http://www.w3.org/2000/svg">
<circle r="16" transform="matrix(-1 0 0 1 16 16)" fill="#FB528D"/>
<path d="M18.1608 21.6534H22.8316C22.9243 21.6534 23 21.5778 23 21.485V19.9404C23 19.8476 22.9243 19.772 22.8316 19.772H18.1608C18.068 19.772 17.9923 19.8476 17.9923 19.9404V21.485C17.9923 21.5778 18.068 21.6534 18.1608 21.6534Z" fill="url(#paint0_linear_396_1488)"/>
<path d="M18.1608 23.9862H22.8316C22.9243 23.9862 23 23.9105 23 23.8177V22.2732C23 22.1804 22.9243 22.1047 22.8316 22.1047H18.1608C18.068 22.1047 17.9923 22.1804 17.9923 22.2732V23.8177C17.9923 23.9105 18.068 23.9862 18.1608 23.9862Z" fill="url(#paint1_linear_396_1488)"/>
<path opacity="0.75" d="M13.3102 23.9862H17.981C18.0738 23.9862 18.1494 23.9105 18.1494 23.8177V22.2732C18.1494 22.1804 18.0738 22.1047 17.981 22.1047H13.3102C13.2174 22.1047 13.1417 22.1804 13.1417 22.2732V23.8177C13.1403 23.9105 13.216 23.9862 13.3102 23.9862Z" fill="white"/>
<path opacity="0.75" d="M13.3102 21.6534H17.981C18.0738 21.6534 18.1494 21.5778 18.1494 21.485V19.9404C18.1494 19.8476 18.0738 19.772 17.981 19.772H13.3102C13.2174 19.772 13.1417 19.8476 13.1417 19.9404V21.485C13.1403 21.5778 13.216 21.6534 13.3102 21.6534Z" fill="white"/>
<path opacity="0.75" d="M13.3102 19.3211H17.981C18.0738 19.3211 18.1494 19.2455 18.1494 19.1527V17.6081C18.1494 17.5154 18.0738 17.4397 17.981 17.4397H13.3102C13.2174 17.4397 13.1417 17.5154 13.1417 17.6081V19.1527C13.1403 19.2455 13.216 19.3211 13.3102 19.3211Z" fill="white"/>
<path d="M8.42834 23.9862H13.0991C13.1919 23.9862 13.2676 23.9105 13.2676 23.8177V22.2732C13.2676 22.1804 13.1919 22.1047 13.0991 22.1047H8.42834C8.33555 22.1047 8.2599 22.1804 8.2599 22.2732V23.8177C8.25847 23.9105 8.33413 23.9862 8.42834 23.9862Z" fill="url(#paint2_linear_396_1488)"/>
<path d="M8.42834 21.6534H13.0991C13.1919 21.6534 13.2676 21.5778 13.2676 21.485V19.9404C13.2676 19.8476 13.1919 19.772 13.0991 19.772H8.42834C8.33555 19.772 8.2599 19.8476 8.2599 19.9404V21.485C8.25847 21.5778 8.33413 21.6534 8.42834 21.6534Z" fill="url(#paint3_linear_396_1488)"/>
<path d="M8.42834 19.3211H13.0991C13.1919 19.3211 13.2676 19.2455 13.2676 19.1527V17.6081C13.2676 17.5154 13.1919 17.4397 13.0991 17.4397H8.42834C8.33555 17.4397 8.2599 17.5154 8.2599 17.6081V19.1527C8.25847 19.2455 8.33413 19.3211 8.42834 19.3211Z" fill="url(#paint4_linear_396_1488)"/>
<path opacity="0.75" d="M13.3102 16.9872H17.981C18.0738 16.9872 18.1494 16.9115 18.1494 16.8187V15.2742C18.1494 15.1814 18.0738 15.1057 17.981 15.1057H13.3102C13.2174 15.1057 13.1417 15.1814 13.1417 15.2742V16.8187C13.1403 16.9129 13.216 16.9872 13.3102 16.9872Z" fill="white"/>
<path opacity="0.75" d="M13.3102 14.6688H17.981C18.0738 14.6688 18.1494 14.5931 18.1494 14.5004V12.9558C18.1494 12.863 18.0738 12.7874 17.981 12.7874H13.3102C13.2174 12.7874 13.1417 12.863 13.1417 12.9558V14.5004C13.1403 14.5931 13.216 14.6688 13.3102 14.6688Z" fill="white"/>
<path d="M14.1079 10.4262C14.569 10.7374 15.1214 10.8074 15.6182 10.6646C15.5639 10.1521 15.2913 9.66678 14.8288 9.35559C14.3662 9.04439 13.8152 8.97445 13.3185 9.1172C13.3741 9.62967 13.6454 10.115 14.1079 10.4262Z" fill="url(#paint5_linear_396_1488)"/>
<path d="M17.193 9.37983C16.7319 9.69103 16.1795 9.76097 15.6827 9.61822C15.737 9.10575 16.0096 8.6204 16.4721 8.3092C16.9332 7.99801 17.4857 7.92806 17.9824 8.07081C17.9267 8.58328 17.6541 9.06864 17.193 9.37983Z" fill="url(#paint6_linear_396_1488)"/>
<path d="M17.2155 11.3969C16.7544 11.7081 16.2019 11.7781 15.7052 11.6353C15.7594 11.1228 16.0321 10.6375 16.4946 10.3263C16.9557 10.0151 17.5081 9.94515 18.0049 10.0879C17.9492 10.6004 17.6766 11.0857 17.2155 11.3969Z" fill="url(#paint7_linear_396_1488)"/>
<path d="M15.6826 9.12549V13.0611" stroke="url(#paint8_linear_396_1488)" stroke-width="0.0787268" stroke-miterlimit="10"/>
<path opacity="0.4" d="M20.5119 19.4482C19.4775 19.4482 18.639 18.6096 18.639 17.5753C18.639 16.5409 19.4775 15.7024 20.5119 15.7024C21.5462 15.7024 22.3848 16.5409 22.3848 17.5753C22.3848 18.6096 21.5462 19.4482 20.5119 19.4482Z" fill="url(#paint9_linear_396_1488)"/>
<path d="M20.5116 19.121C19.6578 19.121 18.9656 18.4289 18.9656 17.575C18.9656 16.7212 19.6578 16.0291 20.5116 16.0291C21.3655 16.0291 22.0576 16.7212 22.0576 17.575C22.0576 18.4289 21.3655 19.121 20.5116 19.121Z" fill="url(#paint10_linear_396_1488)"/>
<path d="M19.7099 17.5408V17.3224H19.8613V16.8042H20.0797V17.3224H20.5736L20.969 16.8314C20.9975 16.7957 21.0461 16.7814 21.0903 16.7971C21.1346 16.8128 21.1631 16.8542 21.1631 16.8999V17.3224H21.3145V17.5408H21.1631V17.6179H21.3145V17.8363H21.1631V18.3459H20.9447V17.8363H20.4394L20.0554 18.3117C20.034 18.3374 20.0026 18.3517 19.9712 18.3517C19.9598 18.3517 19.9469 18.3502 19.9355 18.3459C19.8912 18.3302 19.8627 18.2888 19.8627 18.2432V17.8363H19.7114V17.6179H19.8627V17.5408H19.7099ZM20.9447 17.2097L20.8534 17.3224H20.9447V17.2097ZM20.9447 17.6179V17.5408H20.6778L20.615 17.6179H20.9447ZM20.0797 17.9334L20.1596 17.8349H20.0797V17.9334ZM20.0797 17.6179H20.3352L20.398 17.5408H20.0811V17.6179H20.0797Z" fill="#540A45"/>
<defs>
<linearGradient id="paint0_linear_396_1488" x1="22.9998" y1="20.7126" x2="17.9919" y2="20.7126" gradientUnits="userSpaceOnUse">
<stop stop-color="white" stop-opacity="0.8"/>
<stop offset="1" stop-color="white" stop-opacity="0.1"/>
</linearGradient>
<linearGradient id="paint1_linear_396_1488" x1="22.9998" y1="23.0458" x2="17.9919" y2="23.0458" gradientUnits="userSpaceOnUse">
<stop stop-color="white" stop-opacity="0.8"/>
<stop offset="1" stop-color="white" stop-opacity="0.1"/>
</linearGradient>
<linearGradient id="paint2_linear_396_1488" x1="8.25911" y1="23.0458" x2="13.267" y2="23.0458" gradientUnits="userSpaceOnUse">
<stop stop-color="white" stop-opacity="0.8"/>
<stop offset="1" stop-color="white" stop-opacity="0.1"/>
</linearGradient>
<linearGradient id="paint3_linear_396_1488" x1="8.25911" y1="20.7126" x2="13.267" y2="20.7126" gradientUnits="userSpaceOnUse">
<stop stop-color="white" stop-opacity="0.8"/>
<stop offset="1" stop-color="white" stop-opacity="0.1"/>
</linearGradient>
<linearGradient id="paint4_linear_396_1488" x1="8.25911" y1="18.3799" x2="13.267" y2="18.3799" gradientUnits="userSpaceOnUse">
<stop stop-color="white" stop-opacity="0.8"/>
<stop offset="1" stop-color="white" stop-opacity="0.1"/>
</linearGradient>
<linearGradient id="paint5_linear_396_1488" x1="13.3096" y1="9.87344" x2="15.608" y2="9.87342" gradientUnits="userSpaceOnUse">
<stop stop-color="white" stop-opacity="0.8"/>
<stop offset="1" stop-color="white" stop-opacity="0.1"/>
</linearGradient>
<linearGradient id="paint6_linear_396_1488" x1="16.8034" y1="7.98265" x2="16.8034" y2="9.67099" gradientUnits="userSpaceOnUse">
<stop stop-color="white" stop-opacity="0.8"/>
<stop offset="1" stop-color="white" stop-opacity="0.1"/>
</linearGradient>
<linearGradient id="paint7_linear_396_1488" x1="16.8266" y1="9.99961" x2="16.8266" y2="11.6879" gradientUnits="userSpaceOnUse">
<stop stop-color="white" stop-opacity="0.8"/>
<stop offset="1" stop-color="white" stop-opacity="0.1"/>
</linearGradient>
<linearGradient id="paint8_linear_396_1488" x1="-nan" y1="-nan" x2="-nan" y2="-nan" gradientUnits="userSpaceOnUse">
<stop stop-color="white" stop-opacity="0.8"/>
<stop offset="1" stop-color="white" stop-opacity="0"/>
</linearGradient>
<linearGradient id="paint9_linear_396_1488" x1="22.3856" y1="17.5749" x2="18.6388" y2="17.5749" gradientUnits="userSpaceOnUse">
<stop stop-color="white" stop-opacity="0.8"/>
<stop offset="1" stop-color="white" stop-opacity="0"/>
</linearGradient>
<linearGradient id="paint10_linear_396_1488" x1="22.0583" y1="17.5746" x2="18.9655" y2="17.5746" gradientUnits="userSpaceOnUse">
<stop stop-color="white" stop-opacity="0.8"/>
<stop offset="1" stop-color="white" stop-opacity="0"/>
</linearGradient>
</defs>
</svg>
