<svg xmlns="http://www.w3.org/2000/svg" viewBox="0 0 61.73 52.69"><defs><style>.cls-1{fill:#00194f;}</style></defs><title>like-icon</title><g id="Layer_2" data-name="Layer 2"><g id="Layer_1-2" data-name="Layer 1"><path class="cls-1" d="M30.87,52.69l-24-19.43a18.27,18.27,0,0,1-6-8.59,19.44,19.44,0,0,1,5.15-20,17.15,17.15,0,0,1,18.4-3.34c3,1.18,5.26,4.12,6.39,5.82,1.14-1.71,3.45-4.67,6.4-5.82A17.15,17.15,0,0,1,55.66,4.7a19.42,19.42,0,0,1,5.16,20,18,18,0,0,1-6,8.59Zm-13.21-51A15,15,0,0,0,7.27,5.93a17.68,17.68,0,0,0-4.69,18.2A16.74,16.74,0,0,0,8,31.9L30.87,50.43,53.74,31.9a16.16,16.16,0,0,0,5.4-7.76A17.65,17.65,0,0,0,54.46,6,15.25,15.25,0,0,0,37.9,3c-3.57,1.37-6.24,6.22-6.26,6.27l-.77,1.4-.77-1.4c0-.05-2.7-4.86-6.27-6.28A16.92,16.92,0,0,0,17.66,1.73Z"/></g></g></svg>