<svg width="16" height="16" viewBox="0 0 16 16" fill="none" xmlns="http://www.w3.org/2000/svg">
<g clip-path="url(#clip0_527_1179)">
<path d="M13.4281 13.5205H11.0534V9.83827C11.0534 8.96021 11.0376 7.82988 9.81832 7.82988C8.58151 7.82988 8.39227 8.78656 8.39227 9.77434V13.5202H6.01759V5.94812H8.29728V6.98293H8.32919C8.55734 6.59669 8.88701 6.27895 9.2831 6.06356C9.67919 5.84816 10.1269 5.74317 10.5785 5.75977C12.9853 5.75977 13.4291 7.32729 13.4291 9.36654L13.4281 13.5205ZM3.33818 4.91306C3.06562 4.91311 2.79917 4.83313 2.57252 4.68324C2.34588 4.53335 2.16922 4.32028 2.06488 4.07097C1.96053 3.82167 1.93318 3.54732 1.98631 3.28263C2.03943 3.01793 2.17064 2.77478 2.36333 2.58392C2.55602 2.39306 2.80154 2.26307 3.06885 2.21037C3.33615 2.15767 3.61323 2.18465 3.86506 2.28787C4.11688 2.3911 4.33213 2.56595 4.4836 2.79031C4.63506 3.01468 4.71593 3.27847 4.71598 3.54834C4.71601 3.72752 4.6804 3.90496 4.61117 4.07052C4.54195 4.23608 4.44048 4.38652 4.31254 4.51324C4.1846 4.63997 4.03269 4.7405 3.86551 4.8091C3.69833 4.87771 3.51914 4.91303 3.33818 4.91306ZM4.52551 13.5205H2.14837V5.94812H4.52551V13.5205ZM14.6119 0.00059286H0.955099C0.645127 -0.00287072 0.346433 0.115658 0.124677 0.330132C-0.0970795 0.544606 -0.223756 0.837479 -0.227539 1.14439V14.7228C-0.223886 15.0299 -0.0972833 15.323 0.124465 15.5377C0.346214 15.7524 0.644974 15.8711 0.955099 15.8678H14.6119C14.9227 15.8717 15.2223 15.7533 15.4449 15.5386C15.6675 15.3239 15.795 15.0305 15.7993 14.7228V1.14342C15.7948 0.835891 15.6673 0.542685 15.4447 0.328216C15.222 0.113747 14.9225 -0.00444311 14.6119 -0.000387238" fill="white"/>
</g>
<defs>
<clipPath id="clip0_527_1179">
<rect width="16" height="16" fill="white"/>
</clipPath>
</defs>
</svg>
