<svg width="16" height="16" viewBox="0 0 16 16" fill="none" xmlns="http://www.w3.org/2000/svg">
<g clip-path="url(#clip0_694_1344)">
<path d="M13.4271 13.5207H11.0524V9.83851C11.0524 8.96046 11.0366 7.83012 9.81734 7.83012C8.58053 7.83012 8.3913 8.7868 8.3913 9.77459V13.5205H6.01662V5.94836H8.2963V6.98317H8.32822C8.55636 6.59693 8.88604 6.2792 9.28213 6.0638C9.67822 5.84841 10.1259 5.74342 10.5775 5.76002C12.9843 5.76002 13.4281 7.32754 13.4281 9.36679L13.4271 13.5207ZM3.3372 4.91331C3.06465 4.91336 2.79819 4.83338 2.57155 4.68349C2.3449 4.5336 2.16825 4.32052 2.0639 4.07122C1.95955 3.82191 1.93221 3.54756 1.98533 3.28287C2.03845 3.01818 2.16966 2.77503 2.36235 2.58417C2.55504 2.39331 2.80056 2.26331 3.06787 2.21061C3.33518 2.15792 3.61226 2.18489 3.86408 2.28812C4.11591 2.39135 4.33116 2.5662 4.48262 2.79056C4.63408 3.01492 4.71496 3.27871 4.71501 3.54858C4.71504 3.72777 4.67942 3.90521 4.6102 4.07076C4.54097 4.23632 4.43951 4.38676 4.31156 4.51349C4.18362 4.64021 4.03171 4.74075 3.86453 4.80935C3.69735 4.87795 3.51817 4.91328 3.3372 4.91331V4.91331ZM4.52453 13.5207H2.14739V5.94836H4.52453V13.5207ZM14.611 0.000837001H0.954123C0.644151 -0.00262658 0.345456 0.115902 0.1237 0.330376C-0.098056 0.54485 -0.224733 0.837723 -0.228516 1.14464V14.7231C-0.224862 15.0301 -0.0982598 15.3232 0.123489 15.5379C0.345237 15.7526 0.643997 15.8714 0.954123 15.8681H14.611C14.9217 15.8719 15.2213 15.7535 15.4439 15.5388C15.6665 15.3241 15.794 15.0307 15.7983 14.7231V1.14366C15.7939 0.836135 15.6663 0.542929 15.4437 0.32846C15.2211 0.113991 14.9215 -0.00419897 14.611 -0.000143097" fill="black" fill-opacity="0.7"/>
</g>
<defs>
<clipPath id="clip0_694_1344">
<rect width="16" height="16" fill="white"/>
</clipPath>
</defs>
</svg>
