<svg width="29" height="29" viewBox="0 0 29 29" fill="none" xmlns="http://www.w3.org/2000/svg">
<path d="M24.3698 24.1869H20.2972V17.8038C20.2972 16.2818 20.2667 14.3227 18.1731 14.3227C16.0505 14.3227 15.7265 15.9792 15.7265 17.6923V24.1869H11.6525V11.0616H15.5646V12.8496H15.618C16.1651 11.8196 17.4946 10.73 19.4812 10.73C23.6072 10.73 24.3713 13.4471 24.3713 16.9817V24.1869H24.3698ZM7.05274 9.26604C6.74185 9.26644 6.43393 9.20547 6.14665 9.08664C5.85936 8.9678 5.59835 8.79344 5.37859 8.57353C5.15882 8.35362 4.98462 8.0925 4.86597 7.80514C4.74732 7.51778 4.68656 7.20982 4.68716 6.89893C4.68746 6.43106 4.8265 5.97379 5.08668 5.58494C5.34687 5.19609 5.71652 4.89312 6.14889 4.71436C6.58126 4.53559 7.05692 4.48905 7.51574 4.58063C7.97456 4.6722 8.39592 4.89777 8.72654 5.22882C9.05716 5.55986 9.28219 5.98151 9.37317 6.44045C9.46415 6.89939 9.41699 7.375 9.23767 7.80714C9.05834 8.23927 8.7549 8.60853 8.36572 8.86821C7.97653 9.12789 7.51908 9.26634 7.05122 9.26604H7.05274ZM9.09436 24.1869H5.0096V11.0616H9.09588V24.1869H9.09436ZM26.4099 0.746582H2.96646C1.84174 0.746582 0.935547 1.63291 0.935547 2.7286V26.2713C0.935547 27.367 1.84327 28.2533 2.96493 28.2533H26.4037C27.5254 28.2533 28.4423 27.367 28.4423 26.2713V2.7286C28.4423 1.63291 27.5254 0.746582 26.4037 0.746582H26.4083H26.4099Z" fill="#FFF1F6"/>
</svg>
