<svg width="239" height="394" viewBox="0 0 239 394" fill="none" xmlns="http://www.w3.org/2000/svg">
<path d="M178.57 0.29248H35.4648V393.504H178.57V0.29248Z" fill="white"/>
<path d="M165.396 294.77L45.3965 323.63L0.148438 135.452L120.148 106.591C127.684 104.78 135.25 109.425 137.061 116.961L175.766 277.856C177.577 285.393 172.932 292.959 165.396 294.77Z" fill="#003B35"/>
<path d="M48.2885 318.927L4.85156 138.344L121.054 110.389C126.487 109.074 131.949 112.434 133.264 117.867L171.969 278.762C173.283 284.195 169.924 289.658 164.491 290.972L48.2885 318.927Z" fill="#003B35"/>
<path d="M80.9749 177.633C60.3811 182.599 47.7326 203.281 52.6693 223.874C57.606 244.468 78.3167 257.117 98.9106 252.18C119.504 247.214 132.153 226.533 127.216 205.939C122.25 185.374 101.569 172.697 80.9749 177.633ZM97.45 246.104C80.2447 250.252 62.9225 239.649 58.7745 222.443C54.6265 205.238 65.2301 187.916 82.4355 183.768C99.6408 179.62 116.963 190.223 121.111 207.429C125.259 224.634 114.655 241.956 97.45 246.104Z" fill="url(#paint0_linear_721_1021)"/>
<path d="M92.4853 184.848L94.1795 191.83C106.39 194.05 116.03 205.88 112.846 221.012C111.882 225.598 109.282 229.746 105.601 232.667C90.5281 244.643 71.0151 236.435 67.1592 220.398C64.91 211.08 68.5613 201.732 75.7181 196.27L74.0238 189.288C59.9148 198.052 54.3646 217.798 66.312 233.981C70.5184 239.678 76.8282 243.504 83.8096 244.673C107.354 248.529 124.15 228.139 119.301 207.896C116.146 194.897 105.075 185.9 92.4853 184.848ZM92.2808 191.567L90.6449 184.761C88.1036 184.702 85.5039 184.965 82.9041 185.579C80.3043 186.192 77.8796 187.156 75.6304 188.354L77.2662 195.16C79.4278 193.787 81.8232 192.735 84.4814 192.093C87.0812 191.479 89.7102 191.304 92.2808 191.567Z" fill="url(#paint1_linear_721_1021)"/>
<path d="M114.731 126.584L27.9062 147.471L31.179 161.075L118.004 140.188L114.731 126.584Z" fill="white"/>
<path d="M93.8585 201.294C93.099 200.272 89.4768 200.915 88.3376 200.944C88.6297 202.171 87.5488 202.258 86.468 202.2C86.7017 202.2 84.5985 201.703 84.8614 201.849C84.1604 201.47 84.3356 200.739 83.7222 200.535C83.8098 200.36 83.9559 200.243 84.1312 200.155C82.7874 198.753 77.2958 202.959 76.4778 203.164C76.7115 203.573 75.6307 205.793 75.3678 206.465C75.0757 207.224 73.4691 209.649 73.9072 210.496C74.0241 210.73 74.579 210.145 74.7251 210.642C74.9003 211.314 74.7544 212.278 75.0465 212.891C75.5723 213.943 77.8507 215.696 79.1067 215.929C81.4728 216.397 84.2187 212.833 86.614 214.498C87.1106 214.848 86.6141 214.498 87.2568 215.199C87.4028 215.637 87.3736 216.075 87.2275 216.484C86.9646 216.922 87.1399 217.127 87.7533 217.068C88.5712 218.471 90.0902 219.113 90.3239 221.041C90.5576 223.115 90.3824 223.495 91.6384 225.423C92.3103 226.474 94.0044 229.658 94.9976 230.097C96.3121 230.71 98.2109 228.987 98.8827 228.023C99.4086 227.292 99.4669 226.562 99.7298 225.832C99.7006 225.54 99.6422 225.248 99.5253 224.955C99.8174 224.663 100.11 224.4 100.373 224.108C100.373 223.437 99.6714 222.765 99.7883 222.239C99.9343 221.421 100.84 221.187 101.161 220.515C102.184 218.471 100.606 217.828 100.314 216.075C99.9635 213.884 105.163 208.247 102.563 207.604C102.038 207.458 101.307 208.13 100.694 208.042C100.11 207.955 99.0581 207.283 98.5615 206.932C96.5459 205.413 95.8449 202.843 93.8585 201.294Z" fill="url(#paint2_linear_721_1021)"/>
<path d="M113.382 146.055L37.9463 164.202L39.0395 168.746L114.475 150.599L113.382 146.055Z" fill="white"/>
<path d="M153.918 255.692L67.0928 276.579L68.186 281.123L155.011 260.236L153.918 255.692Z" fill="white"/>
<path d="M150.402 266.118L74.9658 284.265L76.059 288.809L151.495 270.662L150.402 266.118Z" fill="white"/>
<path opacity="0.3" d="M101.161 150.817L63.7119 319.248L124.997 304.497L101.161 150.817Z" fill="#540445"/>
<path d="M201.618 357.165L79.0186 343.056L101.131 150.788L223.731 164.897C231.413 165.774 236.934 172.726 236.058 180.438L217.129 344.838C216.282 352.55 209.329 358.071 201.618 357.165Z" fill="#B50182"/>
<path d="M83.3418 339.638L104.578 155.111L223.322 168.782C228.872 169.425 232.874 174.449 232.231 179.999L213.302 344.4C212.66 349.95 207.635 353.952 202.085 353.309L83.3418 339.638Z" fill="#B50182"/>
<path d="M162.562 218.178C141.53 215.754 122.514 230.856 120.09 251.888C117.665 272.92 132.767 291.936 153.799 294.361C174.831 296.786 193.848 281.683 196.272 260.651C198.697 239.619 183.594 220.603 162.562 218.178ZM154.529 288.11C136.944 286.094 124.325 270.174 126.341 252.589C128.356 235.004 144.276 222.385 161.861 224.4C179.447 226.416 192.066 242.336 190.05 259.921C188.005 277.506 172.115 290.125 154.529 288.11Z" fill="url(#paint3_linear_721_1021)"/>
<path d="M170.888 228.899L170.07 236.027C180.761 242.307 185.757 256.737 177.577 269.824C175.094 273.797 171.239 276.805 166.769 278.295C148.512 284.371 133.001 269.97 134.871 253.583C135.952 244.06 142.612 236.552 151.2 233.865L152.018 226.737C135.747 230.126 123.741 246.776 129.437 266.056C131.424 272.833 136.039 278.616 142.203 282.093C163.001 293.806 185.786 280.428 188.152 259.717C189.7 246.455 182.368 234.216 170.888 228.899ZM168.405 235.121L169.194 228.14C166.828 227.205 164.286 226.562 161.628 226.27C158.97 225.978 156.37 226.007 153.858 226.387L153.069 233.368C155.552 232.813 158.21 232.638 160.898 232.959C163.556 233.252 166.097 234.011 168.405 235.121Z" fill="url(#paint4_linear_721_1021)"/>
<path d="M211.658 181.726L122.949 171.52L121.35 185.419L210.059 195.626L211.658 181.726Z" fill="white"/>
<path d="M166.535 244.82C166.185 243.593 162.533 242.979 161.482 242.6C161.336 243.856 160.284 243.564 159.291 243.125C159.495 243.213 157.713 242.015 157.918 242.22C157.363 241.606 157.801 241.022 157.304 240.584C157.45 240.438 157.626 240.38 157.83 240.38C157.042 238.598 150.44 240.672 149.593 240.584C149.68 241.051 147.898 242.746 147.431 243.301C146.905 243.914 144.539 245.638 144.685 246.572C144.714 246.835 145.445 246.485 145.386 246.981C145.328 247.682 144.861 248.5 144.919 249.231C145.036 250.399 146.584 252.824 147.694 253.495C149.768 254.722 153.536 252.327 155.23 254.722C155.581 255.19 155.23 254.722 155.581 255.599C155.552 256.066 155.406 256.475 155.084 256.796C154.675 257.118 154.792 257.351 155.377 257.527C155.669 259.133 156.866 260.243 156.428 262.142C155.932 264.157 155.669 264.45 156.165 266.699C156.457 267.926 156.925 271.489 157.713 272.249C158.765 273.271 161.102 272.307 162.095 271.635C162.825 271.139 163.147 270.467 163.643 269.854C163.702 269.561 163.76 269.269 163.76 268.948C164.14 268.773 164.49 268.598 164.841 268.451C165.075 267.838 164.666 266.962 164.928 266.465C165.337 265.735 166.272 265.822 166.827 265.326C168.492 263.778 167.236 262.609 167.558 260.886C167.967 258.695 174.802 255.219 172.582 253.7C172.144 253.408 171.238 253.758 170.654 253.466C170.128 253.203 169.398 252.21 169.047 251.684C167.645 249.61 167.879 246.952 166.535 244.82Z" fill="url(#paint5_linear_721_1021)"/>
<path d="M203.69 199.542L126.617 190.674L126.083 195.317L203.156 204.185L203.69 199.542Z" fill="white"/>
<path d="M204.148 316.443L115.438 306.236L114.904 310.879L203.613 321.086L204.148 316.443Z" fill="white"/>
<path d="M197.237 325L120.164 316.132L119.63 320.775L196.703 329.642L197.237 325Z" fill="white"/>
<path d="M239 0H157V394H239V0Z" fill="#F3FBF8"/>
<defs>
<linearGradient id="paint0_linear_721_1021" x1="114.135" y1="181.924" x2="68.7159" y2="243.695" gradientUnits="userSpaceOnUse">
<stop stop-color="white"/>
<stop offset="1" stop-color="white"/>
</linearGradient>
<linearGradient id="paint1_linear_721_1021" x1="109.002" y1="188.908" x2="73.02" y2="237.843" gradientUnits="userSpaceOnUse">
<stop stop-color="white"/>
<stop offset="1" stop-color="white"/>
</linearGradient>
<linearGradient id="paint2_linear_721_1021" x1="97.8212" y1="198.895" x2="82.6247" y2="223.719" gradientUnits="userSpaceOnUse">
<stop stop-color="white"/>
<stop offset="1" stop-color="white"/>
</linearGradient>
<linearGradient id="paint3_linear_721_1021" x1="182.388" y1="223.256" x2="136.962" y2="285.035" gradientUnits="userSpaceOnUse">
<stop stop-color="white"/>
<stop offset="1" stop-color="white"/>
</linearGradient>
<linearGradient id="paint4_linear_721_1021" x1="177.251" y1="230.244" x2="141.328" y2="279.099" gradientUnits="userSpaceOnUse">
<stop stop-color="white"/>
<stop offset="1" stop-color="white"/>
</linearGradient>
<linearGradient id="paint5_linear_721_1021" x1="170.644" y1="243.866" x2="147.848" y2="261.958" gradientUnits="userSpaceOnUse">
<stop stop-color="white"/>
<stop offset="1" stop-color="white"/>
</linearGradient>
</defs>
</svg>
