<svg width="24" height="24" viewBox="0 0 24 24" fill="none" xmlns="http://www.w3.org/2000/svg">
<path d="M20.8125 14.8501L16.4156 12.9751C16.1888 12.8734 15.9397 12.8313 15.692 12.8526C15.4443 12.8739 15.2061 12.958 15 13.097L12.6469 14.6626C11.2127 13.9661 10.0516 12.8115 9.34687 11.3814L10.9031 9.00013C11.0412 8.79376 11.1255 8.55619 11.1484 8.30897C11.1713 8.06176 11.1321 7.81273 11.0344 7.5845L9.15 3.18763C9.01851 2.89074 8.79586 2.64345 8.51435 2.48162C8.23284 2.31979 7.90711 2.25185 7.58437 2.28763C6.31837 2.45348 5.15566 3.07342 4.31243 4.03218C3.46919 4.99095 3.00281 6.22331 3 7.50013C3 14.9439 9.05625 21.0001 16.5 21.0001C17.7768 20.9973 19.0092 20.5309 19.9679 19.6877C20.9267 18.8445 21.5467 17.6818 21.7125 16.4158C21.7483 16.093 21.6803 15.7673 21.5185 15.4858C21.3567 15.2043 21.1094 14.9816 20.8125 14.8501Z" fill="#540A45"/>
<path d="M14.7559 4.47197C15.8975 4.78386 16.9381 5.38803 17.7749 6.22485C18.6117 7.06168 19.2159 8.10223 19.5278 9.24384C19.5692 9.40412 19.6624 9.54621 19.793 9.64796C19.9235 9.7497 20.0841 9.80539 20.2496 9.80634C20.3163 9.80622 20.3825 9.79675 20.4465 9.77822C20.5419 9.75327 20.6313 9.70955 20.7095 9.64961C20.7877 9.58968 20.8532 9.51473 20.9021 9.42917C20.951 9.3436 20.9823 9.24914 20.9942 9.15132C21.0062 9.05349 20.9984 8.95427 20.9715 8.85947C20.5965 7.46136 19.8603 6.18652 18.8368 5.16297C17.8132 4.13942 16.5384 3.40319 15.1403 3.02822C15.0424 2.99258 14.9383 2.9777 14.8344 2.98452C14.7305 2.99135 14.6291 3.01974 14.5368 3.06788C14.4445 3.11602 14.3632 3.18285 14.2981 3.26413C14.233 3.3454 14.1856 3.43934 14.1588 3.53996C14.132 3.64057 14.1265 3.74567 14.1425 3.84854C14.1586 3.95142 14.1959 4.04983 14.252 4.1375C14.3082 4.22517 14.382 4.30019 14.4688 4.35777C14.5555 4.41536 14.6533 4.45425 14.7559 4.47197Z" fill="#540A45"/>
<path d="M13.9781 7.36894C14.6126 7.54265 15.191 7.87866 15.6562 8.34388C16.1215 8.8091 16.4575 9.38749 16.6312 10.0221C16.6711 10.1831 16.764 10.3262 16.8949 10.4282C17.0258 10.5302 17.1871 10.5852 17.3531 10.5846C17.4167 10.5852 17.48 10.5757 17.5406 10.5564C17.6367 10.5325 17.7272 10.4895 17.8064 10.43C17.8857 10.3705 17.9522 10.2957 18.002 10.2101C18.0519 10.1244 18.084 10.0296 18.0965 9.93127C18.109 9.83295 18.1017 9.73312 18.0749 9.63769C17.8382 8.74661 17.3701 7.93392 16.7182 7.28197C16.0662 6.63002 15.2535 6.16195 14.3624 5.92519C14.2646 5.88955 14.1604 5.87467 14.0565 5.8815C13.9526 5.88833 13.8513 5.91671 13.759 5.96485C13.6666 6.01299 13.5854 6.07982 13.5203 6.1611C13.4552 6.24238 13.4077 6.33631 13.381 6.43693C13.3542 6.53755 13.3486 6.64264 13.3647 6.74551C13.3807 6.84839 13.418 6.9468 13.4742 7.03447C13.5304 7.12214 13.6042 7.19716 13.6909 7.25474C13.7777 7.31233 13.8755 7.35122 13.9781 7.36894Z" fill="#540A45"/>
</svg>
