<svg width="33" height="33" viewBox="0 0 33 33" fill="none" xmlns="http://www.w3.org/2000/svg">
<g clip-path="url(#clip0_396_918)">
<path d="M10.675 7.56378L24.8017 15.8048C24.9029 15.864 24.9869 15.9488 25.0452 16.0505C25.1036 16.1523 25.1343 16.2676 25.1343 16.3849C25.1343 16.5022 25.1036 16.6174 25.0452 16.7192C24.9869 16.821 24.9029 16.9057 24.8017 16.965L10.675 25.206C10.5727 25.2657 10.4564 25.2973 10.3379 25.2976C10.2194 25.2979 10.1029 25.2668 10.0003 25.2076C9.89762 25.1483 9.81246 25.063 9.75342 24.9603C9.69439 24.8575 9.66356 24.741 9.66407 24.6225V8.14455C9.66403 8.02628 9.69521 7.91009 9.75444 7.80772C9.81367 7.70534 9.89887 7.62041 10.0014 7.5615C10.104 7.50258 10.2203 7.47177 10.3385 7.47217C10.4568 7.47257 10.5729 7.50417 10.675 7.56378Z" fill="white"/>
</g>
<defs>
<clipPath id="clip0_396_918">
<rect width="32.2649" height="32.2649" fill="white" transform="translate(0.25 0.251709)"/>
</clipPath>
</defs>
</svg>
