<svg width="129" height="39" viewBox="0 0 129 39" fill="none" xmlns="http://www.w3.org/2000/svg">
<g clip-path="url(#clip0_527_1187)">
<path d="M123.658 0.219482H4.75656C2.12985 0.219482 0.000488281 2.34885 0.000488281 4.97556V33.512C0.000488281 36.1387 2.12985 38.2681 4.75656 38.2681H123.658C126.285 38.2681 128.414 36.1387 128.414 33.512V4.97556C128.414 2.34885 126.285 0.219482 123.658 0.219482Z" fill="black"/>
<path d="M123.658 0.980508C124.718 0.981732 125.733 1.40307 126.482 2.15207C127.231 2.90108 127.652 3.91658 127.653 4.9758V33.5122C127.652 34.5714 127.231 35.5869 126.482 36.336C125.733 37.085 124.718 37.5063 123.658 37.5075H4.75656C3.69734 37.5063 2.68185 37.085 1.93288 36.336C1.18391 35.587 0.762631 34.5715 0.76146 33.5122V4.9758C0.762613 3.91657 1.18389 2.90105 1.93286 2.15204C2.68183 1.40304 3.69733 0.981712 4.75656 0.980508H123.658ZM123.658 0.219727H4.75656C3.49631 0.223415 2.28872 0.725685 1.39759 1.61682C0.506447 2.50796 0.00417719 3.71555 0.000488281 4.9758L0.000488281 33.5122C0.00417719 34.7725 0.506447 35.9801 1.39759 36.8712C2.28872 37.7624 3.49631 38.2646 4.75656 38.2683H123.658C124.919 38.2646 126.126 37.7624 127.017 36.8712C127.909 35.9801 128.411 34.7725 128.414 33.5122V4.9758C128.411 3.71555 127.909 2.50796 127.017 1.61682C126.126 0.725685 124.919 0.223415 123.658 0.219727Z" fill="#A6A6A6"/>
<path d="M45.1052 9.96308C45.1225 10.3121 45.0686 10.661 44.9467 10.9886C44.8249 11.3161 44.6376 11.6154 44.3964 11.8683C44.126 12.1487 43.7995 12.3688 43.4382 12.5143C43.077 12.6598 42.689 12.7274 42.2998 12.7127C41.9081 12.7162 41.5197 12.6413 41.1573 12.4926C40.7949 12.3438 40.466 12.1241 40.1897 11.8464C39.9135 11.5687 39.6956 11.2386 39.5487 10.8754C39.4019 10.5123 39.3292 10.1234 39.3348 9.73175C39.3292 9.34007 39.402 8.95123 39.5488 8.58807C39.6957 8.22492 39.9136 7.89477 40.1898 7.61702C40.466 7.33927 40.795 7.11953 41.1573 6.9707C41.5197 6.82187 41.9081 6.74695 42.2998 6.75035C42.7025 6.74914 43.1012 6.83056 43.4712 6.98959C43.8149 7.12888 44.1207 7.34738 44.3639 7.62728L43.8623 8.12933C43.6711 7.90432 43.4308 7.72624 43.1599 7.60883C42.889 7.49142 42.5947 7.43782 42.2998 7.45216C42.0029 7.45063 41.7088 7.50902 41.4351 7.62384C41.1613 7.73866 40.9136 7.90755 40.7066 8.1204C40.4997 8.33324 40.3378 8.58566 40.2308 8.86254C40.1237 9.13941 40.0736 9.43505 40.0835 9.73175C40.0764 10.1762 40.2014 10.6126 40.4428 10.9859C40.6841 11.3591 41.0308 11.6523 41.439 11.8282C41.8471 12.0042 42.2983 12.0549 42.7354 11.9741C43.1724 11.8932 43.5756 11.6844 43.8939 11.3741C44.1867 11.0585 44.3565 10.6483 44.3722 10.218H42.2998V9.53247H45.0653C45.0914 9.67453 45.1048 9.81864 45.1052 9.96308Z" fill="white" stroke="white" stroke-width="0.158537" stroke-miterlimit="10"/>
<path d="M49.4902 7.5795H46.8911V9.389H49.2348V10.0746H46.8911V11.8841H49.4902V12.5855H46.1582V6.87817H49.4902V7.5795Z" fill="white" stroke="white" stroke-width="0.158537" stroke-miterlimit="10"/>
<path d="M52.5823 12.5855H51.8484V7.5795H50.2544V6.87817H54.1763V7.5795H52.5823V12.5855Z" fill="white" stroke="white" stroke-width="0.158537" stroke-miterlimit="10"/>
<path d="M57.0146 12.5855V6.87817H57.7476V12.5855H57.0146Z" fill="white" stroke="white" stroke-width="0.158537" stroke-miterlimit="10"/>
<path d="M61.0002 12.5855H60.2663V7.5795H58.6724V6.87817H62.5942V7.5795H61.0002V12.5855Z" fill="white" stroke="white" stroke-width="0.158537" stroke-miterlimit="10"/>
<path d="M70.0184 11.848C69.4629 12.4018 68.7104 12.7128 67.926 12.7128C67.1416 12.7128 66.3891 12.4018 65.8336 11.848C65.5588 11.5696 65.3428 11.2388 65.1983 10.8753C65.0539 10.5118 64.9841 10.1229 64.9929 9.73188C64.9841 9.34082 65.0539 8.95197 65.1983 8.58845C65.3428 8.22493 65.5588 7.89416 65.8336 7.61581C66.1082 7.34116 66.4342 7.12336 66.7931 6.97488C67.1519 6.8264 67.5366 6.75014 67.9249 6.75049C68.3133 6.75083 68.6978 6.82777 69.0563 6.97689C69.4149 7.12601 69.7406 7.34438 70.0147 7.61952C70.2897 7.89714 70.5062 8.22717 70.6512 8.59003C70.7963 8.95289 70.8669 9.34118 70.8591 9.73188C70.8677 10.1229 70.7977 10.5117 70.6533 10.8752C70.5089 11.2387 70.293 11.5695 70.0184 11.848ZM66.3751 11.3701C66.7866 11.7808 67.3442 12.0115 67.9255 12.0115C68.5069 12.0115 69.0645 11.7808 69.4759 11.3701C69.6869 11.1541 69.8519 10.8975 69.9609 10.616C70.07 10.3344 70.1208 10.0336 70.1104 9.73188C70.1208 9.43012 70.07 9.12937 69.9609 8.8478C69.8519 8.56624 69.6869 8.3097 69.4759 8.0937C69.0645 7.68297 68.5069 7.45228 67.9255 7.45228C67.3442 7.45228 66.7866 7.68297 66.3751 8.0937C66.1645 8.30987 65.9997 8.56646 65.8908 8.848C65.782 9.12954 65.7312 9.4302 65.7416 9.73188C65.7312 10.0336 65.782 10.3342 65.8908 10.6158C65.9997 10.8973 66.1645 11.1539 66.3751 11.3701Z" fill="white" stroke="white" stroke-width="0.158537" stroke-miterlimit="10"/>
<path d="M71.8887 12.5855V6.87817H72.7814L75.5551 11.318H75.5867L75.5551 10.2181V6.87817H76.289V12.5855H75.5235L72.6216 7.9306H72.59L72.6216 9.03049V12.5855H71.8887Z" fill="white" stroke="white" stroke-width="0.158537" stroke-miterlimit="10"/>
<path d="M64.8121 20.9101C64.0126 20.9131 63.2319 21.153 62.5686 21.5994C61.9053 22.0458 61.3892 22.6787 61.0853 23.4182C60.7815 24.1577 60.7035 24.9707 60.8614 25.7545C61.0192 26.5382 61.4057 27.2577 61.9722 27.8219C62.5386 28.3862 63.2595 28.77 64.0438 28.9248C64.8282 29.0797 65.6409 28.9987 66.3792 28.692C67.1176 28.3853 67.7485 27.8668 68.1924 27.2018C68.6363 26.5368 68.8731 25.7552 68.8731 24.9557C68.881 24.421 68.7812 23.8901 68.5797 23.3947C68.3782 22.8993 68.0791 22.4495 67.7002 22.072C67.3213 21.6946 66.8704 21.3972 66.3742 21.1976C65.8781 20.998 65.3468 20.9002 64.8121 20.9101ZM64.8121 27.4077C64.3197 27.4428 63.8282 27.3288 63.4015 27.0807C62.9748 26.8325 62.6327 26.4616 62.4197 26.0163C62.2067 25.571 62.1328 25.0719 62.2075 24.5839C62.2821 24.096 62.502 23.6418 62.8384 23.2806C63.1748 22.9193 63.6121 22.6677 64.0935 22.5585C64.5749 22.4494 65.078 22.4876 65.5374 22.6684C65.9967 22.8491 66.391 23.164 66.6689 23.5719C66.9468 23.9799 67.0954 24.4621 67.0954 24.9557C67.1103 25.2676 67.0627 25.5792 66.9554 25.8724C66.8481 26.1656 66.6832 26.4343 66.4704 26.6628C66.2576 26.8913 66.0013 27.0749 65.7165 27.2028C65.4317 27.3307 65.1242 27.4004 64.8121 27.4077ZM55.9531 20.9101C55.1536 20.9131 54.3729 21.153 53.7096 21.5993C53.0463 22.0457 52.5301 22.6786 52.2262 23.4181C51.9223 24.1576 51.8444 24.9706 52.0022 25.7544C52.1601 26.5382 52.5466 27.2576 53.113 27.8219C53.6794 28.3862 54.4003 28.77 55.1847 28.9248C55.969 29.0797 56.7817 28.9987 57.5201 28.692C58.2584 28.3854 58.8894 27.8668 59.3333 27.2018C59.7771 26.5368 60.014 25.7552 60.014 24.9557C60.0218 24.421 59.9221 23.8901 59.7206 23.3947C59.5191 22.8993 59.22 22.4495 58.8411 22.0721C58.4622 21.6946 58.0113 21.3972 57.5152 21.1976C57.019 20.998 56.4878 20.9002 55.9531 20.9101ZM55.9531 27.4077C55.4607 27.4428 54.9692 27.3288 54.5425 27.0807C54.1157 26.8325 53.7736 26.4616 53.5607 26.0163C53.3477 25.571 53.2737 25.0719 53.3484 24.5839C53.4231 24.096 53.6429 23.6418 53.9793 23.2806C54.3157 22.9193 54.7531 22.6677 55.2345 22.5585C55.7159 22.4494 56.219 22.4876 56.6783 22.6684C57.1377 22.8491 57.5319 23.164 57.8098 23.5719C58.0877 23.9799 58.2364 24.4621 58.2364 24.9557C58.2513 25.2676 58.2037 25.5793 58.0964 25.8724C57.9891 26.1656 57.8242 26.4343 57.6114 26.6628C57.3986 26.8913 57.1423 27.0749 56.8575 27.2028C56.5727 27.3307 56.2652 27.4004 55.9531 27.4077ZM45.4147 22.1514V23.8677H49.5218C49.4625 24.6727 49.1331 25.4341 48.587 26.0285C48.1754 26.448 47.6804 26.7766 47.134 26.993C46.5877 27.2095 46.002 27.3089 45.4147 27.2851C44.2143 27.2688 43.0685 26.7805 42.2254 25.9259C41.3822 25.0712 40.9095 23.9189 40.9095 22.7184C40.9095 21.5178 41.3822 20.3655 42.2254 19.5109C43.0685 18.6562 44.2143 18.1679 45.4147 18.1517C46.5678 18.1366 47.6803 18.5772 48.5104 19.3776L49.721 18.167C49.1546 17.6063 48.482 17.1643 47.7425 16.8669C47.003 16.5695 46.2117 16.4228 45.4147 16.4353C44.5819 16.4232 43.755 16.5767 42.9821 16.8871C42.2092 17.1974 41.5057 17.6582 40.9125 18.2429C40.3193 18.8275 39.8482 19.5243 39.5267 20.2926C39.2051 21.0609 39.0396 21.8855 39.0396 22.7184C39.0396 23.5513 39.2051 24.3758 39.5267 25.1442C39.8482 25.9125 40.3193 26.6092 40.9125 27.1939C41.5057 27.7785 42.2092 28.2394 42.9821 28.5497C43.755 28.86 44.5819 29.0135 45.4147 29.0014C46.2285 29.0352 47.0401 28.8955 47.7957 28.5917C48.5513 28.2878 49.2337 27.8268 49.7976 27.2391C50.7986 26.1464 51.3322 24.7053 51.2841 23.2241C51.288 22.8644 51.2572 22.5052 51.192 22.1514H45.4147ZM88.5127 23.4846C88.2695 22.7518 87.8067 22.1116 87.1871 21.651C86.5675 21.1904 85.8211 20.9317 85.0493 20.9101C84.5295 20.9133 84.0157 21.0219 83.5391 21.2293C83.0625 21.4367 82.6328 21.7386 82.2761 22.1168C81.9195 22.4949 81.6432 22.9415 81.464 23.4294C81.2848 23.9174 81.2064 24.4366 81.2336 24.9557C81.2219 25.4876 81.3175 26.0164 81.5147 26.5105C81.712 27.0047 82.0068 27.454 82.3815 27.8316C82.7563 28.2092 83.2033 28.5074 83.6959 28.7084C84.1885 28.9094 84.7166 29.0091 85.2486 29.0014C85.915 29.0051 86.572 28.8432 87.1604 28.5303C87.7489 28.2173 88.2503 27.7631 88.6199 27.2085L87.2407 26.289C87.0341 26.6322 86.7418 26.9157 86.3926 27.1118C86.0433 27.3079 85.6491 27.4099 85.2486 27.4077C84.8364 27.4234 84.429 27.315 84.0792 27.0964C83.7295 26.8778 83.4534 26.5591 83.287 26.1817L88.6966 23.9444L88.5127 23.4846ZM82.9959 24.8332C82.9769 24.5387 83.0167 24.2434 83.1132 23.9646C83.2096 23.6857 83.3607 23.4289 83.5576 23.2091C83.7546 22.9894 83.9933 22.8111 84.26 22.6848C84.5266 22.5584 84.8158 22.4865 85.1106 22.4732C85.4175 22.453 85.7236 22.5237 85.9907 22.6763C86.2577 22.8289 86.474 23.0567 86.6124 23.3314L82.9959 24.8332ZM78.5977 28.7562H80.3753V16.8645H78.5977V28.7562ZM75.686 21.8142H75.6248C75.3545 21.5206 75.0247 21.2881 74.6573 21.1321C74.29 20.9762 73.8936 20.9005 73.4946 20.9101C72.4514 20.9545 71.4657 21.4001 70.7432 22.154C70.0208 22.9078 69.6175 23.9116 69.6175 24.9558C69.6175 25.9999 70.0208 27.0037 70.7432 27.7575C71.4657 28.5114 72.4514 28.957 73.4946 29.0014C73.8951 29.0121 74.2932 28.9353 74.6611 28.7766C75.0289 28.6178 75.3578 28.3808 75.6248 28.082H75.686V28.6643C75.686 30.2121 74.8586 31.0396 73.5252 31.0396C73.0809 31.029 72.6498 30.8863 72.2868 30.6297C71.9238 30.3732 71.6455 30.0144 71.4872 29.5991L69.9393 30.2428C70.2311 30.953 70.7282 31.56 71.3671 31.9859C72.0059 32.4118 72.7574 32.6372 73.5252 32.6334C75.6094 32.6334 77.3718 31.4074 77.3718 28.4191V21.1552H75.686V21.8142ZM73.6479 27.4077C73.0335 27.3556 72.461 27.0747 72.0439 26.6206C71.6267 26.1665 71.3951 25.5724 71.3951 24.9558C71.3951 24.3391 71.6267 23.745 72.0439 23.2909C72.461 22.8368 73.0335 22.556 73.6479 22.5039C73.9536 22.5188 74.2532 22.5951 74.5287 22.7283C74.8043 22.8614 75.0502 23.0487 75.2518 23.2789C75.4535 23.5092 75.6067 23.7776 75.7023 24.0684C75.798 24.3591 75.8341 24.6661 75.8086 24.971C75.8325 25.2741 75.7951 25.5789 75.6984 25.8672C75.6018 26.1555 75.4481 26.4213 75.2464 26.6487C75.0446 26.8762 74.7991 27.0607 74.5245 27.1911C74.2498 27.3215 73.9517 27.3951 73.6479 27.4077ZM96.8395 16.8647H92.5864V28.7562H94.3611V24.2509H96.8395C97.3415 24.2784 97.8439 24.2033 98.3159 24.0301C98.7879 23.8569 99.2196 23.5894 99.5847 23.2437C99.9498 22.8981 100.241 22.4816 100.439 22.0198C100.638 21.558 100.741 21.0605 100.741 20.5578C100.741 20.055 100.638 19.5575 100.439 19.0957C100.241 18.6339 99.9498 18.2175 99.5847 17.8718C99.2196 17.5262 98.7879 17.2586 98.3159 17.0854C97.8439 16.9123 97.3415 16.8372 96.8395 16.8647ZM96.8854 22.5959H94.3611V18.5197H96.8854C97.1566 18.5141 97.4262 18.5626 97.6784 18.6625C97.9305 18.7624 98.1603 18.9117 98.3541 19.1015C98.5478 19.2913 98.7018 19.5179 98.8069 19.768C98.912 20.018 98.9662 20.2866 98.9662 20.5578C98.9662 20.8291 98.912 21.0976 98.8069 21.3477C98.7018 21.5978 98.5478 21.8243 98.3541 22.0142C98.1603 22.204 97.9305 22.3532 97.6784 22.4531C97.4262 22.553 97.1566 22.6016 96.8854 22.5959ZM107.854 20.8882C107.207 20.8504 106.562 21.0025 105.999 21.3259C105.437 21.6493 104.981 22.1299 104.688 22.7088L106.263 23.3666C106.42 23.0793 106.656 22.8438 106.944 22.6889C107.232 22.534 107.559 22.4665 107.885 22.4945C108.335 22.4506 108.785 22.5869 109.134 22.8737C109.484 23.1605 109.706 23.5743 109.751 24.0244V24.1468C109.182 23.844 108.546 23.6864 107.9 23.6878C106.202 23.6878 104.473 24.6211 104.473 26.3651C104.49 26.7327 104.58 27.0932 104.739 27.4252C104.897 27.7573 105.121 28.0541 105.396 28.2981C105.671 28.5421 105.993 28.7283 106.342 28.8456C106.69 28.963 107.059 29.0091 107.426 28.9812C107.873 29.0075 108.319 28.9135 108.717 28.709C109.115 28.5045 109.451 28.197 109.69 27.8185H109.751V28.7364H111.465V24.1774C111.465 22.0662 109.889 20.8882 107.854 20.8882ZM107.64 27.4054C107.059 27.4054 106.248 27.1148 106.248 26.3957C106.248 25.4778 107.258 25.1259 108.13 25.1259C108.696 25.1108 109.256 25.2482 109.751 25.5237C109.686 26.0395 109.437 26.5142 109.048 26.8601C108.66 27.206 108.16 27.3997 107.64 27.4054ZM117.707 21.1483L115.672 26.3039H115.611L113.5 21.1483H111.587L114.754 28.3539L112.949 32.3622H114.8L119.68 21.1483H117.707ZM101.72 28.7562H103.494V16.8647H101.72V28.7562Z" fill="white"/>
<path d="M9.92659 7.38986C9.61467 7.7628 9.45718 8.24091 9.48637 8.72622V29.7634C9.45709 30.2487 9.6146 30.7268 9.92659 31.0997L9.99698 31.1683L21.7816 19.3838V19.1058L9.99698 7.3208L9.92659 7.38986Z" fill="url(#paint0_linear_527_1187)"/>
<path d="M25.7097 23.3138L21.7817 19.3839V19.1059L25.7106 15.177L25.7992 15.2275L30.4533 17.872C31.7827 18.6272 31.7827 19.8631 30.4533 20.6188L25.7992 23.2633L25.7097 23.3138Z" fill="url(#paint1_linear_527_1187)"/>
<path d="M25.7992 23.2627L21.7817 19.2449L9.92676 31.0998C10.1976 31.3387 10.5435 31.4753 10.9046 31.486C11.2656 31.4966 11.619 31.3807 11.9035 31.1582L25.7992 23.2627Z" fill="url(#paint2_linear_527_1187)"/>
<path d="M25.7992 15.2269L11.9035 7.33139C11.619 7.1089 11.2656 6.99294 10.9046 7.00361C10.5435 7.01427 10.1976 7.15089 9.92676 7.3898L21.7817 19.2448L25.7992 15.2269Z" fill="url(#paint3_linear_527_1187)"/>
<path opacity="0.2" d="M25.7106 23.1741L11.9035 31.019C11.6299 31.2273 11.2961 31.3409 10.9523 31.3427C10.6085 31.3446 10.2734 31.2345 9.99762 31.0292L9.92676 31.1001L9.99715 31.1687L9.99762 31.1682C10.2733 31.3736 10.6084 31.4837 10.9523 31.4819C11.2961 31.48 11.63 31.3664 11.9035 31.158L25.7992 23.2625L25.7106 23.1741Z" fill="black"/>
<path opacity="0.12" d="M9.92657 30.9611C9.61468 30.5882 9.45719 30.1101 9.48635 29.6248V29.7637C9.45717 30.249 9.61467 30.7271 9.92657 31.1001L9.99743 31.0292L9.92657 30.9611Z" fill="black"/>
<path opacity="0.12" d="M30.4531 20.4791L25.7104 23.1741L25.799 23.2626L30.4531 20.6181C30.7269 20.4993 30.9638 20.3092 31.1392 20.0678C31.3145 19.8263 31.422 19.5422 31.4503 19.2451C31.3914 19.5142 31.2707 19.7658 31.0976 19.98C30.9245 20.1942 30.7038 20.3651 30.4531 20.4791Z" fill="black"/>
<path opacity="0.25" d="M11.9033 7.47089L30.4531 18.0103C30.7039 18.1244 30.9246 18.2953 31.0977 18.5096C31.2708 18.7239 31.3915 18.9757 31.4503 19.2448C31.4222 18.9476 31.3148 18.6634 31.1394 18.4218C30.964 18.1802 30.727 17.9901 30.4531 17.8714L11.9033 7.33191C10.5739 6.57656 9.48633 7.20398 9.48633 8.72668V8.86565C9.48633 7.34304 10.5739 6.71562 11.9033 7.47089Z" fill="white"/>
</g>
<defs>
<linearGradient id="paint0_linear_527_1187" x1="20.7365" y1="8.50441" x2="4.77284" y2="24.4681" gradientUnits="userSpaceOnUse">
<stop stop-color="#00A0FF"/>
<stop offset="0.00657" stop-color="#00A1FF"/>
<stop offset="0.2601" stop-color="#00BEFF"/>
<stop offset="0.5122" stop-color="#00D2FF"/>
<stop offset="0.7604" stop-color="#00DFFF"/>
<stop offset="1" stop-color="#00E3FF"/>
</linearGradient>
<linearGradient id="paint1_linear_527_1187" x1="32.1842" y1="19.2454" x2="9.16776" y2="19.2454" gradientUnits="userSpaceOnUse">
<stop stop-color="#FFE000"/>
<stop offset="0.4087" stop-color="#FFBD00"/>
<stop offset="0.7754" stop-color="#FFA500"/>
<stop offset="1" stop-color="#FF9C00"/>
</linearGradient>
<linearGradient id="paint2_linear_527_1187" x1="23.6162" y1="21.428" x2="1.9682" y2="43.076" gradientUnits="userSpaceOnUse">
<stop stop-color="#FF3A44"/>
<stop offset="1" stop-color="#C31162"/>
</linearGradient>
<linearGradient id="paint3_linear_527_1187" x1="6.94178" y1="0.387126" x2="16.6085" y2="10.0539" gradientUnits="userSpaceOnUse">
<stop stop-color="#32A071"/>
<stop offset="0.0685" stop-color="#2DA771"/>
<stop offset="0.4762" stop-color="#15CF74"/>
<stop offset="0.8009" stop-color="#06E775"/>
<stop offset="1" stop-color="#00F076"/>
</linearGradient>
<clipPath id="clip0_527_1187">
<rect width="128.414" height="38.0488" fill="white" transform="translate(0.000488281 0.219482)"/>
</clipPath>
</defs>
</svg>
