<svg width="99" height="72" viewBox="0 0 99 72" fill="none" xmlns="http://www.w3.org/2000/svg">
<path opacity="0.3" d="M43.2058 51.1583C43.2058 39.0282 35.4301 32.1855 25.7882 32.1855C22.0558 32.1855 19.2566 33.1186 17.0794 34.3627C17.0794 24.4098 25.7882 16.3231 37.9183 13.8348V0.771596C16.1463 3.88188 0.2838 21.9216 0.2838 44.6267C0.2838 61.4223 10.2367 71.6862 22.6779 71.6862C35.1191 71.6862 43.2058 62.9774 43.2058 51.1583ZM98.88 51.1583C98.88 39.0282 90.7932 32.1855 81.1514 32.1855C77.73 32.1855 74.9308 32.8076 72.7536 34.0517C72.7536 24.4098 81.4624 16.3231 93.5925 13.8348V0.771596C71.8205 3.88188 55.647 21.9216 55.647 44.6267C55.647 61.4223 65.5999 71.6862 78.3521 71.6862C90.4822 71.6862 98.88 62.9774 98.88 51.1583Z" fill="#540A45"/>
</svg>
