<svg width="162" height="27" viewBox="0 0 162 27" fill="none" xmlns="http://www.w3.org/2000/svg">
<path d="M13.5 0L16.5309 9.32825L26.3392 9.32825L18.4041 15.0934L21.4351 24.4217L13.5 18.6565L5.56489 24.4217L8.59582 15.0934L0.660736 9.32825L10.469 9.32825L13.5 0Z" fill="#540A45"/>
<path d="M47.25 0L50.2809 9.32825L60.0892 9.32825L52.1541 15.0934L55.1851 24.4217L47.25 18.6565L39.3149 24.4217L42.3458 15.0934L34.4107 9.32825L44.219 9.32825L47.25 0Z" fill="#540A45"/>
<path d="M114.75 0L117.781 9.32825L127.589 9.32825L119.654 15.0934L122.685 24.4217L114.75 18.6565L106.815 24.4217L109.846 15.0934L101.911 9.32825L111.719 9.32825L114.75 0Z" fill="#540A45"/>
<path d="M148.5 1.36521L151.13 9.45862L151.224 9.75013H151.531L160.041 9.75013L153.156 14.7521L152.908 14.9323L153.003 15.2238L155.633 23.3172L148.748 18.3152L148.5 18.135L148.252 18.3152L141.367 23.3172L143.997 15.2238L144.092 14.9323L143.844 14.7521L136.959 9.75013L145.469 9.75013H145.776L145.87 9.45862L148.5 1.36521Z" stroke="#540A45" stroke-width="0.843749"/>
<path d="M80.9995 0L84.0304 9.32825L93.8387 9.32825L85.9036 15.0934L88.9346 24.4217L80.9995 18.6565L73.0644 24.4217L76.0953 15.0934L68.1602 9.32825L77.9686 9.32825L80.9995 0Z" fill="#540A45"/>
</svg>
