<svg width="177" height="22" viewBox="0 0 177 22" fill="none" xmlns="http://www.w3.org/2000/svg">
<path d="M66.3498 8.2865V17.67H62.3251V8.2865H58.2544V5.29907H70.409V8.2865H66.3498Z" fill="#676767"/>
<path d="M79.8149 13.9376H73.4214C73.5479 14.966 74.2493 15.4166 75.2727 15.4166C76.2272 15.4166 77.0206 15.2403 78.09 14.7603L79.5159 16.7977C78.1705 17.4735 76.7791 17.8555 75.0773 17.8555C71.8 17.8555 69.9946 15.8769 69.9946 13.0266C69.9946 9.82373 72.1105 8.18799 74.9738 8.18799C77.9635 8.18799 79.8264 9.86291 79.8264 13.3107C79.8264 13.5849 79.8264 13.7808 79.8149 13.9376ZM74.8703 10.5485C74.0193 10.5485 73.5479 11.0481 73.4214 11.959H76.5376C76.3422 11.0187 75.9742 10.5485 74.8703 10.5485Z" fill="#676767"/>
<path d="M86.7604 17.8655C83.5636 17.8655 81.6548 16.1318 81.6548 13.0073C81.6548 10.157 83.3567 8.198 86.8409 8.198C88.8993 8.198 90.0722 9.01097 91.0266 10.3137L88.4508 11.9788C87.9333 11.1658 87.5768 10.774 86.7719 10.774C85.8175 10.774 85.3345 11.587 85.3345 13.0562C85.3345 14.5255 85.852 15.2797 86.8754 15.2797C87.5769 15.2797 88.0828 14.9466 88.7613 14.0749L91.1301 15.6519C89.8652 17.2386 88.6923 17.8655 86.7604 17.8655Z" fill="#676767"/>
<path d="M99.4906 17.6698V12.4002C99.4906 11.1954 99.0192 10.882 98.2487 10.882C97.4553 10.882 96.9838 11.1954 96.9838 12.3708V17.6698H93.2466V6.05312L96.9838 4.77979V9.01116C97.6738 8.57039 98.4327 8.19819 99.7206 8.19819C102.112 8.19819 103.251 9.55967 103.251 11.9986V17.6698H99.4906Z" fill="#676767"/>
<path d="M112.186 17.8652C107.873 17.8652 105.562 15.1422 105.562 11.4888C105.562 7.51204 108.299 5.1123 112.197 5.1123C115.762 5.1123 117.176 6.42481 118.177 8.75599L114.531 9.96075C114.014 8.81476 113.519 8.08994 112.186 8.08994C110.507 8.08994 109.782 9.51999 109.782 11.479C109.782 13.3694 110.484 14.868 112.232 14.868C113.496 14.868 114.037 14.2803 114.819 13.1147L118.223 14.6525C117.257 16.2882 115.635 17.8652 112.186 17.8652Z" fill="#676767"/>
<path d="M127.41 11.8906C126.939 11.4499 126.398 11.1168 125.674 11.1168C124.766 11.1168 124.202 11.489 124.202 12.6154V17.6696H120.465V8.39387H124.202V9.06971C124.846 8.54079 125.57 8.20776 126.525 8.20776C127.318 8.20776 127.847 8.36448 128.284 8.59956L127.41 11.8906Z" fill="#676767"/>
<path d="M136.288 17.6695V17.0524C135.621 17.4932 134.839 17.8654 133.574 17.8654C131.182 17.8654 130.044 16.5039 130.044 14.065V8.3938H133.804V13.6634C133.804 14.8682 134.276 15.1816 135.046 15.1816C135.817 15.1816 136.288 14.8682 136.288 13.6928V8.3938H140.048V17.6695H136.288Z" fill="#676767"/>
<path d="M148.983 17.6696V12.4C148.983 11.1952 148.511 10.8818 147.741 10.8818C146.947 10.8818 146.476 11.1952 146.476 12.3706V17.6696H142.739V8.3939H146.476V9.01097C147.166 8.5702 147.925 8.198 149.213 8.198C151.605 8.198 152.743 9.55948 152.743 11.9984V17.6696H148.983Z" fill="#676767"/>
<path d="M160.022 17.8655C156.825 17.8655 154.917 16.1318 154.917 13.0073C154.917 10.157 156.618 8.198 160.103 8.198C162.161 8.198 163.334 9.01097 164.288 10.3137L161.713 11.9788C161.195 11.1658 160.839 10.774 160.034 10.774C159.079 10.774 158.596 11.587 158.596 13.0562C158.596 14.5255 159.114 15.2797 160.137 15.2797C160.839 15.2797 161.345 14.9466 162.023 14.0749L164.392 15.6519C163.127 17.2386 161.954 17.8655 160.022 17.8655Z" fill="#676767"/>
<path d="M172.751 17.6698V12.4002C172.751 11.1954 172.28 10.882 171.509 10.882C170.716 10.882 170.245 11.1954 170.245 12.3708V17.6698H166.507V6.05312L170.245 4.77979V9.01116C170.934 8.57039 171.693 8.19819 172.981 8.19819C175.373 8.19819 176.512 9.55967 176.512 11.9986V17.6698H172.751Z" fill="#676767"/>
<path d="M0 0V7.07188H8.30239V21.2058H16.5933V7.07188H24.8957V0H0Z" fill="#676767"/>
<path d="M33.1874 14.1336V7.07153H24.8965V21.2055H49.7806V14.1336H33.1874Z" fill="#676767"/>
<path d="M49.7798 0H33.1865V7.07188H49.7798V0Z" fill="#676767"/>
</svg>
