<svg width="31" height="25" viewBox="0 0 31 25" fill="none" xmlns="http://www.w3.org/2000/svg">
<g clip-path="url(#clip0_527_1130)">
<path d="M9.70487 24.8966C21.2274 24.8966 27.5286 15.3581 27.5286 7.08671C27.5286 6.81579 27.5231 6.54609 27.511 6.27761C28.7341 5.39405 29.7972 4.29145 30.6358 3.03628C29.5133 3.53481 28.3054 3.87041 27.0383 4.02173C28.3317 3.24679 29.3246 2.02093 29.793 0.559569C28.5827 1.27654 27.2423 1.79764 25.8152 2.07898C24.672 0.862305 23.0446 0.101318 21.2425 0.101318C17.7831 0.101318 14.9778 2.90457 14.9778 6.35997C14.9778 6.85117 15.0327 7.32895 15.1402 7.78724C9.93374 7.52547 5.31704 5.03467 2.22729 1.24725C1.6893 2.17229 1.37908 3.24682 1.37908 4.39337C1.37908 6.56504 2.48502 8.48219 4.16679 9.60376C3.13902 9.57203 2.17355 9.29012 1.3297 8.82088C1.32877 8.84714 1.32877 8.87275 1.32877 8.90082C1.32877 11.9323 3.4881 14.4633 6.35449 15.0368C5.8281 15.1802 5.27426 15.2571 4.70265 15.2571C4.29961 15.2571 3.90695 15.2175 3.52529 15.1442C4.32281 17.6313 6.63543 19.4412 9.37723 19.4918C7.23317 21.171 4.53226 22.1711 1.59681 22.1711C1.09179 22.1711 0.592877 22.1424 0.102539 22.0845C2.87498 23.8601 6.16699 24.8962 9.70521 24.8962" fill="#540A45"/>
</g>
<defs>
<clipPath id="clip0_527_1130">
<rect width="30.7377" height="25" fill="white"/>
</clipPath>
</defs>
</svg>
