<svg width="18" height="15" viewBox="0 0 18 15" fill="none" xmlns="http://www.w3.org/2000/svg">
<g clip-path="url(#clip0_694_1346)">
<path d="M5.67466 14.5576C12.4114 14.5576 16.0955 8.98086 16.0955 4.14488C16.0955 3.98648 16.0923 3.8288 16.0852 3.67183C16.8003 3.15525 17.4219 2.5106 17.9121 1.77675C17.2559 2.06822 16.5497 2.26443 15.8088 2.35291C16.565 1.89983 17.1455 1.18311 17.4194 0.328713C16.7118 0.747899 15.9281 1.05257 15.0937 1.21705C14.4254 0.505711 13.4739 0.060791 12.4203 0.060791C10.3977 0.060791 8.75751 1.69974 8.75751 3.71998C8.75751 4.00717 8.78964 4.28651 8.85248 4.55445C5.80847 4.4014 3.10926 2.94513 1.3028 0.730772C0.988262 1.27161 0.806891 1.89985 0.806891 2.57019C0.806891 3.83988 1.45349 4.96076 2.43675 5.6165C1.83586 5.59795 1.27139 5.43313 0.778018 5.15878C0.777479 5.17414 0.777477 5.18911 0.777477 5.20552C0.777477 6.97789 2.03995 8.45768 3.71582 8.793C3.40806 8.87684 3.08425 8.92179 2.75005 8.92179C2.51441 8.92179 2.28484 8.89861 2.06169 8.85579C2.52797 10.3099 3.88007 11.3681 5.4831 11.3976C4.22955 12.3794 2.65043 12.9641 0.934187 12.9641C0.638921 12.9641 0.347228 12.9474 0.0605469 12.9135C1.68148 13.9517 3.6062 14.5574 5.67485 14.5574" fill="black" fill-opacity="0.7"/>
</g>
<defs>
<clipPath id="clip0_694_1346">
<rect width="17.9711" height="14.6165" fill="white"/>
</clipPath>
</defs>
</svg>
