<svg width="18" height="15" viewBox="0 0 18 15" fill="none" xmlns="http://www.w3.org/2000/svg">
<g clip-path="url(#clip0_527_1167)">
<path d="M5.67417 14.5559C12.411 14.5559 16.095 8.97915 16.095 4.14317C16.095 3.98477 16.0918 3.82709 16.0847 3.67012C16.7998 3.15354 17.4214 2.50889 17.9116 1.77504C17.2554 2.06651 16.5492 2.26272 15.8084 2.3512C16.5645 1.89812 17.1451 1.18141 17.4189 0.327004C16.7113 0.74619 15.9276 1.05086 15.0932 1.21534C14.4249 0.504002 13.4734 0.059082 12.4198 0.059082C10.3972 0.059082 8.75702 1.69803 8.75702 3.71827C8.75702 4.00546 8.78915 4.2848 8.85199 4.55274C5.80798 4.39969 3.10878 2.94342 1.30232 0.729063C0.987774 1.2699 0.806403 1.89814 0.806403 2.56848C0.806403 3.83817 1.45301 4.95906 2.43627 5.61479C1.83537 5.59624 1.2709 5.43142 0.77753 5.15707C0.776991 5.17243 0.776989 5.1874 0.776989 5.20381C0.776989 6.97618 2.03946 8.45597 3.71533 8.79129C3.40757 8.87513 3.08377 8.92008 2.74956 8.92008C2.51392 8.92008 2.28435 8.8969 2.06121 8.85408C2.52749 10.3082 3.87959 11.3663 5.48261 11.3959C4.22906 12.3777 2.64994 12.9624 0.933699 12.9624C0.638433 12.9624 0.34674 12.9457 0.0600586 12.9118C1.681 13.9499 3.60551 14.5559 5.67417 14.5559Z" fill="white"/>
</g>
<defs>
<clipPath id="clip0_527_1167">
<rect width="17.9711" height="14.6165" fill="white"/>
</clipPath>
</defs>
</svg>
