<svg width="86" height="38" viewBox="0 0 86 38" fill="none" xmlns="http://www.w3.org/2000/svg">
<path fill-rule="evenodd" clip-rule="evenodd" d="M0 0L10.0566 37.1018H25.8326L32.2481 24.7913H45.9443L50.798 15.6038H37.7949L38.4889 13.8694H51.4916L58.2534 0H28.7806L19.7649 18.5504L14.9103 0H0ZM60.8541 0L53.7465 14.0435H68.1363C70.3897 14.0435 70.3897 16.9905 70.0424 18.5504C69.6966 20.1107 67.4422 23.4055 65.8819 23.4055H48.1973L40.7433 37.2744H67.4417C69.6961 37.2744 80.099 31.2067 83.9128 20.2844C87.7266 9.36202 82.6993 0.174126 76.9774 0.174126C71.2565 0.174126 60.8541 0 60.8541 0Z" fill="#545454"/>
</svg>
