<?xml version="1.0" encoding="utf-8"?>
<!-- Generator: Adobe Illustrator 24.0.2, SVG Export Plug-In . SVG Version: 6.00 Build 0)  -->
<svg version="1.1" id="Capa_1" xmlns="http://www.w3.org/2000/svg" xmlns:xlink="http://www.w3.org/1999/xlink" x="0px" y="0px"
	 viewBox="0 0 28 28" style="enable-background:new 0 0 28 28;" xml:space="preserve">
<style type="text/css">
	.st0{fill:#08244D;}
</style>
<g>
	<g id="c129_exclamation">
		<path class="st0" d="M14,0C6.3,0,0,6.3,0,14c0,7.7,6.3,14,14,14s14-6.3,14-14C28,6.3,21.7,0,14,0z M14,26.5
			C7,26.5,1.4,20.9,1.4,14C1.4,7,7,1.4,14,1.4C20.9,1.4,26.5,7,26.5,14C26.5,20.9,20.9,26.5,14,26.5z"/>
		<polygon class="st0" points="15.6,17.2 16.2,4.6 11.8,4.6 12.4,17.2 		"/>
		<path class="st0" d="M14,18.5c-1.5,0-2.5,1-2.5,2.5c0,1.4,1,2.5,2.4,2.5H14c1.5,0,2.5-1.1,2.5-2.5C16.4,19.6,15.5,18.5,14,18.5z"
			/>
	</g>
	<g id="Capa_1_207_">
	</g>
</g>
</svg>
